<?xml version="1.0" standalone="no"?>
<!DOCTYPE svg PUBLIC "-//W3C//DTD SVG 1.1//EN" "http://www.w3.org/Graphics/SVG/1.1/DTD/svg11.dtd" >
<svg xmlns="http://www.w3.org/2000/svg" xmlns:xlink="http://www.w3.org/1999/xlink" version="1.1">
<metadata>
Created by FontForge 20170731 at Tue Apr  3 19:36:26 2018
 By Aleksey,,,
Copyright (c) 2017 by Kastelov. All rights reserved.
</metadata>
<defs>
<font id="Axiforma-Medium" horiz-adv-x="618" >
  <font-face 
    font-family="Axiforma Medium"
    font-weight="500"
    font-stretch="normal"
    units-per-em="1000"
    panose-1="0 0 6 0 0 0 0 0 0 0"
    ascent="800"
    descent="-200"
    x-height="538"
    cap-height="739"
    bbox="-428 -328 1277 1019"
    underline-thickness="50"
    underline-position="-200"
    unicode-range="U+000D-25CA"
  />
<missing-glyph horiz-adv-x="130" 
 />
    <glyph glyph-name="f_b" unicode="fb" horiz-adv-x="1078" 
d="M117 566q0 100 51 154t137 54q71 0 129 -32l-32 -88q-46 20 -80 20q-46 0 -70.5 -27t-24.5 -79v-29h171v-94h-171v-445h-110v445h-90v94h90v27zM770 552q115 0 192 -82t77 -201t-77 -200.5t-193 -81.5q-111 0 -182 90v-77h-109v758h110v-297q72 91 182 91zM755 90
q76 0 123.5 52t47.5 128t-47.5 128t-123.5 52q-77 0 -124.5 -52.5t-47.5 -127.5q0 -76 47.5 -128t124.5 -52z" />
    <glyph glyph-name="f_f" unicode="ff" horiz-adv-x="791" 
d="M721 674q-52 0 -80.5 -27.5t-28.5 -78.5v-29h170v-94h-170v-445h-110v445h-275v-445h-110v445h-90v94h90v31q0 99 61 152t162 52q81 0 156 -39l-37 -88q-67 27 -108 27q-57 0 -90.5 -27.5t-33.5 -78.5v-29h275v31q0 98 56.5 151t148.5 53q70 0 131 -32l-35 -89
q-50 21 -82 21z" />
    <glyph glyph-name="f_f_i" unicode="ffi" horiz-adv-x="1052" 
d="M707 674q-95 0 -95 -106v-29h193v-94h-193v-445h-110v445h-275v-445h-110v445h-90v94h90v31q0 98 61 151t161 53q80 0 158 -39l-38 -89q-66 28 -109 28q-56 0 -89.5 -28t-33.5 -78v-29h275v27q0 100 52 154t138 54q71 0 129 -32l-34 -88q-46 20 -80 20zM927 611
q-32 0 -53.5 21.5t-21.5 53.5q0 31 21.5 52t53.5 21q31 0 52.5 -21t21.5 -52q0 -32 -21.5 -53.5t-52.5 -21.5zM871 0v539h110v-539h-110z" />
    <glyph glyph-name="f_f_j" unicode="ffj" horiz-adv-x="1052" 
d="M792 445h-180v-445h-111v445h-274v-445h-110v445h-90v94h90v31q0 98 61 151t161 53q82 0 156 -39l-36 -89q-66 28 -109 28q-56 0 -89.5 -28t-33.5 -78v-29h274v27q0 100 52 154t139 54q70 0 129 -32l-34 -88q-46 20 -80 20q-95 0 -95 -106v-29h180v-94zM927 611
q-32 0 -54 21.5t-22 53.5q0 31 22 52t54 21q31 0 52.5 -21t21.5 -52q0 -32 -21.5 -53.5t-52.5 -21.5zM870 -21v560h111v-558q0 -103 -51 -157t-136 -54q-70 0 -105 24l21 90q40 -14 68 -14q92 0 92 109z" />
    <glyph glyph-name="f_h" unicode="fh" horiz-adv-x="1031" 
d="M117 566q0 100 51 154t138 54q70 0 128 -32l-32 -88q-46 20 -80 20q-46 0 -70.5 -27t-24.5 -79v-29h171v-94h-171v-445h-110v445h-90v94h90v27zM756 553q89 0 150 -58t61 -167v-328h-110v297q0 74 -35.5 114t-93.5 40q-62 0 -101 -43t-39 -112v-296h-110v758h107v-287
q24 37 69 59.5t102 22.5z" />
    <glyph glyph-name="f_i" unicode="fi" horiz-adv-x="667" 
d="M117 566q0 100 52 154t138 54q71 0 129 -32l-34 -88q-46 20 -80 20q-46 0 -70.5 -27t-24.5 -79v-29h171v-94h-171v-445h-110v445h-90v94h90v27zM542 610q-32 0 -53.5 21.5t-21.5 53.5q0 31 21.5 52.5t53.5 21.5t53 -21.5t21 -52.5q0 -32 -21 -53.5t-53 -21.5zM486 0v539
h110v-539h-110z" />
    <glyph glyph-name="f_j" unicode="fj" horiz-adv-x="667" 
d="M407 445h-180v-445h-110v445h-90v94h90v27q0 100 52 154t138 54q71 0 129 -32l-34 -88q-46 20 -80 20q-46 0 -70.5 -27t-24.5 -79v-29h180v-94zM542 610q-32 0 -53.5 21.5t-21.5 53.5q0 31 21.5 52.5t53.5 21.5t53 -21.5t21 -52.5q0 -32 -21 -53.5t-53 -21.5zM486 -21
v560h110v-558q0 -104 -50.5 -157.5t-136.5 -53.5q-68 0 -105 24l22 90q40 -14 68 -14q92 0 92 109z" />
    <glyph glyph-name="f_k" unicode="fk" horiz-adv-x="964" 
d="M117 566q0 100 51 154t137 54q71 0 129 -32l-32 -88q-46 20 -80 20q-46 0 -70.5 -27t-24.5 -79v-29h171v-94h-171v-445h-110v445h-90v94h90v27zM829 0l-194 245l-47 -43v-202h-110v758h110v-427l227 208h145l-248 -224l259 -315h-142z" />
    <glyph glyph-name="f_l" unicode="fl" horiz-adv-x="659" 
d="M117 566q0 101 49.5 154.5t136.5 53.5q67 0 128 -32l-29 -88q-46 20 -80 20q-46 0 -70.5 -27t-24.5 -79v-29h171v-94h-171v-445h-110v445h-90v94h90v27zM478 758h110v-758h-110v758z" />
    <glyph glyph-name=".notdef" horiz-adv-x="130" 
 />
    <glyph glyph-name=".null" horiz-adv-x="0" 
 />
    <glyph glyph-name="nonmarkingreturn" horiz-adv-x="333" 
 />
    <glyph glyph-name="CR" unicode="&#xd;" horiz-adv-x="130" 
 />
    <glyph glyph-name="space" unicode=" " horiz-adv-x="247" 
 />
    <glyph glyph-name="exclam" unicode="!" horiz-adv-x="301" 
d="M97 188l-5 557h119l-6 -557h-108zM153 -12q-30 0 -50.5 20t-20.5 50q0 29 20.5 48.5t50.5 19.5q29 0 48.5 -19.5t19.5 -48.5q0 -30 -19.5 -50t-48.5 -20z" />
    <glyph glyph-name="quotedbl" unicode="&#x22;" horiz-adv-x="495" 
d="M42 440l84 298h131l-111 -298h-104zM262 440l84 298h131l-111 -298h-104z" />
    <glyph glyph-name="numbersign" unicode="#" horiz-adv-x="717" 
d="M666 457h-105l-32 -165h106l-17 -91h-106l-38 -201h-105l39 201h-159l-39 -201h-106l40 201h-110l17 91h111l32 165h-112l18 92h112l38 190h103l-37 -190h159l37 190h102l-36 -190h106zM426 292l31 165h-159l-31 -165h159z" />
    <glyph glyph-name="dollar" unicode="$" horiz-adv-x="573" 
d="M533 204q0 -83 -53.5 -139.5t-138.5 -71.5v-105h-91v102q-70 8 -128 46t-92 104l83 72q28 -56 74 -85t97 -29q57 0 89.5 29t32.5 71q0 55 -72 94q-12 6 -70.5 34t-86.5 47q-108 70 -108 176q0 79 51.5 134t136.5 66v94h91v-95q101 -18 169 -102l-72 -77q-65 75 -148 75
q-46 0 -76 -24.5t-30 -65.5q0 -51 68 -91q17 -11 80.5 -42t90.5 -47q103 -64 103 -170z" />
    <glyph glyph-name="percent" unicode="%" horiz-adv-x="888" 
d="M222 387q-78 0 -133.5 53.5t-55.5 128.5t55.5 129t133.5 54t133 -54t55 -129t-55 -128.5t-133 -53.5zM114 0l542 739h113l-544 -739h-111zM222 468q42 0 71.5 29t29.5 72t-29.5 72t-71.5 29q-43 0 -72.5 -29t-29.5 -72t29.5 -72t72.5 -29zM666 -12q-79 0 -134 53t-55 128
t55.5 129t133.5 54t133.5 -54t55.5 -129t-55.5 -128t-133.5 -53zM666 69q42 0 72 29t30 71q0 44 -29.5 73t-72.5 29t-72.5 -29t-29.5 -73q0 -42 30 -71t72 -29z" />
    <glyph glyph-name="ampersand" unicode="&#x26;" horiz-adv-x="699" 
d="M696 60l-61 -70l-116 103q-109 -103 -235 -103q-105 0 -175 63t-70 154q0 135 134 215q-43 64 -43 138q0 78 57.5 134t141.5 56q72 0 124 -45t52 -112q0 -31 -12.5 -58.5t-26.5 -44t-46.5 -37.5t-48.5 -29t-57 -28q10 -9 51 -46l147 -128q40 50 73 104l72 -58
q-42 -66 -76 -107zM325 668q-42 0 -70.5 -31t-28.5 -77q0 -52 28 -96q35 16 48 22t38.5 20t35.5 24.5t19.5 26.5t9.5 34q0 33 -22.5 55t-57.5 22zM294 84q79 0 156 72l-165 147q-36 32 -52 49q-85 -57 -85 -138q0 -56 41.5 -93t104.5 -37z" />
    <glyph glyph-name="quotesingle" unicode="'" horiz-adv-x="274" 
d="M41 440l84 298h131l-111 -298h-104z" />
    <glyph glyph-name="parenleft" unicode="(" horiz-adv-x="400" 
d="M344 -220q-147 78 -226 212t-79 302q0 169 79 303t228 212l47 -85q-234 -153 -234 -430q0 -273 234 -430z" />
    <glyph glyph-name="parenright" unicode=")" horiz-adv-x="400" 
d="M55 -220l-48 84q234 158 234 430q0 277 -234 430l46 85q149 -79 228.5 -212.5t79.5 -302.5t-79.5 -302.5t-226.5 -211.5z" />
    <glyph glyph-name="asterisk" unicode="*" horiz-adv-x="468" 
d="M140 381l-64 54l94 108l-133 59l36 76l122 -61l-3 144h85l-3 -144l123 61l34 -76l-132 -59l93 -108l-65 -54l-92 117z" />
    <glyph glyph-name="plus" unicode="+" horiz-adv-x="549" 
d="M515 400v-104h-188v-190h-104v190h-190v104h190v189h104v-189h188z" />
    <glyph glyph-name="comma" unicode="," horiz-adv-x="249" 
d="M123 120q32 0 53.5 -23t21.5 -58q0 -93 -134 -180l-34 47q71 54 86 83h-4q-25 0 -43 18.5t-18 44.5q0 28 21.5 48t50.5 20z" />
    <glyph glyph-name="hyphen" unicode="-" horiz-adv-x="522" 
d="M64 225v104h394v-104h-394z" />
    <glyph glyph-name="period" unicode="." horiz-adv-x="237" 
d="M119 -16q-30 0 -50.5 20t-20.5 50q0 29 20.5 49t50.5 20q29 0 49 -20t20 -49q0 -30 -20 -50t-49 -20z" />
    <glyph glyph-name="slash" unicode="/" horiz-adv-x="627" 
d="M19 -123l475 948h113l-475 -948h-113z" />
    <glyph glyph-name="zero" unicode="0" horiz-adv-x="682" 
d="M341 -12q-76 0 -134 33t-91.5 88.5t-50 121.5t-16.5 139t16.5 139t50 121.5t91.5 88.5t134 33t134.5 -33t91.5 -88.5t49.5 -121.5t16.5 -139t-16.5 -139t-49.5 -121.5t-91.5 -88.5t-134.5 -33zM341 96q89 0 132.5 76.5t43.5 197.5q0 120 -43.5 197t-132.5 77t-132 -77
t-43 -197q0 -78 17 -137.5t57.5 -98t100.5 -38.5z" />
    <glyph glyph-name="one" unicode="1" horiz-adv-x="396" 
d="M217 739h89v-739h-114v584l-128 -104l-62 81z" />
    <glyph glyph-name="two" unicode="2" horiz-adv-x="566" 
d="M212 106h305v-106h-468v96l235 250q38 41 56 62t36 56t18 66q0 51 -36 83t-88 32q-87 0 -175 -83l-63 82q110 108 243 108q102 0 167.5 -62t65.5 -161q0 -101 -114 -224z" />
    <glyph glyph-name="three" unicode="3" horiz-adv-x="557" 
d="M250 -12q-121 0 -232 73l51 93q95 -60 177 -60q65 0 103 32t38 83q0 52 -39 84.5t-101 32.5h-92v104h88q58 0 94 30t36 79t-35.5 77.5t-87.5 28.5q-74 0 -157 -62l-58 81q41 41 101.5 64.5t124.5 23.5q100 0 164.5 -56t64.5 -138q0 -59 -35.5 -104.5t-91.5 -63.5v-4
q68 -16 106 -65t38 -117q0 -95 -71.5 -155.5t-185.5 -60.5z" />
    <glyph glyph-name="four" unicode="4" horiz-adv-x="601" 
d="M561 280v-99h-82v-181h-110v181h-338l-23 72l398 486h73v-459h82zM151 280h218v267z" />
    <glyph glyph-name="five" unicode="5" horiz-adv-x="578" 
d="M291 480q106 0 177 -68t71 -174q0 -109 -74.5 -179.5t-192.5 -70.5q-132 0 -240 87l51 90q93 -71 185 -71q69 0 112 41t43 102q0 60 -42 100t-106 40q-78 0 -132 -55l-72 48l41 369h377v-104h-289l-22 -180q52 25 113 25z" />
    <glyph glyph-name="six" unicode="6" horiz-adv-x="621" 
d="M345 477q101 0 168 -67.5t67 -170.5q0 -107 -72.5 -177.5t-184.5 -70.5q-89 0 -152 49t-92 128t-29 179q0 107 32 196.5t104.5 149t174.5 59.5q113 0 193 -63l-49 -86q-64 48 -137 48q-67 0 -116 -45t-69.5 -105.5t-21.5 -125.5q25 48 73.5 75t110.5 27zM324 92
q61 0 101.5 42t40.5 104q0 61 -40.5 101t-100.5 40q-61 0 -102 -40t-41 -102q0 -61 41 -103t101 -42z" />
    <glyph glyph-name="seven" unicode="7" horiz-adv-x="510" 
d="M21 739h470v-73l-280 -666h-122l273 635h-341v104z" />
    <glyph glyph-name="eight" unicode="8" horiz-adv-x="628" 
d="M315 -12q-119 0 -194 60t-75 152q0 62 39 114.5t104 76.5v2q-52 25 -82 68t-30 96q0 85 66 140t172 55q105 0 170.5 -55t65.5 -140q0 -53 -30 -96.5t-83 -67.5v-3q66 -23 105 -75.5t39 -114.5q0 -92 -74.5 -152t-192.5 -60zM314 436q59 0 93.5 31.5t34.5 78.5
q0 48 -35 79t-93 31t-94 -31t-36 -79q0 -47 35.5 -78.5t94.5 -31.5zM315 89q67 0 110 35.5t43 90.5q0 53 -42 87.5t-112 34.5t-112 -34.5t-42 -87.5q0 -55 43 -90.5t112 -35.5z" />
    <glyph glyph-name="nine" unicode="9" horiz-adv-x="617" 
d="M298 752q131 0 200 -98.5t69 -260.5q0 -82 -18 -153t-53.5 -128.5t-95 -90.5t-137.5 -33q-119 0 -196 63l43 88q69 -50 148 -50q97 0 147 77t54 194q-27 -43 -76 -69t-109 -26q-101 0 -167 67.5t-66 170.5q0 108 72 178.5t185 70.5zM294 363q61 0 101.5 40.5t40.5 101.5
q0 62 -40.5 104.5t-99.5 42.5q-61 0 -102 -42t-41 -105q0 -61 40 -101.5t101 -40.5z" />
    <glyph glyph-name="colon" unicode=":" horiz-adv-x="266" 
d="M134 350q-30 0 -50.5 20t-20.5 51q0 29 20.5 48.5t50.5 19.5q29 0 49 -20t20 -48q0 -30 -20 -50.5t-49 -20.5zM134 -16q-30 0 -50.5 20t-20.5 50q0 29 20.5 49t50.5 20q29 0 49 -20t20 -49q0 -30 -20 -50t-49 -20z" />
    <glyph glyph-name="semicolon" unicode=";" horiz-adv-x="291" 
d="M150 349q-30 0 -51 20.5t-21 50.5q0 29 21 49t51 20q29 0 49 -20t20 -49q0 -30 -20 -50.5t-49 -20.5zM146 120q32 0 53.5 -23t21.5 -58q0 -93 -134 -180l-34 47q71 54 86 83h-4q-25 0 -43 18.5t-18 44.5q0 28 21.5 48t50.5 20z" />
    <glyph glyph-name="less" unicode="&#x3c;" horiz-adv-x="567" 
d="M497 55l-464 225v98l464 226v-113l-346 -161l346 -161v-114z" />
    <glyph glyph-name="equal" unicode="=" horiz-adv-x="598" 
d="M68 370v96h462v-96h-462zM68 189v96h462v-96h-462z" />
    <glyph glyph-name="greater" unicode="&#x3e;" horiz-adv-x="545" 
d="M61 44v114l320 161l-320 160v114l454 -237v-76z" />
    <glyph glyph-name="question" unicode="?" horiz-adv-x="524" 
d="M173 176v71q0 40 20 75t48.5 60t57.5 49.5t49 55t20 64.5q0 49 -35 80t-88 31q-76 0 -151 -82l-68 77q41 50 101.5 79.5t125.5 29.5q96 0 162.5 -59.5t66.5 -150.5q0 -46 -21 -85.5t-51 -66.5t-60 -51.5t-51 -52t-21 -56.5v-68h-105zM228 -12q-30 0 -51 20t-21 50
q0 29 21 48.5t51 19.5q28 0 48 -19.5t20 -48.5q0 -30 -20 -50t-48 -20z" />
    <glyph glyph-name="at" unicode="@" horiz-adv-x="971" 
d="M607 489h87v-270q0 -33 15 -51.5t37 -18.5q42 0 73 51t31 128q0 137 -103 233.5t-250 95.5q-151 -1 -256 -109t-105 -262t110 -263t270 -109q155 0 274 96l44 -69q-54 -46 -141.5 -78.5t-183.5 -32.5t-182.5 36.5t-148 98t-97.5 145.5t-36 175q0 188 131.5 321.5
t318.5 133.5q184 0 313.5 -122t129.5 -289q0 -112 -60 -186.5t-146 -74.5q-45 0 -74.5 22.5t-40.5 55.5q-55 -78 -156 -78q-86 0 -145 62t-59 155q0 92 59.5 155.5t147.5 63.5q92 0 143 -63v48zM476 149q55 0 93 39t38 96q0 59 -37 99t-92 40t-92.5 -39t-37.5 -98
q0 -58 36.5 -97.5t91.5 -39.5z" />
    <glyph glyph-name="A" unicode="A" horiz-adv-x="681" 
d="M546 0l-70 182h-272l-70 -182h-124l294 739h75l291 -739h-124zM341 556l-100 -268h200z" />
    <glyph glyph-name="B" unicode="B" horiz-adv-x="678" 
d="M496 404q68 -18 104 -71t36 -120q0 -87 -62 -150t-169 -63h-315v739h301q97 0 151.5 -55t54.5 -129q0 -50 -27.5 -92t-73.5 -59zM374 634h-170v-191h166q52 0 81 29.5t29 69.5q0 38 -28.5 65t-77.5 27zM385 105q61 0 96 35t35 82q0 49 -34.5 84t-99.5 35h-178v-236h181z
" />
    <glyph glyph-name="C" unicode="C" horiz-adv-x="773" 
d="M424 -11q-160 0 -270 106t-110 272q0 168 112 276.5t271 108.5q100 0 185 -43.5t133 -115.5l-82 -74q-91 121 -233 121q-112 0 -189.5 -78t-77.5 -195t76 -192t190 -75q146 0 238 120l82 -72q-52 -71 -137.5 -115t-187.5 -44z" />
    <glyph glyph-name="D" unicode="D" horiz-adv-x="762" 
d="M90 0v739h279q160 0 252.5 -100t92.5 -271q0 -170 -94.5 -269t-259.5 -99h-270zM205 110h160q108 0 168.5 73.5t60.5 187.5q0 112 -60.5 185t-167.5 73h-161v-519z" />
    <glyph glyph-name="E" unicode="E" 
d="M90 0v739h472v-109h-357v-201h331v-109h-331v-211h358v-109h-473z" />
    <glyph glyph-name="F" unicode="F" horiz-adv-x="582" 
d="M90 0v739h465v-111h-350v-202h305v-110h-305v-316h-115z" />
    <glyph glyph-name="G" unicode="G" horiz-adv-x="811" 
d="M425 -11q-165 0 -273 107.5t-108 272.5q0 166 112 274.5t274 108.5q92 0 173.5 -36t131.5 -95l-79 -78q-89 97 -225 97q-115 0 -192 -77t-77 -194q0 -116 76 -192.5t190 -76.5q64 0 123.5 26t101.5 70v132h-233v104h340v-290q-138 -153 -335 -153z" />
    <glyph glyph-name="H" unicode="H" horiz-adv-x="762" 
d="M90 0v739h115v-307h352v307h115v-739h-115v321h-352v-321h-115z" />
    <glyph glyph-name="I" unicode="I" horiz-adv-x="295" 
d="M90 739h115v-739h-115v739z" />
    <glyph glyph-name="J" unicode="J" horiz-adv-x="567" 
d="M228 -12q-133 0 -218 94l65 86q60 -70 149 -70q65 0 104.5 42t39.5 117v482h116v-487q0 -128 -71.5 -196t-184.5 -68z" />
    <glyph glyph-name="K" unicode="K" horiz-adv-x="675" 
d="M545 0l-242 314l-98 -117v-197h-115v739h115v-385l320 385h138l-285 -344l309 -395h-142z" />
    <glyph glyph-name="L" unicode="L" horiz-adv-x="609" 
d="M90 0v739h115v-628h390v-111h-505z" />
    <glyph glyph-name="M" unicode="M" horiz-adv-x="925" 
d="M90 0v739h63l310 -453l308 453h65v-739h-116v473l-241 -352h-34l-241 352v-473h-114z" />
    <glyph glyph-name="N" unicode="N" horiz-adv-x="785" 
d="M581 739h114v-739h-68l-423 501v-501h-114v739h60l431 -505v505z" />
    <glyph glyph-name="O" unicode="O" horiz-adv-x="853" 
d="M423 -12q-161 0 -270.5 109.5t-109.5 268.5q0 161 112 273.5t271 112.5q160 0 272 -112t112 -271t-112 -270t-275 -111zM426 101q111 0 187.5 76.5t76.5 190.5q0 116 -76.5 193t-187.5 77q-110 0 -186.5 -77.5t-76.5 -192.5q0 -113 75.5 -190t187.5 -77z" />
    <glyph glyph-name="P" unicode="P" 
d="M345 739q121 0 183.5 -68.5t62.5 -165.5t-65 -164t-191 -67h-130v-274h-115v739h255zM338 380q67 0 101.5 37.5t34.5 89.5t-32.5 88t-91.5 36h-145v-251h133z" />
    <glyph glyph-name="Q" unicode="Q" horiz-adv-x="853" 
d="M799 -19l15 -96q-49 -21 -115 -21q-149 0 -257 124h-15q-159 1 -271.5 112.5t-112.5 269.5t112.5 270t271.5 112t271 -112t112 -270q0 -119 -66 -216t-173 -139q59 -51 136 -51q44 0 92 17zM163 368q0 -115 76.5 -191.5t187.5 -76.5t187.5 76.5t76.5 191.5
q0 116 -76.5 193.5t-187.5 77.5t-187.5 -77.5t-76.5 -193.5z" />
    <glyph glyph-name="R" unicode="R" horiz-adv-x="652" 
d="M483 0l-180 290h-98v-290h-115v739h261q115 0 177 -66t62 -159q0 -73 -42.5 -132t-122.5 -81l197 -301h-139zM205 630v-233h128q70 0 104 34t34 84q0 49 -31.5 82t-88.5 33h-146z" />
    <glyph glyph-name="S" unicode="S" horiz-adv-x="578" 
d="M285 -12q-81 0 -151 38t-110 109l78 75q31 -56 79.5 -84.5t103.5 -28.5q57 0 91.5 29.5t34.5 71.5q0 56 -73 95q-18 9 -74.5 33.5t-85.5 41.5q-112 68 -112 179q0 87 64 146t168 59q139 0 225 -106l-71 -79q-61 76 -153 76q-48 0 -79 -24.5t-31 -65.5q0 -53 62 -88
q19 -11 83 -40.5t91 -44.5q113 -62 113 -176q0 -95 -71 -155.5t-182 -60.5z" />
    <glyph glyph-name="T" unicode="T" horiz-adv-x="577" 
d="M230 627h-216v112h549v-112h-216v-627h-117v627z" />
    <glyph glyph-name="U" unicode="U" horiz-adv-x="712" 
d="M356 -13q-121 0 -197.5 71t-76.5 198v483h115v-468q0 -84 42 -127.5t117 -43.5q74 0 116 45t42 126v468h116v-483q0 -128 -76 -198.5t-198 -70.5z" />
    <glyph glyph-name="V" unicode="V" horiz-adv-x="718" 
d="M581 739h128l-311 -739h-77l-314 739h132l222 -549z" />
    <glyph glyph-name="W" unicode="W" horiz-adv-x="1041" 
d="M260 0l-251 739h124l169 -527l187 527h61l191 -527l166 527h124l-250 -739h-77l-183 530l-182 -530h-79z" />
    <glyph glyph-name="X" unicode="X" horiz-adv-x="641" 
d="M7 0l243 374l-230 365h134l167 -277l170 277h138l-239 -365l240 -374h-134l-175 282l-176 -282h-138z" />
    <glyph glyph-name="Y" unicode="Y" horiz-adv-x="652" 
d="M637 739l-254 -476v-263h-115v263l-251 476h130l179 -358l181 358h130z" />
    <glyph glyph-name="Z" unicode="Z" horiz-adv-x="628" 
d="M32 0v76l391 555h-374v108h533v-78l-384 -553h395v-108h-561z" />
    <glyph glyph-name="bracketleft" unicode="[" horiz-adv-x="382" 
d="M84 -227v1038h280v-94h-167v-850h167v-94h-280z" />
    <glyph glyph-name="backslash" unicode="\" horiz-adv-x="623" 
d="M604 -123h-112l-472 948h113z" />
    <glyph glyph-name="bracketright" unicode="]" horiz-adv-x="382" 
d="M18 -227v94h167v850h-167v94h280v-1038h-280z" />
    <glyph glyph-name="asciicircum" unicode="^" horiz-adv-x="527" 
d="M38 431l192 318h68l191 -318h-109l-116 204l-116 -204h-110z" />
    <glyph glyph-name="underscore" unicode="_" horiz-adv-x="585" 
d="M0 -177v101h585v-101h-585z" />
    <glyph glyph-name="grave" unicode="`" horiz-adv-x="411" 
d="M230 620h-97l-93 170h130z" />
    <glyph glyph-name="a" unicode="a" horiz-adv-x="669" 
d="M492 539h106v-539h-106v74q-74 -87 -184 -87q-116 0 -192.5 82t-76.5 204q0 121 76.5 200t192.5 79q110 0 184 -88v75zM323 88q76 0 125 53t49 129q0 75 -49 128t-125 53q-77 0 -125 -52.5t-48 -129.5q0 -76 48 -128.5t125 -52.5z" />
    <glyph glyph-name="b" unicode="b" horiz-adv-x="671" 
d="M363 552q115 0 192 -82t77 -201t-77 -200.5t-193 -81.5q-111 0 -182 90v-77h-109v758h110v-297q72 91 182 91zM348 90q76 0 123.5 52t47.5 128t-47.5 128t-123.5 52q-77 0 -124.5 -52.5t-47.5 -127.5q0 -76 47.5 -128t124.5 -52z" />
    <glyph glyph-name="c" unicode="c" horiz-adv-x="600" 
d="M324 -12q-125 0 -205 79t-80 202q0 124 81 203.5t208 79.5q81 0 148.5 -38.5t99.5 -105.5l-91 -51q-25 43 -66.5 68.5t-89.5 25.5q-77 0 -128 -52t-51 -130q0 -76 50 -128t125 -52q48 0 92 26t65 66l91 -53q-33 -63 -100.5 -101.5t-148.5 -38.5z" />
    <glyph glyph-name="d" unicode="d" horiz-adv-x="670" 
d="M488 758h111v-758h-109v75q-71 -88 -181 -88q-116 0 -193 81.5t-77 201.5q0 119 77 200.5t192 81.5q107 0 180 -88v294zM323 88q77 0 125 52.5t48 129.5q0 76 -48 128.5t-125 52.5t-125 -52.5t-48 -128.5q0 -77 48 -129.5t125 -52.5z" />
    <glyph glyph-name="e" unicode="e" horiz-adv-x="616" 
d="M579 280q0 -23 -4 -53h-421q12 -63 56.5 -102t122.5 -39q46 0 96.5 16t86.5 42l46 -81q-41 -31 -103 -53t-130 -22q-73 0 -130 24t-91 64.5t-51 90t-17 104.5q0 122 76.5 201.5t198.5 79.5q116 0 190 -73t74 -199zM315 457q-62 0 -105.5 -38.5t-55.5 -101.5h314
q-7 64 -49.5 102t-103.5 38z" />
    <glyph glyph-name="f" unicode="f" horiz-adv-x="407" 
d="M338 674q-54 0 -82.5 -27.5t-28.5 -78.5v-29h170v-94h-170v-445h-110v445h-90v94h90v31q0 98 57 151.5t150 53.5q68 0 131 -33l-35 -89q-50 21 -82 21z" />
    <glyph glyph-name="g" unicode="g" horiz-adv-x="670" 
d="M493 539h106v-484q0 -131 -80 -207.5t-212 -76.5q-135 0 -241 77l48 85q90 -64 191 -64q86 0 135.5 48t49.5 123v39q-70 -80 -181 -80q-117 0 -193.5 79t-76.5 198t79.5 197.5t195.5 78.5q107 0 179 -82v69zM323 97q75 0 124 51t49 127q0 77 -49 127t-124 50
q-74 0 -123 -50.5t-49 -126.5q0 -77 49 -127.5t123 -50.5z" />
    <glyph glyph-name="h" unicode="h" horiz-adv-x="625" 
d="M71 0v758h107v-287q24 37 69 59.5t102 22.5q89 0 150 -58t61 -167v-328h-110v297q0 74 -35.5 114t-93.5 40q-62 0 -101 -43t-39 -112v-296h-110z" />
    <glyph glyph-name="i" unicode="i" horiz-adv-x="253" 
d="M128 610q-32 0 -53.5 21.5t-21.5 53.5q0 31 21.5 52t53.5 21t53 -21t21 -52q0 -32 -21 -53.5t-53 -21.5zM182 0h-110v539h110v-539z" />
    <glyph glyph-name="j" unicode="j" horiz-adv-x="277" 
d="M151 610q-32 0 -54 21.5t-22 53.5q0 31 22 52t54 21q31 0 52 -21t21 -52q0 -32 -21 -53.5t-52 -21.5zM18 -230q-68 0 -105 24l22 90q40 -14 68 -14q92 0 92 109v560h110v-558q0 -104 -50.5 -157.5t-136.5 -53.5z" />
    <glyph glyph-name="k" unicode="k" horiz-adv-x="557" 
d="M422 0l-194 245l-47 -43v-202h-110v758h110v-427l227 208h145l-248 -224l259 -315h-142z" />
    <glyph glyph-name="l" unicode="l" horiz-adv-x="252" 
d="M181 0h-110v758h110v-758z" />
    <glyph glyph-name="m" unicode="m" horiz-adv-x="983" 
d="M703 554q97 0 156.5 -62.5t59.5 -169.5v-322h-110v304q0 71 -33.5 109t-89.5 38q-60 0 -97.5 -41t-37.5 -109v-301h-110v302q0 70 -33.5 109.5t-90.5 39.5q-60 0 -98 -41.5t-38 -110.5v-299h-110v539h108v-78q24 43 67 68t96 25q53 -1 98.5 -26.5t67.5 -72.5
q28 45 80.5 72t114.5 27z" />
    <glyph glyph-name="n" unicode="n" horiz-adv-x="626" 
d="M71 0v539h108v-76q24 42 68.5 66t102.5 24q89 0 150.5 -58t61.5 -167v-328h-111v297q0 74 -35.5 114t-93.5 40q-62 0 -101.5 -43.5t-39.5 -112.5v-295h-110z" />
    <glyph glyph-name="o" unicode="o" horiz-adv-x="648" 
d="M324 -14q-124 0 -204.5 82t-80.5 202q0 118 80.5 200.5t204.5 82.5t204.5 -82.5t80.5 -200.5q0 -120 -80.5 -202t-204.5 -82zM324 89q73 0 123.5 53t50.5 128q0 74 -50.5 127.5t-123.5 53.5t-123.5 -53.5t-50.5 -127.5q0 -75 50.5 -128t123.5 -53z" />
    <glyph glyph-name="p" unicode="p" horiz-adv-x="673" 
d="M366 552q115 0 191.5 -82t76.5 -201q0 -118 -76.5 -200t-192.5 -82q-113 0 -184 88v-297h-110v761h110v-78q74 91 185 91zM350 88q77 0 125 52.5t48 129.5q0 76 -48 128.5t-125 52.5t-124.5 -52.5t-47.5 -128.5q0 -77 47.5 -129.5t124.5 -52.5z" />
    <glyph glyph-name="q" unicode="q" horiz-adv-x="673" 
d="M492 539h110v-761h-110v297q-73 -88 -185 -88q-115 0 -191.5 82t-76.5 201q0 118 76.5 200t192.5 82q109 0 184 -90v77zM324 88q76 0 124 52.5t48 129.5q0 76 -48 128.5t-124 52.5q-77 0 -125 -52.5t-48 -128.5q0 -77 48 -129.5t125 -52.5z" />
    <glyph glyph-name="r" unicode="r" horiz-adv-x="399" 
d="M71 0v539h105v-77q48 91 153 91q34 0 64 -9l-10 -107q-29 10 -59 10q-63 0 -103 -43t-40 -128v-276h-110z" />
    <glyph glyph-name="s" unicode="s" horiz-adv-x="468" 
d="M231 -13q-62 0 -117.5 28.5t-89.5 84.5l71 64q25 -40 62.5 -61t75.5 -21q39 0 64 19.5t25 47.5q0 39 -46 62q-14 7 -64.5 27.5t-68.5 30.5q-86 45 -86 133q0 67 50.5 111t133.5 44q116 0 177 -83l-64 -68q-48 59 -118 59q-34 0 -53 -17t-19 -42q0 -39 45 -59q4 -2 55 -23
t76 -34q92 -48 92 -136q0 -71 -56 -119t-145 -48z" />
    <glyph glyph-name="t" unicode="t" horiz-adv-x="438" 
d="M397 118l38 -86q-60 -45 -149 -45q-88 0 -132.5 53t-44.5 153v252h-93v94h94v191h109v-191h186v-94h-186v-254q0 -103 83 -103q44 0 95 30z" />
    <glyph glyph-name="u" unicode="u" horiz-adv-x="601" 
d="M300 -13q-108 0 -172 63t-64 171v318h110v-317q0 -61 33.5 -97t92.5 -36q60 0 93 35.5t33 97.5v317h111v-318q0 -110 -63 -172t-174 -62z" />
    <glyph glyph-name="v" unicode="v" horiz-adv-x="574" 
d="M442 539h121l-236 -538h-80l-236 538h122l155 -385z" />
    <glyph glyph-name="w" unicode="w" horiz-adv-x="852" 
d="M194 1l-184 538h116l121 -387l139 387h78l143 -387l117 387h116l-181 -538h-94l-140 382l-137 -382h-94z" />
    <glyph glyph-name="x" unicode="x" horiz-adv-x="522" 
d="M510 0h-128l-121 194l-124 -194h-131l186 278l-167 261h128l110 -182l114 182h128l-176 -267z" />
    <glyph glyph-name="y" unicode="y" horiz-adv-x="569" 
d="M435 539h121l-223 -588q-36 -95 -84 -137.5t-117 -42.5q-57 0 -92 23l16 95q38 -17 67 -17q66 0 106 92l17 40l-234 535h127l158 -389z" />
    <glyph glyph-name="z" unicode="z" horiz-adv-x="518" 
d="M181 94h303v-94h-453v73l295 371h-279v94h428v-69z" />
    <glyph glyph-name="braceleft" unicode="{" horiz-adv-x="383" 
d="M140 288q43 -14 74 -48.5t31 -84.5q0 -29 -4 -99.5t-4 -100.5q0 -89 90 -89h31v-97h-51q-179 0 -179 180q0 37 4 106t4 93q0 27 -9 46t-27.5 30t-35.5 16t-43 10v80q26 5 42.5 10t35.5 16t28 30t9 46q0 24 -4 94t-4 108q0 177 182 177h48v-97h-31q-90 0 -90 -89
q0 -30 4 -101t4 -99q0 -50 -31.5 -85t-73.5 -48v-4z" />
    <glyph glyph-name="bar" unicode="|" horiz-adv-x="271" 
d="M84 -179v1026h103v-1026h-103z" />
    <glyph glyph-name="braceright" unicode="}" horiz-adv-x="383" 
d="M243 288v4q-43 13 -74.5 48t-31.5 85q0 28 4.5 99t4.5 101q0 89 -90 89h-31v97h49q181 0 181 -177q0 -38 -4 -108t-4 -94q0 -36 18.5 -58t39.5 -29.5t57 -14.5v-80q-26 -5 -43 -10t-35.5 -16t-27.5 -30t-9 -46q0 -24 4 -93t4 -106q0 -180 -179 -180h-51v97h31q90 0 90 89
q0 30 -4.5 100.5t-4.5 99.5q0 50 31.5 84.5t74.5 48.5z" />
    <glyph glyph-name="asciitilde" unicode="~" horiz-adv-x="678" 
d="M444 244q-51 0 -119 33.5t-96 33.5q-29 0 -50.5 -13.5t-49.5 -47.5l-70 53q60 105 176 105q51 0 119 -33t96 -33q30 0 51.5 13.5t48.5 48.5l72 -54q-64 -106 -178 -106z" />
    <glyph glyph-name="exclamdown" unicode="&#xa1;" horiz-adv-x="266" 
d="M146 526q29 0 49 -20t20 -50q0 -29 -20 -48.5t-49 -19.5q-30 0 -50.5 19.5t-20.5 48.5q0 30 20.5 50t50.5 20zM91 326h107l7 -557h-120z" />
    <glyph glyph-name="cent" unicode="&#xa2;" horiz-adv-x="613" 
d="M365 93q38 8 71 32t50 56l91 -53q-30 -56 -86.5 -93t-125.5 -45v-79h-72v79q-112 11 -181 88.5t-69 190.5q0 114 69 191t181 90v81h72v-81q71 -8 128.5 -45t85.5 -97l-90 -51q-45 76 -124 91v-355zM153 269q0 -66 39 -115t101 -62v355q-62 -14 -101 -63t-39 -115z" />
    <glyph glyph-name="sterling" unicode="&#xa3;" horiz-adv-x="576" 
d="M185 106h349v-106h-480v91q42 33 68.5 86t26.5 103q0 23 -6 47h-90v92h59q-25 73 -25 117q1 92 67.5 153.5t163.5 62.5q68 1 125 -31t90 -86l-80 -64q-21 34 -54.5 54t-71.5 20q-54 0 -88.5 -35t-34.5 -88q0 -38 23 -103h237v-92h-208q6 -29 5 -58q-2 -97 -76 -163z" />
    <glyph glyph-name="currency" unicode="&#xa4;" horiz-adv-x="639" 
d="M547 367q0 -69 -38 -124l73 -72l-58 -57l-71 70q-61 -43 -136 -43q-74 0 -132 42l-71 -69l-56 57l70 69q-39 58 -39 127q0 76 44 136l-75 74l56 57l77 -76q57 38 126 38q71 0 129 -39l78 77l58 -57l-78 -77q43 -59 43 -133zM317 227q58 0 98 41.5t40 100.5
q0 60 -40 100.5t-98 40.5q-57 0 -96.5 -40.5t-39.5 -100.5q0 -59 39.5 -100.5t96.5 -41.5z" />
    <glyph glyph-name="yen" unicode="&#xa5;" horiz-adv-x="657" 
d="M628 739l-190 -359h120v-85h-165l-7 -13v-40h172v-86h-172v-156h-115v156h-175v86h175v40l-7 13h-168v85h123l-189 359h126l173 -343l174 343h125z" />
    <glyph glyph-name="brokenbar" unicode="&#xa6;" horiz-adv-x="271" 
d="M84 434v413h103v-413h-103zM187 234v-413h-103v413h103z" />
    <glyph glyph-name="section" unicode="&#xa7;" horiz-adv-x="580" 
d="M543 213q0 -86 -74 -133q29 -45 29 -100q0 -86 -62 -142.5t-163 -56.5q-145 0 -230 112l75 74q66 -81 154 -81q49 0 78.5 27t29.5 66q0 23 -11 42.5t-37 38t-45 29t-58 30.5q-42 21 -67.5 36t-56 39.5t-45.5 55t-15 66.5q0 87 73 133q-30 44 -30 101q0 89 62.5 145
t161.5 56q131 0 210 -102l-78 -70q-56 67 -127 67q-51 0 -81.5 -27t-30.5 -66q0 -23 11 -42.5t35.5 -37.5t44.5 -29t57 -30q11 -5 16 -8q40 -20 64.5 -35t53 -39t42.5 -53.5t14 -65.5zM279 214q85 -42 117 -65q30 19 30 53q0 33 -27.5 56.5t-83.5 51.5q-95 49 -127 71
q-30 -21 -30 -54q0 -23 19 -45t39 -34t63 -34z" />
    <glyph glyph-name="dieresis" unicode="&#xa8;" horiz-adv-x="500" 
d="M122 628q-32 0 -53 21t-21 53q0 31 21 51.5t53 20.5q31 0 52 -20.5t21 -51.5q0 -32 -21 -53t-52 -21zM327 628q-32 0 -53 21t-21 53q0 31 21 51.5t53 20.5q30 0 51 -20.5t21 -51.5q0 -32 -21 -53t-51 -21z" />
    <glyph glyph-name="copyright" unicode="&#xa9;" horiz-adv-x="857" 
d="M428 -12q-159 0 -272 112t-113 269q0 158 113 270.5t272 112.5t272 -112.5t113 -270.5q0 -157 -113 -269t-272 -112zM428 60q129 0 220 91t91 218q0 128 -91 219t-220 91q-128 0 -219.5 -91t-91.5 -219q0 -127 91.5 -218t219.5 -91zM432 164q-88 0 -147 59t-59 146
q0 88 58.5 147t146.5 59q105 0 162 -80l-56 -42q-43 51 -105 51q-56 0 -92.5 -38t-36.5 -97t36.5 -96.5t92.5 -37.5q67 0 107 48l53 -46q-26 -34 -68.5 -53.5t-91.5 -19.5z" />
    <glyph glyph-name="ordfeminine" unicode="&#xaa;" horiz-adv-x="411" 
d="M195 736q68 0 111 -40.5t43 -116.5v-188h-67v36q-39 -45 -112 -45q-58 0 -92 32t-34 80t38 75t103 27q36 0 96 -7q-6 80 -92 80q-56 0 -100 -27l-25 56q53 38 131 38zM180 448q44 0 69.5 23.5t30.5 63.5q-42 7 -89 7q-36 0 -55.5 -12.5t-19.5 -33.5q0 -22 17.5 -35
t46.5 -13z" />
    <glyph glyph-name="guillemotleft" unicode="&#xab;" horiz-adv-x="539" 
d="M178 88l-140 203l140 203h112l-142 -203l142 -203h-112zM375 88l-138 203l138 203h113l-141 -203l141 -203h-113z" />
    <glyph glyph-name="logicalnot" unicode="&#xac;" horiz-adv-x="606" 
d="M68 266v103h466v-221h-99v118h-367z" />
    <glyph glyph-name="uni00AD" unicode="&#xad;" horiz-adv-x="508" 
d="M63 277v102h382v-102h-382z" />
    <glyph glyph-name="registered" unicode="&#xae;" horiz-adv-x="576" 
d="M288 768q101 0 173.5 -72t72.5 -173t-72.5 -173t-173.5 -72t-173 72t-72 173t72 173t173 72zM288 331q79 0 135 56.5t56 135.5t-56 135.5t-135 56.5t-135 -56.5t-56 -135.5t56 -135.5t135 -56.5zM386 566q0 -52 -46 -72l52 -89h-57l-45 81h-38v-81h-51v241h101
q36 0 60 -22.5t24 -57.5zM252 604v-77h38q45 0 45 40q0 37 -45 37h-38z" />
    <glyph glyph-name="macron" unicode="&#xaf;" horiz-adv-x="466" 
d="M40 643v98h314v-98h-314z" />
    <glyph glyph-name="degree" unicode="&#xb0;" horiz-adv-x="364" 
d="M183 538q-61 0 -104 41t-43 100q0 60 43 101.5t104 41.5q60 0 102.5 -41.5t42.5 -101.5q0 -59 -42.5 -100t-102.5 -41zM183 605q30 0 52 21.5t22 52.5q0 32 -22 54t-52 22q-31 0 -53 -22t-22 -54q0 -31 22 -52.5t53 -21.5z" />
    <glyph glyph-name="plusminus" unicode="&#xb1;" horiz-adv-x="605" 
d="M355 487h188v-104h-188v-187h-103v187h-190v104h190v189h103v-189zM62 72v100h481v-100h-481z" />
    <glyph glyph-name="uni00B2" unicode="&#xb2;" horiz-adv-x="345" 
d="M151 578h153v-71h-265v63l130 132q52 54 52 87q0 22 -16 36.5t-41 14.5q-44 0 -94 -47l-40 58q61 61 139 61q58 0 95 -34t37 -88q0 -57 -55 -113z" />
    <glyph glyph-name="uni00B3" unicode="&#xb3;" horiz-adv-x="332" 
d="M147 501q-68 0 -132 39l32 61q56 -30 97 -30q33 0 51.5 15t18.5 38t-19.5 38t-50.5 15h-52v67h48q26 0 46 13t20 36t-17.5 35.5t-42.5 12.5q-39 0 -83 -31l-38 55q52 47 130 47q56 0 93.5 -30.5t37.5 -74.5q0 -32 -20 -56t-52 -34v-2q38 -8 59.5 -34.5t21.5 -62.5
q0 -52 -41.5 -84.5t-106.5 -32.5z" />
    <glyph glyph-name="acute" unicode="&#xb4;" horiz-adv-x="435" 
d="M40 620l60 170h130l-93 -170h-97z" />
    <glyph glyph-name="paragraph" unicode="&#xb6;" horiz-adv-x="693" 
d="M642 734v-105h-71v-832h-109v832h-74v-832h-109v500h-29q-94 0 -157.5 62t-63.5 157q0 94 64 156t162 62h387z" />
    <glyph glyph-name="periodcentered" unicode="&#xb7;" horiz-adv-x="259" 
d="M130 -16q-30 0 -50.5 20t-20.5 50q0 29 20.5 49t50.5 20q29 0 49 -20t20 -49q0 -30 -20 -50t-49 -20z" />
    <glyph glyph-name="cedilla" unicode="&#xb8;" horiz-adv-x="324" 
d="M186 -48q44 0 75 -25t31 -70q0 -46 -35 -79.5t-100 -33.5q-54 0 -117 29l27 69q44 -21 81 -21q27 0 41.5 12t14.5 30q0 36 -53 36h-56l-8 23l39 98l84 -2l-27 -66h3z" />
    <glyph glyph-name="uni00B9" unicode="&#xb9;" horiz-adv-x="269" 
d="M151 900h60v-393h-80v283l-74 -58l-42 61z" />
    <glyph glyph-name="ordmasculine" unicode="&#xba;" horiz-adv-x="436" 
d="M218 381q-76 0 -127 50.5t-51 125.5q0 76 51 127t127 51t127.5 -51t51.5 -127q0 -75 -51.5 -125.5t-127.5 -50.5zM217 449q47 0 78 31t31 78t-31.5 78.5t-77.5 31.5t-76.5 -31.5t-30.5 -78.5t31 -78t76 -31z" />
    <glyph glyph-name="guillemotright" unicode="&#xbb;" horiz-adv-x="539" 
d="M164 88h-113l141 203l-141 203h113l138 -203zM361 88h-112l142 203l-142 203h112l140 -203z" />
    <glyph glyph-name="onequarter" unicode="&#xbc;" horiz-adv-x="866" 
d="M149 346v284l-74 -58l-42 61l136 107h59v-394h-79zM684 739h93l-576 -739h-95zM824 158v-63h-43v-95h-70v95h-183l-17 46l213 255h57v-238h43zM602 158h109v130z" />
    <glyph glyph-name="onehalf" unicode="&#xbd;" horiz-adv-x="847" 
d="M150 346v284l-74 -58l-42 61l136 107h59v-394h-79zM661 739h93l-576 -739h-95zM652 71h154v-71h-266v63l130 132q53 55 53 87q0 22 -16.5 36.5t-40.5 14.5q-45 0 -95 -47l-40 58q61 61 139 61q58 0 95 -34t37 -88q0 -56 -54 -113z" />
    <glyph glyph-name="threequarters" unicode="&#xbe;" horiz-adv-x="843" 
d="M151 411q33 0 51 15t18 38t-19.5 38t-50.5 15h-52v67h48q27 0 46.5 13t19.5 36t-17.5 35.5t-42.5 12.5q-38 0 -83 -31l-38 55q52 47 130 47q57 0 94 -30t37 -75q0 -32 -20 -56t-51 -34v-2q38 -8 59.5 -34.5t21.5 -62.5q0 -52 -41.5 -84.5t-107.5 -32.5t-132 39l33 61
q54 -30 97 -30zM705 739h93l-576 -739h-95zM743 396v-238h43v-63h-43v-95h-70v95h-183l-16 46l213 255h56zM565 158h108v129z" />
    <glyph glyph-name="questiondown" unicode="&#xbf;" horiz-adv-x="516" 
d="M290 527q30 0 51 -20t21 -50q0 -29 -21 -48.5t-51 -19.5q-28 0 -48 19.5t-20 48.5q0 30 20 50t48 20zM345 339v-71q0 -40 -20 -75t-48.5 -60t-57.5 -49.5t-49 -55t-20 -64.5q0 -49 35 -80t88 -31q78 0 151 82l68 -77q-41 -50 -101.5 -79.5t-125.5 -29.5
q-96 0 -162.5 59.5t-66.5 150.5q0 46 21 85.5t51 66.5t60 51.5t51 52t21 56.5v68h105z" />
    <glyph glyph-name="Agrave" unicode="&#xc0;" horiz-adv-x="681" 
d="M393 794h-100l-95 174h134zM546 0l-70 182h-272l-70 -182h-124l294 739h75l291 -739h-124zM341 556l-100 -268h200z" />
    <glyph glyph-name="Aacute" unicode="&#xc1;" horiz-adv-x="681" 
d="M494 966l-95 -173h-99l61 173h133zM546 0l-70 182h-272l-70 -182h-124l294 739h75l291 -739h-124zM341 556l-100 -268h200z" />
    <glyph glyph-name="Acircumflex" unicode="&#xc2;" horiz-adv-x="681" 
d="M340 883l-71 -90h-114l145 170h82l145 -170h-116zM546 0l-70 182h-272l-70 -182h-124l294 739h75l291 -739h-124zM341 556l-100 -268h200z" />
    <glyph glyph-name="Atilde" unicode="&#xc3;" horiz-adv-x="681" 
d="M271 845q-38 0 -62 -48l-71 34q34 103 128 103q32 0 76 -22t62 -22q36 0 59 46l71 -33q-16 -49 -49 -76t-75 -27q-32 0 -76 22.5t-63 22.5zM546 0l-70 182h-272l-70 -182h-124l294 739h75l291 -739h-124zM341 556l-100 -268h200z" />
    <glyph glyph-name="Adieresis" unicode="&#xc4;" horiz-adv-x="681" 
d="M245 803q-30 0 -49.5 19.5t-19.5 49.5q0 28 20 47.5t49 19.5q28 0 47.5 -19.5t19.5 -47.5q0 -30 -19.5 -49.5t-47.5 -19.5zM435 803q-29 0 -49 19.5t-20 49.5q0 28 20 47.5t49 19.5q28 0 47.5 -19.5t19.5 -47.5q0 -30 -19.5 -49.5t-47.5 -19.5zM546 0l-70 182h-272
l-70 -182h-124l294 739h75l291 -739h-124zM341 556l-100 -268h200z" />
    <glyph glyph-name="Aring" unicode="&#xc5;" horiz-adv-x="681" 
d="M344 780q-52 0 -88 34.5t-36 83.5q0 50 36 85.5t88 35.5t88 -35.5t36 -85.5q0 -49 -36 -83.5t-88 -34.5zM344 953q-23 0 -39 -15t-16 -37q0 -24 16 -39.5t39 -15.5q22 0 38 15.5t16 39.5q0 22 -16 37t-38 15zM546 0l-70 182h-272l-70 -182h-124l294 739h75l291 -739h-124
zM341 556l-100 -268h200z" />
    <glyph glyph-name="AE" unicode="&#xc6;" horiz-adv-x="1026" 
d="M971 630h-365v-201h336v-109h-336v-211h365v-109h-481v204h-255l-122 -204h-129l458 739h529v-109zM298 310h192v321z" />
    <glyph glyph-name="Ccedilla" unicode="&#xc7;" horiz-adv-x="772" 
d="M749 148q-48 -66 -124 -108.5t-167 -49.5l-16 -38h3q44 0 75 -25t31 -70q0 -46 -35 -79.5t-100 -33.5q-54 0 -117 29l27 69q42 -21 81 -21q27 0 41.5 12t14.5 30q0 36 -54 36h-55l-8 23l28 70q-143 17 -236.5 119.5t-93.5 255.5q0 168 112 276.5t271 108.5
q100 0 185 -43.5t133 -115.5l-82 -74q-91 121 -233 121q-112 0 -189.5 -78t-77.5 -195t76 -192t190 -75q146 0 238 120z" />
    <glyph glyph-name="Egrave" unicode="&#xc8;" 
d="M388 794h-100l-95 174h134zM90 0v739h472v-109h-357v-201h331v-109h-331v-211h358v-109h-473z" />
    <glyph glyph-name="Eacute" unicode="&#xc9;" 
d="M269 793l62 173h132l-95 -173h-99zM90 0v739h472v-109h-357v-201h331v-109h-331v-211h358v-109h-473z" />
    <glyph glyph-name="Ecircumflex" unicode="&#xca;" 
d="M141 793l145 170h82l145 -170h-116l-71 90l-70 -90h-115zM90 0v739h472v-109h-357v-201h331v-109h-331v-211h358v-109h-473z" />
    <glyph glyph-name="Edieresis" unicode="&#xcb;" 
d="M233 803q-29 0 -49 19.5t-20 49.5q0 28 20 47.5t49 19.5q28 0 47.5 -19.5t19.5 -47.5q0 -30 -19.5 -49.5t-47.5 -19.5zM423 803q-29 0 -49 19.5t-20 49.5q0 28 20 47.5t49 19.5t48.5 -19.5t19.5 -47.5q0 -30 -19.5 -49.5t-48.5 -19.5zM90 0v739h472v-109h-357v-201h331
v-109h-331v-211h358v-109h-473z" />
    <glyph glyph-name="Igrave" unicode="&#xcc;" horiz-adv-x="295" 
d="M201 795h-99l-95 173h133zM92 739h115v-739h-115v739z" />
    <glyph glyph-name="Iacute" unicode="&#xcd;" horiz-adv-x="292" 
d="M95 795l61 172h132l-95 -172h-98zM90 739h115v-739h-115v739z" />
    <glyph glyph-name="Icircumflex" unicode="&#xce;" horiz-adv-x="295" 
d="M-36 795l145 170h82l145 -170h-116l-71 90l-71 -90h-114zM92 739h115v-739h-115v739z" />
    <glyph glyph-name="Idieresis" unicode="&#xcf;" horiz-adv-x="295" 
d="M51 800q-31 0 -51.5 20.5t-20.5 51.5q0 29 21 49t51 20q29 0 49.5 -20t20.5 -49q0 -31 -20 -51.5t-50 -20.5zM249 800q-31 0 -51.5 20.5t-20.5 51.5q0 29 21 49t51 20q29 0 49.5 -20t20.5 -49q0 -31 -20 -51.5t-50 -20.5zM92 739h115v-739h-115v739z" />
    <glyph glyph-name="Eth" unicode="&#xd0;" horiz-adv-x="780" 
d="M387 739q160 0 252.5 -100t92.5 -271q0 -170 -94 -269t-259 -99h-271v321h-94v98h94v320h279zM383 110q108 0 168.5 73.5t60.5 187.5q0 113 -60 185.5t-168 72.5h-161v-210h206v-98h-206v-211h160z" />
    <glyph glyph-name="Ntilde" unicode="&#xd1;" horiz-adv-x="785" 
d="M268 799l-71 34q34 103 128 103q32 0 76 -22t62 -22q36 0 59 46l70 -33q-16 -49 -49 -76t-75 -27q-31 0 -74.5 22.5t-63.5 22.5q-38 0 -62 -48zM581 739h114v-739h-68l-423 501v-501h-114v739h60l431 -505v505z" />
    <glyph glyph-name="Ograve" unicode="&#xd2;" horiz-adv-x="853" 
d="M490 794h-99l-95 174h133zM423 -12q-161 0 -270.5 109.5t-109.5 268.5q0 161 112 273.5t271 112.5q160 0 272 -112t112 -271t-112 -270t-275 -111zM426 101q111 0 187.5 76.5t76.5 190.5q0 116 -76.5 193t-187.5 77q-110 0 -186.5 -77.5t-76.5 -192.5q0 -113 75.5 -190
t187.5 -77z" />
    <glyph glyph-name="Oacute" unicode="&#xd3;" horiz-adv-x="853" 
d="M374 793l62 173h132l-95 -173h-99zM423 -12q-161 0 -270.5 109.5t-109.5 268.5q0 161 112 273.5t271 112.5q160 0 272 -112t112 -271t-112 -270t-275 -111zM426 101q111 0 187.5 76.5t76.5 190.5q0 116 -76.5 193t-187.5 77q-110 0 -186.5 -77.5t-76.5 -192.5
q0 -113 75.5 -190t187.5 -77z" />
    <glyph glyph-name="Ocircumflex" unicode="&#xd4;" horiz-adv-x="853" 
d="M240 793l145 170h82l145 -170h-116l-71 90l-71 -90h-114zM423 -12q-161 0 -270.5 109.5t-109.5 268.5q0 161 112 273.5t271 112.5q160 0 272 -112t112 -271t-112 -270t-275 -111zM426 101q111 0 187.5 76.5t76.5 190.5q0 116 -76.5 193t-187.5 77q-110 0 -186.5 -77.5
t-76.5 -192.5q0 -113 75.5 -190t187.5 -77z" />
    <glyph glyph-name="Otilde" unicode="&#xd5;" horiz-adv-x="853" 
d="M304 797l-72 34q36 103 128 103q32 0 76.5 -22t62.5 -22q36 0 59 46l70 -33q-16 -49 -49 -76t-75 -27q-32 0 -75 22.5t-63 22.5q-38 0 -62 -48zM423 -12q-161 0 -270.5 109.5t-109.5 268.5q0 161 112 273.5t271 112.5q160 0 272 -112t112 -271t-112 -270t-275 -111z
M426 101q111 0 187.5 76.5t76.5 190.5q0 116 -76.5 193t-187.5 77q-110 0 -186.5 -77.5t-76.5 -192.5q0 -113 75.5 -190t187.5 -77z" />
    <glyph glyph-name="Odieresis" unicode="&#xd6;" horiz-adv-x="853" 
d="M337 803q-29 0 -49 19.5t-20 49.5q0 28 20 47.5t49 19.5q28 0 47.5 -19.5t19.5 -47.5q0 -30 -19.5 -49.5t-47.5 -19.5zM527 803q-29 0 -49 19.5t-20 49.5q0 28 20 47.5t49 19.5t48.5 -19.5t19.5 -47.5q0 -30 -19.5 -49.5t-48.5 -19.5zM423 -12q-161 0 -270.5 109.5
t-109.5 268.5q0 161 112 273.5t271 112.5q160 0 272 -112t112 -271t-112 -270t-275 -111zM426 101q111 0 187.5 76.5t76.5 190.5q0 116 -76.5 193t-187.5 77q-110 0 -186.5 -77.5t-76.5 -192.5q0 -113 75.5 -190t187.5 -77z" />
    <glyph glyph-name="multiply" unicode="&#xd7;" horiz-adv-x="531" 
d="M480 488l-148 -149l148 -148l-66 -69l-149 150l-149 -150l-66 69l148 148l-147 147l65 68l148 -148l148 148z" />
    <glyph glyph-name="Oslash" unicode="&#xd8;" horiz-adv-x="853" 
d="M685 652q59 -53 92 -126.5t33 -156.5q0 -159 -112 -270t-275 -111q-94 0 -176 41l-57 -80l-72 49l56 79q-62 52 -96.5 127.5t-34.5 161.5q0 161 112 273.5t271 112.5q100 0 189 -49l61 86l71 -48zM163 368q0 -117 79 -194l307 435q-60 29 -123 29q-110 0 -186.5 -77.5
t-76.5 -192.5zM426 101q111 0 187.5 76.5t76.5 190.5q0 111 -73 189l-303 -432q54 -24 112 -24z" />
    <glyph glyph-name="Ugrave" unicode="&#xd9;" horiz-adv-x="712" 
d="M415 794h-100l-95 174h133zM356 -13q-121 0 -197.5 71t-76.5 198v483h115v-468q0 -84 42 -127.5t117 -43.5q74 0 116 45t42 126v468h116v-483q0 -128 -76 -198.5t-198 -70.5z" />
    <glyph glyph-name="Uacute" unicode="&#xda;" horiz-adv-x="712" 
d="M302 793l61 173h133l-95 -173h-99zM356 -13q-121 0 -197.5 71t-76.5 198v483h115v-468q0 -84 42 -127.5t117 -43.5q74 0 116 45t42 126v468h116v-483q0 -128 -76 -198.5t-198 -70.5z" />
    <glyph glyph-name="Ucircumflex" unicode="&#xdb;" horiz-adv-x="712" 
d="M171 793l145 170h81l145 -170h-116l-70 90l-71 -90h-114zM356 -13q-121 0 -197.5 71t-76.5 198v483h115v-468q0 -84 42 -127.5t117 -43.5q74 0 116 45t42 126v468h116v-483q0 -128 -76 -198.5t-198 -70.5z" />
    <glyph glyph-name="Udieresis" unicode="&#xdc;" horiz-adv-x="712" 
d="M261 803q-29 0 -49 19.5t-20 49.5q0 28 20 47.5t49 19.5t48.5 -19.5t19.5 -47.5q0 -30 -19.5 -49.5t-48.5 -19.5zM452 803q-29 0 -49 19.5t-20 49.5q0 28 20 47.5t49 19.5q28 0 47.5 -19.5t19.5 -47.5q0 -30 -19.5 -49.5t-47.5 -19.5zM356 -13q-121 0 -197.5 71
t-76.5 198v483h115v-468q0 -84 42 -127.5t117 -43.5q74 0 116 45t42 126v468h116v-483q0 -128 -76 -198.5t-198 -70.5z" />
    <glyph glyph-name="Yacute" unicode="&#xdd;" horiz-adv-x="652" 
d="M270 793l61 173h132l-95 -173h-98zM637 739l-254 -476v-263h-115v263l-251 476h130l179 -358l181 358h130z" />
    <glyph glyph-name="Thorn" unicode="&#xde;" horiz-adv-x="631" 
d="M348 612q119 0 181.5 -68.5t62.5 -163.5q0 -97 -65 -164.5t-189 -67.5h-133v-148h-115v739h115v-127h143zM340 256q67 0 101 37t34 89q0 50 -32 85.5t-92 35.5h-146v-247h135z" />
    <glyph glyph-name="germandbls" unicode="&#xdf;" horiz-adv-x="651" 
d="M482 396q59 -21 94.5 -73t35.5 -118q0 -97 -73 -160.5t-181 -63.5q-64 0 -122 23l25 96q35 -16 91 -16q67 0 107.5 38.5t40.5 91.5q0 58 -50 92.5t-129 34.5v91q63 0 103 36.5t40 90.5q0 52 -35.5 84t-91.5 32q-71 0 -112.5 -54.5t-41.5 -155.5v-642h-112v665
q0 143 79 216.5t191 73.5q104 0 170 -59.5t66 -150.5q0 -55 -25 -100.5t-70 -71.5z" />
    <glyph glyph-name="agrave" unicode="&#xe0;" horiz-adv-x="669" 
d="M383 624h-97l-94 170h131zM492 539h106v-539h-106v74q-74 -87 -184 -87q-116 0 -192.5 82t-76.5 204q0 121 76.5 200t192.5 79q110 0 184 -88v75zM323 88q76 0 125 53t49 129q0 75 -49 128t-125 53q-77 0 -125 -52.5t-48 -129.5q0 -76 48 -128.5t125 -52.5z" />
    <glyph glyph-name="aacute" unicode="&#xe1;" horiz-adv-x="669" 
d="M473 794l-94 -170h-97l61 170h130zM492 539h106v-539h-106v74q-74 -87 -184 -87q-116 0 -192.5 82t-76.5 204q0 121 76.5 200t192.5 79q110 0 184 -88v75zM323 88q76 0 125 53t49 129q0 75 -49 128t-125 53q-77 0 -125 -52.5t-48 -129.5q0 -76 48 -128.5t125 -52.5z" />
    <glyph glyph-name="acircumflex" unicode="&#xe2;" horiz-adv-x="669" 
d="M331 712l-70 -89h-112l143 168h80l143 -168h-114zM492 539h106v-539h-106v74q-74 -87 -184 -87q-116 0 -192.5 82t-76.5 204q0 121 76.5 200t192.5 79q110 0 184 -88v75zM323 88q76 0 125 53t49 129q0 75 -49 128t-125 53q-77 0 -125 -52.5t-48 -129.5q0 -76 48 -128.5
t125 -52.5z" />
    <glyph glyph-name="atilde" unicode="&#xe3;" horiz-adv-x="669" 
d="M269 676q-39 0 -61 -48l-71 34q35 102 126 102q32 0 76 -22t62 -22q35 0 58 45l69 -32q-15 -49 -47.5 -75.5t-74.5 -26.5q-31 0 -74.5 22.5t-62.5 22.5zM492 539h106v-539h-106v74q-74 -87 -184 -87q-116 0 -192.5 82t-76.5 204q0 121 76.5 200t192.5 79q110 0 184 -88
v75zM323 88q76 0 125 53t49 129q0 75 -49 128t-125 53q-77 0 -125 -52.5t-48 -129.5q0 -76 48 -128.5t125 -52.5z" />
    <glyph glyph-name="adieresis" unicode="&#xe4;" horiz-adv-x="669" 
d="M232 618q-32 0 -53 21t-21 53q0 30 21.5 50.5t52.5 20.5q30 0 51.5 -20.5t21.5 -50.5q0 -32 -21.5 -53t-51.5 -21zM437 618q-32 0 -53 21t-21 53q0 30 21.5 50.5t52.5 20.5q30 0 51 -20.5t21 -50.5q0 -32 -21 -53t-51 -21zM492 539h106v-539h-106v74q-74 -87 -184 -87
q-116 0 -192.5 82t-76.5 204q0 121 76.5 200t192.5 79q110 0 184 -88v75zM323 88q76 0 125 53t49 129q0 75 -49 128t-125 53q-77 0 -125 -52.5t-48 -129.5q0 -76 48 -128.5t125 -52.5z" />
    <glyph glyph-name="aring" unicode="&#xe5;" horiz-adv-x="669" 
d="M332 603q-51 0 -86 34t-35 83q0 50 35 84t86 34q52 0 87 -34t35 -84q0 -49 -35 -83t-87 -34zM332 774q-22 0 -38 -15t-16 -37q0 -23 16 -38.5t38 -15.5t37.5 15.5t15.5 38.5q0 22 -15.5 37t-37.5 15zM492 539h106v-539h-106v74q-74 -87 -184 -87q-116 0 -192.5 82
t-76.5 204q0 121 76.5 200t192.5 79q110 0 184 -88v75zM323 88q76 0 125 53t49 129q0 75 -49 128t-125 53q-77 0 -125 -52.5t-48 -129.5q0 -76 48 -128.5t125 -52.5z" />
    <glyph glyph-name="ae" unicode="&#xe6;" horiz-adv-x="990" 
d="M954 290q0 -26 -4 -54l-418 1q10 -66 55 -109t118 -43q44 0 92.5 16t85.5 43l48 -82q-40 -31 -102.5 -52.5t-128.5 -21.5q-159 0 -234 120q-36 -60 -96.5 -90.5t-132.5 -30.5q-95 0 -151 49t-56 126q0 48 24 82t63 50t75.5 22t75.5 6h150q-22 133 -154 133
q-101 0 -165 -49l-46 82q40 28 100.5 46t115.5 18q64 0 120.5 -26t88.5 -78q76 104 220 104q112 0 184 -68.5t72 -193.5zM697 456q-63 0 -106.5 -36.5t-56.5 -97.5h314q-6 64 -47.5 99t-103.5 35zM246 85q68 0 115.5 41.5t57.5 110.5h-150q-132 0 -132 -76q0 -34 30.5 -55
t78.5 -21z" />
    <glyph glyph-name="ccedilla" unicode="&#xe7;" horiz-adv-x="600" 
d="M325 89q48 0 92 26t65 66l91 -53q-30 -58 -89 -95t-132 -44l-15 -37h3q44 0 75 -25t31 -70q0 -46 -35 -79.5t-100 -33.5q-54 0 -117 29l27 69q42 -21 81 -21q27 0 41.5 12t14.5 30q0 36 -54 36h-55l-8 23l28 70q-103 17 -166.5 93t-63.5 184q0 124 81 203.5t208 79.5
q81 0 148.5 -38.5t99.5 -105.5l-91 -51q-25 43 -66.5 68.5t-89.5 25.5q-77 0 -128 -52t-51 -130q0 -76 50 -128t125 -52z" />
    <glyph glyph-name="egrave" unicode="&#xe8;" horiz-adv-x="616" 
d="M368 622h-96l-94 170h130zM579 280q0 -23 -4 -53h-421q12 -63 56.5 -102t122.5 -39q46 0 96.5 16t86.5 42l46 -81q-41 -31 -103 -53t-130 -22q-73 0 -130 24t-91 64.5t-51 90t-17 104.5q0 122 76.5 201.5t198.5 79.5q116 0 190 -73t74 -199zM315 457q-62 0 -105.5 -38.5
t-55.5 -101.5h314q-7 64 -49.5 102t-103.5 38z" />
    <glyph glyph-name="eacute" unicode="&#xe9;" horiz-adv-x="616" 
d="M455 794l-94 -170h-97l60 170h131zM579 280q0 -23 -4 -53h-421q12 -63 56.5 -102t122.5 -39q46 0 96.5 16t86.5 42l46 -81q-41 -31 -103 -53t-130 -22q-73 0 -130 24t-91 64.5t-51 90t-17 104.5q0 122 76.5 201.5t198.5 79.5q116 0 190 -73t74 -199zM315 457
q-62 0 -105.5 -38.5t-55.5 -101.5h314q-7 64 -49.5 102t-103.5 38z" />
    <glyph glyph-name="ecircumflex" unicode="&#xea;" horiz-adv-x="616" 
d="M317 714l-69 -89h-113l143 168h80l143 -168h-114zM579 280q0 -23 -4 -53h-421q12 -63 56.5 -102t122.5 -39q46 0 96.5 16t86.5 42l46 -81q-41 -31 -103 -53t-130 -22q-73 0 -130 24t-91 64.5t-51 90t-17 104.5q0 122 76.5 201.5t198.5 79.5q116 0 190 -73t74 -199z
M315 457q-62 0 -105.5 -38.5t-55.5 -101.5h314q-7 64 -49.5 102t-103.5 38z" />
    <glyph glyph-name="edieresis" unicode="&#xeb;" horiz-adv-x="616" 
d="M225 613q-32 0 -53 21t-21 53q0 31 21 51.5t53 20.5q31 0 52 -20.5t21 -51.5q0 -32 -21 -53t-52 -21zM430 613q-32 0 -53 21t-21 53q0 31 21 51.5t53 20.5q30 0 51 -20.5t21 -51.5q0 -32 -21 -53t-51 -21zM579 280q0 -23 -4 -53h-421q12 -63 56.5 -102t122.5 -39
q46 0 96.5 16t86.5 42l46 -81q-41 -31 -103 -53t-130 -22q-73 0 -130 24t-91 64.5t-51 90t-17 104.5q0 122 76.5 201.5t198.5 79.5q116 0 190 -73t74 -199zM315 457q-62 0 -105.5 -38.5t-55.5 -101.5h314q-7 64 -49.5 102t-103.5 38z" />
    <glyph glyph-name="igrave" unicode="&#xec;" horiz-adv-x="254" 
d="M179 622h-97l-94 170h130zM182 0h-110v539h110v-539z" />
    <glyph glyph-name="iacute" unicode="&#xed;" horiz-adv-x="252" 
d="M77 624l60 170h130l-93 -170h-97zM181 0h-110v539h110v-539z" />
    <glyph glyph-name="icircumflex" unicode="&#xee;" horiz-adv-x="253" 
d="M-56 622l143 168h80l143 -168h-115l-69 88l-70 -88h-112zM182 0h-110v539h110v-539z" />
    <glyph glyph-name="idieresis" unicode="&#xef;" horiz-adv-x="253" 
d="M25 616q-32 0 -53 21t-21 53q0 30 21.5 50.5t52.5 20.5t52 -20.5t21 -50.5q0 -32 -21 -53t-52 -21zM230 616q-32 0 -53 21t-21 53q0 30 21.5 50.5t52.5 20.5q30 0 51 -20.5t21 -50.5q0 -32 -21 -53t-51 -21zM182 0h-110v539h110v-539z" />
    <glyph glyph-name="eth" unicode="&#xf0;" horiz-adv-x="656" 
d="M485 690q126 -161 126 -343q0 -155 -85.5 -257.5t-218.5 -102.5q-116 0 -191.5 75t-75.5 187t74.5 186t182.5 74q66 0 120 -32t83 -87q-11 114 -88 220l-15 20l-95 -66l-45 60l91 62q-49 51 -105 91l77 74q67 -51 116 -105l93 64l43 -60zM311 86q69 0 116.5 48.5
t47.5 119.5q0 69 -47.5 115.5t-114.5 46.5q-70 0 -116.5 -48t-46.5 -118q0 -69 45.5 -116.5t115.5 -47.5z" />
    <glyph glyph-name="ntilde" unicode="&#xf1;" horiz-adv-x="626" 
d="M193 625l-71 34q36 102 127 102q32 0 75.5 -22t61.5 -22q36 0 59 45l69 -32q-16 -49 -48 -75.5t-74 -26.5q-32 0 -75 22.5t-63 22.5q-37 0 -61 -48zM71 0v539h108v-76q24 42 68.5 66t102.5 24q89 0 150.5 -58t61.5 -167v-328h-111v297q0 74 -35.5 114t-93.5 40
q-62 0 -101.5 -43.5t-39.5 -112.5v-295h-110z" />
    <glyph glyph-name="ograve" unicode="&#xf2;" horiz-adv-x="648" 
d="M378 622h-97l-94 170h130zM324 -14q-124 0 -204.5 82t-80.5 202q0 118 80.5 200.5t204.5 82.5t204.5 -82.5t80.5 -200.5q0 -120 -80.5 -202t-204.5 -82zM324 89q73 0 123.5 53t50.5 128q0 74 -50.5 127.5t-123.5 53.5t-123.5 -53.5t-50.5 -127.5q0 -75 50.5 -128
t123.5 -53z" />
    <glyph glyph-name="oacute" unicode="&#xf3;" horiz-adv-x="648" 
d="M267 624l60 170h131l-94 -170h-97zM324 -14q-124 0 -204.5 82t-80.5 202q0 118 80.5 200.5t204.5 82.5t204.5 -82.5t80.5 -200.5q0 -120 -80.5 -202t-204.5 -82zM324 89q73 0 123.5 53t50.5 128q0 74 -50.5 127.5t-123.5 53.5t-123.5 -53.5t-50.5 -127.5q0 -75 50.5 -128
t123.5 -53z" />
    <glyph glyph-name="ocircumflex" unicode="&#xf4;" horiz-adv-x="648" 
d="M142 626l143 168h80l143 -168h-114l-70 89l-70 -89h-112zM324 -14q-124 0 -204.5 82t-80.5 202q0 118 80.5 200.5t204.5 82.5t204.5 -82.5t80.5 -200.5q0 -120 -80.5 -202t-204.5 -82zM324 89q73 0 123.5 53t50.5 128q0 74 -50.5 127.5t-123.5 53.5t-123.5 -53.5
t-50.5 -127.5q0 -75 50.5 -128t123.5 -53z" />
    <glyph glyph-name="otilde" unicode="&#xf5;" horiz-adv-x="648" 
d="M201 627l-71 34q35 102 126 102q32 0 76 -22t62 -22q35 0 58 45l69 -32q-15 -49 -47.5 -75.5t-74.5 -26.5q-31 0 -74.5 22.5t-62.5 22.5q-39 0 -61 -48zM324 -14q-124 0 -204.5 82t-80.5 202q0 118 80.5 200.5t204.5 82.5t204.5 -82.5t80.5 -200.5q0 -120 -80.5 -202
t-204.5 -82zM324 89q73 0 123.5 53t50.5 128q0 74 -50.5 127.5t-123.5 53.5t-123.5 -53.5t-50.5 -127.5q0 -75 50.5 -128t123.5 -53z" />
    <glyph glyph-name="odieresis" unicode="&#xf6;" horiz-adv-x="648" 
d="M224 616q-32 0 -53 21t-21 53q0 31 21 51.5t53 20.5q30 0 51 -20.5t21 -51.5q0 -32 -21 -53t-51 -21zM429 616q-32 0 -53.5 21t-21.5 53q0 31 21.5 51.5t53.5 20.5q30 0 51 -20.5t21 -51.5q0 -32 -21 -53t-51 -21zM324 -14q-124 0 -204.5 82t-80.5 202q0 118 80.5 200.5
t204.5 82.5t204.5 -82.5t80.5 -200.5q0 -120 -80.5 -202t-204.5 -82zM324 89q73 0 123.5 53t50.5 128q0 74 -50.5 127.5t-123.5 53.5t-123.5 -53.5t-50.5 -127.5q0 -75 50.5 -128t123.5 -53z" />
    <glyph glyph-name="divide" unicode="&#xf7;" horiz-adv-x="551" 
d="M275 443q-29 0 -49 19.5t-20 49.5q0 28 20 47.5t49 19.5t48.5 -19.5t19.5 -47.5q0 -30 -19.5 -49.5t-48.5 -19.5zM49 285v96h454v-96h-454zM275 88q-29 0 -49 19.5t-20 49.5q0 28 20 47.5t49 19.5t48.5 -19.5t19.5 -47.5q0 -30 -19.5 -49.5t-48.5 -19.5z" />
    <glyph glyph-name="oslash" unicode="&#xf8;" horiz-adv-x="648" 
d="M515 484q94 -83 94 -214q0 -120 -80.5 -202t-204.5 -82q-71 0 -133 30l-54 -78l-57 39l54 78q-95 82 -95 215q0 118 80.5 200.5t204.5 82.5q70 0 132 -30l50 73l60 -38zM150 270q0 -72 46 -124l199 289q-34 16 -71 16q-73 0 -123.5 -53.5t-50.5 -127.5zM324 89
q73 0 123.5 53t50.5 128q0 71 -46 123l-200 -288q35 -16 72 -16z" />
    <glyph glyph-name="ugrave" unicode="&#xf9;" horiz-adv-x="601" 
d="M359 624h-97l-94 170h131zM300 -13q-108 0 -172 63t-64 171v318h110v-317q0 -61 33.5 -97t92.5 -36q60 0 93 35.5t33 97.5v317h111v-318q0 -110 -63 -172t-174 -62z" />
    <glyph glyph-name="uacute" unicode="&#xfa;" horiz-adv-x="601" 
d="M248 624l60 170h130l-93 -170h-97zM300 -13q-108 0 -172 63t-64 171v318h110v-317q0 -61 33.5 -97t92.5 -36q60 0 93 35.5t33 97.5v317h111v-318q0 -110 -63 -172t-174 -62z" />
    <glyph glyph-name="ucircumflex" unicode="&#xfb;" horiz-adv-x="601" 
d="M118 622l143 168h80l143 -168h-114l-70 89l-69 -89h-113zM300 -13q-108 0 -172 63t-64 171v318h110v-317q0 -61 33.5 -97t92.5 -36q60 0 93 35.5t33 97.5v317h111v-318q0 -110 -63 -172t-174 -62z" />
    <glyph glyph-name="udieresis" unicode="&#xfc;" horiz-adv-x="601" 
d="M199 616q-32 0 -53 21t-21 53q0 30 21.5 50.5t52.5 20.5q30 0 51.5 -20.5t21.5 -50.5q0 -32 -21.5 -53t-51.5 -21zM404 616q-32 0 -53 21t-21 53q0 30 21.5 50.5t52.5 20.5q30 0 51 -20.5t21 -50.5q0 -32 -21 -53t-51 -21zM300 -13q-108 0 -172 63t-64 171v318h110v-317
q0 -61 33.5 -97t92.5 -36q60 0 93 35.5t33 97.5v317h111v-318q0 -110 -63 -172t-174 -62z" />
    <glyph glyph-name="yacute" unicode="&#xfd;" horiz-adv-x="569" 
d="M422 792l-93 -170h-97l60 170h130zM435 539h121l-223 -588q-36 -95 -84 -137.5t-117 -42.5q-57 0 -92 23l16 95q38 -17 67 -17q66 0 106 92l17 40l-234 535h127l158 -389z" />
    <glyph glyph-name="thorn" unicode="&#xfe;" horiz-adv-x="672" 
d="M361 552q118 0 195 -81.5t77 -200.5t-77.5 -201t-194.5 -82q-105 0 -180 87v-296h-110v980h110v-294q76 88 180 88zM349 88q76 0 124 52.5t48 129.5q0 76 -48 128.5t-124 52.5q-77 0 -125 -52.5t-48 -128.5q0 -77 47.5 -129.5t125.5 -52.5z" />
    <glyph glyph-name="ydieresis" unicode="&#xff;" horiz-adv-x="569" 
d="M189 616q-32 0 -53.5 21t-21.5 53q0 31 21.5 51.5t53.5 20.5q30 0 51 -20.5t21 -51.5q0 -32 -21 -53t-51 -21zM393 616q-32 0 -53 21t-21 53q0 31 21.5 51.5t52.5 20.5t52 -20.5t21 -51.5q0 -32 -21 -53t-52 -21zM435 539h121l-223 -588q-36 -95 -84 -137.5t-117 -42.5
q-57 0 -92 23l16 95q38 -17 67 -17q66 0 106 92l17 40l-234 535h127l158 -389z" />
    <glyph glyph-name="Amacron" unicode="&#x100;" horiz-adv-x="681" 
d="M515 908v-98h-348v98h348zM546 0l-70 182h-272l-70 -182h-124l294 739h75l291 -739h-124zM341 556l-100 -268h200z" />
    <glyph glyph-name="amacron" unicode="&#x101;" horiz-adv-x="669" 
d="M488 735v-99h-313v99h313zM492 539h106v-539h-106v74q-74 -87 -184 -87q-116 0 -192.5 82t-76.5 204q0 121 76.5 200t192.5 79q110 0 184 -88v75zM323 88q76 0 125 53t49 129q0 75 -49 128t-125 53q-77 0 -125 -52.5t-48 -129.5q0 -76 48 -128.5t125 -52.5z" />
    <glyph glyph-name="Abreve" unicode="&#x102;" horiz-adv-x="681" 
d="M342 785q-80 0 -129.5 48t-52.5 130h94q2 -45 25 -70.5t63 -25.5t63 25.5t25 70.5h95q-3 -82 -53 -130t-130 -48zM546 0l-70 182h-272l-70 -182h-124l294 739h75l291 -739h-124zM341 556l-100 -268h200z" />
    <glyph glyph-name="abreve" unicode="&#x103;" horiz-adv-x="669" 
d="M332 619q-79 0 -127.5 47t-51.5 128h92q2 -44 25 -69.5t62 -25.5t62 25.5t25 69.5h93q-3 -80 -52 -127.5t-128 -47.5zM492 539h106v-539h-106v74q-74 -87 -184 -87q-116 0 -192.5 82t-76.5 204q0 121 76.5 200t192.5 79q110 0 184 -88v75zM323 88q76 0 125 53t49 129
q0 75 -49 128t-125 53q-77 0 -125 -52.5t-48 -129.5q0 -76 48 -128.5t125 -52.5z" />
    <glyph glyph-name="Aogonek" unicode="&#x104;" horiz-adv-x="679" 
d="M650 -157l35 -75q-48 -29 -99 -29q-54 0 -86.5 31.5t-32.5 79.5q0 88 104 150h-25l-70 182h-272l-70 -182h-124l294 739h75l291 -739q-47 -20 -77 -54.5t-30 -67.5q0 -21 12.5 -34t32.5 -13q16 0 42 12zM341 556l-100 -268h200z" />
    <glyph glyph-name="aogonek" unicode="&#x105;" horiz-adv-x="665" 
d="M578 -157l35 -75q-48 -29 -99 -29q-54 0 -86.5 31.5t-32.5 79.5q0 88 104 150h-7v74q-74 -87 -184 -87q-116 0 -192.5 82t-76.5 204q0 121 76.5 200t192.5 79q110 0 184 -88v75h106v-539q-47 -20 -77.5 -54.5t-30.5 -67.5q0 -21 13 -34t33 -13q16 0 42 12zM323 88
q76 0 125 53t49 129q0 75 -49 128t-125 53q-77 0 -125 -52.5t-48 -129.5q0 -76 48 -128.5t125 -52.5z" />
    <glyph glyph-name="Cacute" unicode="&#x106;" horiz-adv-x="773" 
d="M384 793l61 173h132l-95 -173h-98zM424 -11q-160 0 -270 106t-110 272q0 168 112 276.5t271 108.5q100 0 185 -43.5t133 -115.5l-82 -74q-91 121 -233 121q-112 0 -189.5 -78t-77.5 -195t76 -192t190 -75q146 0 238 120l82 -72q-52 -71 -137.5 -115t-187.5 -44z" />
    <glyph glyph-name="cacute" unicode="&#x107;" horiz-adv-x="600" 
d="M275 624l60 170h130l-93 -170h-97zM324 -12q-125 0 -205 79t-80 202q0 124 81 203.5t208 79.5q81 0 148.5 -38.5t99.5 -105.5l-91 -51q-25 43 -66.5 68.5t-89.5 25.5q-77 0 -128 -52t-51 -130q0 -76 50 -128t125 -52q48 0 92 26t65 66l91 -53q-33 -63 -100.5 -101.5
t-148.5 -38.5z" />
    <glyph glyph-name="Ccircumflex" unicode="&#x108;" horiz-adv-x="773" 
d="M235 793l145 170h82l145 -170h-116l-71 90l-71 -90h-114zM424 -11q-160 0 -270 106t-110 272q0 168 112 276.5t271 108.5q100 0 185 -43.5t133 -115.5l-82 -74q-91 121 -233 121q-112 0 -189.5 -78t-77.5 -195t76 -192t190 -75q146 0 238 120l82 -72q-52 -71 -137.5 -115
t-187.5 -44z" />
    <glyph glyph-name="ccircumflex" unicode="&#x109;" horiz-adv-x="600" 
d="M141 624l143 168h80l143 -168h-114l-70 88l-69 -88h-113zM324 -12q-125 0 -205 79t-80 202q0 124 81 203.5t208 79.5q81 0 148.5 -38.5t99.5 -105.5l-91 -51q-25 43 -66.5 68.5t-89.5 25.5q-77 0 -128 -52t-51 -130q0 -76 50 -128t125 -52q48 0 92 26t65 66l91 -53
q-33 -63 -100.5 -101.5t-148.5 -38.5z" />
    <glyph glyph-name="Cdotaccent" unicode="&#x10a;" horiz-adv-x="773" 
d="M423 797q-32 0 -54 21.5t-22 53.5q0 31 22 52t54 21q31 0 52.5 -21t21.5 -52q0 -32 -21.5 -53.5t-52.5 -21.5zM424 -11q-160 0 -270 106t-110 272q0 168 112 276.5t271 108.5q100 0 185 -43.5t133 -115.5l-82 -74q-91 121 -233 121q-112 0 -189.5 -78t-77.5 -195t76 -192
t190 -75q146 0 238 120l82 -72q-52 -71 -137.5 -115t-187.5 -44z" />
    <glyph glyph-name="cdotaccent" unicode="&#x10b;" horiz-adv-x="600" 
d="M325 611q-32 0 -53.5 21t-21.5 53q0 31 21.5 52.5t53.5 21.5q31 0 52.5 -21.5t21.5 -52.5q0 -32 -21 -53t-53 -21zM324 -12q-125 0 -205 79t-80 202q0 124 81 203.5t208 79.5q81 0 148.5 -38.5t99.5 -105.5l-91 -51q-25 43 -66.5 68.5t-89.5 25.5q-77 0 -128 -52
t-51 -130q0 -76 50 -128t125 -52q48 0 92 26t65 66l91 -53q-33 -63 -100.5 -101.5t-148.5 -38.5z" />
    <glyph glyph-name="Ccaron" unicode="&#x10c;" horiz-adv-x="773" 
d="M240 962h113l69 -88l70 88h114l-142 -168h-81zM424 -11q-160 0 -270 106t-110 272q0 168 112 276.5t271 108.5q100 0 185 -43.5t133 -115.5l-82 -74q-91 121 -233 121q-112 0 -189.5 -78t-77.5 -195t76 -192t190 -75q146 0 238 120l82 -72q-52 -71 -137.5 -115
t-187.5 -44z" />
    <glyph glyph-name="ccaron" unicode="&#x10d;" horiz-adv-x="600" 
d="M142 792h113l69 -88l70 88h114l-143 -168h-80zM324 -12q-125 0 -205 79t-80 202q0 124 81 203.5t208 79.5q81 0 148.5 -38.5t99.5 -105.5l-91 -51q-25 43 -66.5 68.5t-89.5 25.5q-77 0 -128 -52t-51 -130q0 -76 50 -128t125 -52q48 0 92 26t65 66l91 -53
q-33 -63 -100.5 -101.5t-148.5 -38.5z" />
    <glyph glyph-name="Dcaron" unicode="&#x10e;" horiz-adv-x="762" 
d="M165 962h113l69 -88l70 88h114l-143 -168h-80zM90 0v739h279q160 0 252.5 -100t92.5 -271q0 -170 -94.5 -269t-259.5 -99h-270zM205 110h160q108 0 168.5 73.5t60.5 187.5q0 112 -60.5 185t-167.5 73h-161v-519z" />
    <glyph glyph-name="dcaron" unicode="&#x10f;" horiz-adv-x="702" 
d="M697 795h119l-85 -172h-92zM488 464v294h111v-758h-109v75q-71 -88 -181 -88q-116 0 -193 81.5t-77 201.5q0 119 77 200.5t192 81.5q107 0 180 -88zM323 88q77 0 125 52.5t48 129.5q0 76 -48 128.5t-125 52.5t-125 -52.5t-48 -128.5q0 -77 48 -129.5t125 -52.5z" />
    <glyph glyph-name="Dcroat" unicode="&#x110;" horiz-adv-x="780" 
d="M387 739q160 0 252.5 -100t92.5 -271q0 -170 -94 -269t-259 -99h-271v321h-94v98h94v320h279zM383 110q108 0 168.5 73.5t60.5 187.5q0 113 -60 185.5t-168 72.5h-161v-210h206v-98h-206v-211h160z" />
    <glyph glyph-name="dcroat" unicode="&#x111;" horiz-adv-x="672" 
d="M679 669v-75h-80v-594h-109v75q-71 -88 -181 -88q-116 0 -193 81.5t-77 201.5q0 119 77 200.5t192 81.5q107 0 180 -88v130h-153v75h153v89h111v-89h80zM323 88q77 0 125 52.5t48 129.5q0 76 -48 128.5t-125 52.5t-125 -52.5t-48 -128.5q0 -77 48 -129.5t125 -52.5z" />
    <glyph glyph-name="Emacron" unicode="&#x112;" 
d="M156 809v99h348v-99h-348zM90 0v739h472v-109h-357v-201h331v-109h-331v-211h358v-109h-473z" />
    <glyph glyph-name="emacron" unicode="&#x113;" horiz-adv-x="616" 
d="M471 734v-99h-313v99h313zM579 280q0 -23 -4 -53h-421q12 -63 56.5 -102t122.5 -39q46 0 96.5 16t86.5 42l46 -81q-41 -31 -103 -53t-130 -22q-73 0 -130 24t-91 64.5t-51 90t-17 104.5q0 122 76.5 201.5t198.5 79.5q116 0 190 -73t74 -199zM315 457q-62 0 -105.5 -38.5
t-55.5 -101.5h314q-7 64 -49.5 102t-103.5 38z" />
    <glyph glyph-name="Ebreve" unicode="&#x114;" 
d="M333 785q-80 0 -129.5 48t-52.5 130h93q2 -45 25.5 -70.5t63.5 -25.5t63 25.5t25 70.5h94q-3 -82 -52.5 -130t-129.5 -48zM90 0v739h472v-109h-357v-201h331v-109h-331v-211h358v-109h-473z" />
    <glyph glyph-name="ebreve" unicode="&#x115;" horiz-adv-x="616" 
d="M320 617q-78 0 -127 47t-52 128h92q2 -44 25 -69.5t62 -25.5t62 25.5t25 69.5h93q-3 -81 -52 -128t-128 -47zM579 280q0 -23 -4 -53h-421q12 -63 56.5 -102t122.5 -39q46 0 96.5 16t86.5 42l46 -81q-41 -31 -103 -53t-130 -22q-73 0 -130 24t-91 64.5t-51 90t-17 104.5
q0 122 76.5 201.5t198.5 79.5q116 0 190 -73t74 -199zM315 457q-62 0 -105.5 -38.5t-55.5 -101.5h314q-7 64 -49.5 102t-103.5 38z" />
    <glyph glyph-name="Edotaccent" unicode="&#x116;" 
d="M329 797q-32 0 -53.5 21.5t-21.5 53.5q0 31 21.5 52t53.5 21q31 0 52.5 -21t21.5 -52q0 -32 -21.5 -53.5t-52.5 -21.5zM90 0v739h472v-109h-357v-201h331v-109h-331v-211h358v-109h-473z" />
    <glyph glyph-name="edotaccent" unicode="&#x117;" horiz-adv-x="616" 
d="M321 612q-32 0 -53.5 21t-21.5 53q0 31 21.5 52.5t53.5 21.5q31 0 52.5 -21t21.5 -53t-21 -53t-53 -21zM579 280q0 -23 -4 -53h-421q12 -63 56.5 -102t122.5 -39q46 0 96.5 16t86.5 42l46 -81q-41 -31 -103 -53t-130 -22q-73 0 -130 24t-91 64.5t-51 90t-17 104.5
q0 122 76.5 201.5t198.5 79.5q116 0 190 -73t74 -199zM315 457q-62 0 -105.5 -38.5t-55.5 -101.5h314q-7 64 -49.5 102t-103.5 38z" />
    <glyph glyph-name="Eogonek" unicode="&#x118;" horiz-adv-x="615" 
d="M543 -157l35 -75q-46 -29 -99 -29q-54 0 -86.5 31.5t-32.5 79.5q0 88 104 150h-374v739h472v-109h-357v-201h331v-109h-331v-211h358v-109q-46 -20 -76.5 -54.5t-30.5 -67.5q0 -21 12.5 -34t32.5 -13q18 0 42 12z" />
    <glyph glyph-name="eogonek" unicode="&#x119;" horiz-adv-x="616" 
d="M579 280q0 -23 -4 -53h-421q12 -63 56.5 -102t122.5 -39q46 0 96.5 16t86.5 42l46 -81q-52 -40 -121 -59q-45 -20 -75 -54.5t-30 -66.5q0 -21 13 -33.5t33 -12.5q19 0 41 11l35 -75q-46 -29 -99 -29q-54 0 -86 31.5t-32 80.5q0 74 77 132q-137 4 -207.5 86t-70.5 197
q0 122 76.5 201.5t198.5 79.5q116 0 190 -73t74 -199zM315 457q-62 0 -105.5 -38.5t-55.5 -101.5h314q-7 64 -49.5 102t-103.5 38z" />
    <glyph glyph-name="Ecaron" unicode="&#x11a;" 
d="M147 962h112l70 -88l69 88h115l-143 -168h-80zM90 0v739h472v-109h-357v-201h331v-109h-331v-211h358v-109h-473z" />
    <glyph glyph-name="ecaron" unicode="&#x11b;" horiz-adv-x="616" 
d="M359 624h-81l-143 168h113l69 -89l70 89h114zM579 280q0 -23 -4 -53h-421q12 -63 56.5 -102t122.5 -39q46 0 96.5 16t86.5 42l46 -81q-41 -31 -103 -53t-130 -22q-73 0 -130 24t-91 64.5t-51 90t-17 104.5q0 122 76.5 201.5t198.5 79.5q116 0 190 -73t74 -199zM315 457
q-62 0 -105.5 -38.5t-55.5 -101.5h314q-7 64 -49.5 102t-103.5 38z" />
    <glyph glyph-name="Gcircumflex" unicode="&#x11c;" horiz-adv-x="811" 
d="M246 795l145 170h82l145 -170h-116l-71 90l-71 -90h-114zM425 -11q-165 0 -273 107.5t-108 272.5q0 166 112 274.5t274 108.5q92 0 173.5 -36t131.5 -95l-79 -78q-89 97 -225 97q-115 0 -192 -77t-77 -194q0 -116 76 -192.5t190 -76.5q64 0 123.5 26t101.5 70v132h-233
v104h340v-290q-138 -153 -335 -153z" />
    <glyph glyph-name="gcircumflex" unicode="&#x11d;" horiz-adv-x="670" 
d="M319 712l-69 -89h-113l143 168h81l142 -168h-114zM493 539h106v-484q0 -131 -80 -207.5t-212 -76.5q-135 0 -241 77l48 85q90 -64 191 -64q86 0 135.5 48t49.5 123v39q-70 -80 -181 -80q-117 0 -193.5 79t-76.5 198t79.5 197.5t195.5 78.5q107 0 179 -82v69zM323 97
q75 0 124 51t49 127q0 77 -49 127t-124 50q-74 0 -123 -50.5t-49 -126.5q0 -77 49 -127.5t123 -50.5z" />
    <glyph glyph-name="Gbreve" unicode="&#x11e;" horiz-adv-x="811" 
d="M429 787q-80 0 -129 48t-52 130h93q2 -45 25 -70.5t63 -25.5q41 0 64 25.5t25 70.5h94q-3 -82 -52.5 -130t-130.5 -48zM425 -11q-165 0 -273 107.5t-108 272.5q0 166 112 274.5t274 108.5q92 0 173.5 -36t131.5 -95l-79 -78q-89 97 -225 97q-115 0 -192 -77t-77 -194
q0 -116 76 -192.5t190 -76.5q64 0 123.5 26t101.5 70v132h-233v104h340v-290q-138 -153 -335 -153z" />
    <glyph glyph-name="gbreve" unicode="&#x11f;" horiz-adv-x="670" 
d="M317 619q-79 0 -127.5 47t-51.5 128h92q2 -44 24.5 -69t62.5 -25t62.5 25t23.5 69h93q-3 -81 -52 -128t-127 -47zM493 539h106v-484q0 -131 -80 -207.5t-212 -76.5q-135 0 -241 77l48 85q90 -64 191 -64q86 0 135.5 48t49.5 123v39q-70 -80 -181 -80q-117 0 -193.5 79
t-76.5 198t79.5 197.5t195.5 78.5q107 0 179 -82v69zM323 97q75 0 124 51t49 127q0 77 -49 127t-124 50q-74 0 -123 -50.5t-49 -126.5q0 -77 49 -127.5t123 -50.5z" />
    <glyph glyph-name="Gdotaccent" unicode="&#x120;" horiz-adv-x="811" 
d="M432 797q-32 0 -54 21.5t-22 53.5q0 31 22 52t54 21q31 0 52.5 -21t21.5 -52q0 -32 -21.5 -53.5t-52.5 -21.5zM425 -11q-165 0 -273 107.5t-108 272.5q0 166 112 274.5t274 108.5q92 0 173.5 -36t131.5 -95l-79 -78q-89 97 -225 97q-115 0 -192 -77t-77 -194
q0 -116 76 -192.5t190 -76.5q64 0 123.5 26t101.5 70v132h-233v104h340v-290q-138 -153 -335 -153z" />
    <glyph glyph-name="gdotaccent" unicode="&#x121;" horiz-adv-x="670" 
d="M320 614q-32 0 -53.5 21t-21.5 53q0 31 21.5 52.5t53.5 21.5t53 -21t21 -53t-21 -53t-53 -21zM493 539h106v-484q0 -131 -80 -207.5t-212 -76.5q-135 0 -241 77l48 85q90 -64 191 -64q86 0 135.5 48t49.5 123v39q-70 -80 -181 -80q-117 0 -193.5 79t-76.5 198t79.5 197.5
t195.5 78.5q107 0 179 -82v69zM323 97q75 0 124 51t49 127q0 77 -49 127t-124 50q-74 0 -123 -50.5t-49 -126.5q0 -77 49 -127.5t123 -50.5z" />
    <glyph glyph-name="uni0122" unicode="&#x122;" horiz-adv-x="811" 
d="M420 432h340v-290q-138 -153 -335 -153q-165 0 -273 107.5t-108 272.5q0 166 112 274.5t274 108.5q92 0 173.5 -36t131.5 -95l-79 -78q-89 97 -225 97q-115 0 -192 -77t-77 -194q0 -116 76 -192.5t190 -76.5q64 0 123.5 26t101.5 70v132h-233v104zM429 -39q31 0 53 -22.5
t22 -57.5q0 -85 -132 -174l-38 50q62 47 81 72q-24 2 -41 20.5t-17 43.5q0 28 21 48t51 20z" />
    <glyph glyph-name="uni0123" unicode="&#x123;" horiz-adv-x="670" 
d="M320 600q-31 0 -53 22.5t-22 56.5q0 84 131 172l37 -49q-64 -49 -79 -71q23 -2 40 -20.5t17 -42.5q0 -28 -20.5 -48t-50.5 -20zM493 539h106v-484q0 -131 -80 -207.5t-212 -76.5q-135 0 -241 77l48 85q90 -64 191 -64q86 0 135.5 48t49.5 123v39q-70 -80 -181 -80
q-117 0 -193.5 79t-76.5 198t79.5 197.5t195.5 78.5q107 0 179 -82v69zM323 97q75 0 124 51t49 127q0 77 -49 127t-124 50q-74 0 -123 -50.5t-49 -126.5q0 -77 49 -127.5t123 -50.5z" />
    <glyph glyph-name="Hcircumflex" unicode="&#x124;" horiz-adv-x="762" 
d="M196 793l145 170h82l145 -170h-116l-71 90l-70 -90h-115zM90 0v739h115v-307h352v307h115v-739h-115v321h-352v-321h-115z" />
    <glyph glyph-name="hcircumflex" unicode="&#x125;" horiz-adv-x="626" 
d="M-60 795l145 171h82l145 -171h-116l-71 90l-71 -90h-114zM72 0v758h107v-287q24 37 69 59.5t102 22.5q89 0 150 -58t61 -167v-328h-110v297q0 74 -35.5 114t-93.5 40q-62 0 -101 -43t-39 -112v-296h-110z" />
    <glyph glyph-name="Hbar" unicode="&#x126;" horiz-adv-x="797" 
d="M772 624v-88h-89v-536h-116v321h-351v-321h-116v536h-89v88h89v115h116v-115h351v115h116v-115h89zM567 432v104h-351v-104h351z" />
    <glyph glyph-name="hbar" unicode="&#x127;" horiz-adv-x="626" 
d="M350 553q89 0 150 -58t61 -167v-328h-110v297q0 74 -35.5 114t-93.5 40q-62 0 -101 -43t-39 -112v-296h-110v594h-65v76h65v88h107v-88h172v-76h-172v-123q24 37 69 59.5t102 22.5z" />
    <glyph glyph-name="Itilde" unicode="&#x128;" horiz-adv-x="295" 
d="M23 812l-72 34q36 103 128 103q32 0 76.5 -22t62.5 -22q36 0 59 46l70 -33q-16 -49 -49 -76t-75 -27q-31 0 -75 22.5t-64 22.5q-37 0 -61 -48zM92 739h115v-739h-115v739z" />
    <glyph glyph-name="itilde" unicode="&#x129;" horiz-adv-x="253" 
d="M2 627l-71 34q35 102 127 102q32 0 75.5 -22t61.5 -22q36 0 58 45l70 -32q-16 -49 -48.5 -75.5t-74.5 -26.5q-31 0 -74 22t-63 22q-37 0 -61 -47zM182 0h-110v539h110v-539z" />
    <glyph glyph-name="Imacron" unicode="&#x12a;" horiz-adv-x="295" 
d="M-24 824v99h348v-99h-348zM92 739h115v-739h-115v739z" />
    <glyph glyph-name="imacron" unicode="&#x12b;" horiz-adv-x="253" 
d="M-29 636v98h314v-98h-314zM182 0h-110v539h110v-539z" />
    <glyph glyph-name="Ibreve" unicode="&#x12c;" horiz-adv-x="295" 
d="M149 789q-80 0 -129 48t-52 130h93q2 -45 25 -71t63 -26t63.5 26t25.5 71h94q-3 -82 -52.5 -130t-130.5 -48zM92 739h115v-739h-115v739z" />
    <glyph glyph-name="ibreve" unicode="&#x12d;" horiz-adv-x="253" 
d="M127 618q-79 0 -127 47t-51 128h91q2 -44 24.5 -69.5t62.5 -25.5t62.5 25t24.5 70h93q-3 -81 -52 -128t-128 -47zM182 0h-110v539h110v-539z" />
    <glyph glyph-name="Iogonek" unicode="&#x12e;" horiz-adv-x="295" 
d="M187 -157l35 -75q-48 -29 -99 -29q-54 0 -86.5 31.5t-32.5 79.5q0 88 104 150h-17v739h116v-739q-47 -20 -77 -54.5t-30 -67.5q0 -21 12.5 -34t32.5 -13q16 0 42 12z" />
    <glyph glyph-name="iogonek" unicode="&#x12f;" horiz-adv-x="253" 
d="M129 610q-32 0 -54 21.5t-22 53.5q0 31 22 52t54 21q31 0 52 -21t21 -52q0 -32 -21 -53.5t-52 -21.5zM121 -169q16 0 42 12l34 -75q-46 -29 -98 -29q-54 0 -86.5 31.5t-32.5 79.5q0 88 104 150h-12v539h110v-539q-46 -20 -76.5 -54.5t-30.5 -67.5q0 -21 13 -34t33 -13z
" />
    <glyph glyph-name="Idotaccent" unicode="&#x130;" horiz-adv-x="295" 
d="M153 795q-32 0 -54 21t-22 53q0 31 22 52.5t54 21.5q31 0 52.5 -21.5t21.5 -52.5q0 -32 -21.5 -53t-52.5 -21zM94 739h116v-739h-116v739z" />
    <glyph glyph-name="dotlessi" unicode="&#x131;" horiz-adv-x="253" 
d="M181 0h-110v539h110v-539z" />
    <glyph glyph-name="IJ" unicode="&#x132;" horiz-adv-x="857" 
d="M90 739h115v-739h-115v739zM519 -12q-132 0 -217 94l64 86q61 -70 149 -70q65 0 105 41.5t40 117.5v482h116v-487q0 -128 -71.5 -196t-185.5 -68z" />
    <glyph glyph-name="ij" unicode="&#x133;" horiz-adv-x="535" 
d="M128 610q-32 0 -53.5 21.5t-21.5 53.5q0 31 21.5 52t53.5 21t53 -21t21 -52q0 -32 -21 -53.5t-53 -21.5zM399 610q-32 0 -54 21.5t-22 53.5q0 31 22 52t54 21q31 0 52.5 -21t21.5 -52q0 -32 -21.5 -53.5t-52.5 -21.5zM182 0h-110v539h110v-539zM267 -230q-70 0 -105 24
l21 90q40 -14 68 -14q92 0 92 109v560h111v-558q0 -103 -51 -157t-136 -54z" />
    <glyph glyph-name="Jcircumflex" unicode="&#x134;" horiz-adv-x="565" 
d="M240 793l145 170h82l145 -170h-116l-71 90l-71 -90h-114zM228 -12q-133 0 -218 94l65 86q60 -70 149 -70q65 0 104.5 42t39.5 117v482h116v-487q0 -128 -71.5 -196t-184.5 -68z" />
    <glyph glyph-name="jcircumflex" unicode="&#x135;" horiz-adv-x="277" 
d="M-34 622l143 168h80l143 -168h-114l-70 88l-69 -88h-113zM18 -230q-68 0 -105 24l22 90q40 -14 68 -14q92 0 92 109v560h110v-558q0 -104 -50.5 -157.5t-136.5 -53.5z" />
    <glyph glyph-name="uni0136" unicode="&#x136;" horiz-adv-x="675" 
d="M378 395l309 -395h-142l-242 314l-98 -117v-197h-115v739h115v-385l320 385h138zM368 -33q31 0 53 -23t22 -57q0 -87 -132 -174l-38 49q62 47 81 72q-24 1 -41 20t-17 44q0 28 21 48.5t51 20.5z" />
    <glyph glyph-name="uni0137" unicode="&#x137;" horiz-adv-x="557" 
d="M305 315l259 -315h-142l-194 245l-47 -43v-202h-110v758h110v-427l227 208h145zM293 -17q31 0 52.5 -22.5t21.5 -56.5q0 -86 -130 -173l-37 49q62 48 80 72q-23 1 -40.5 19.5t-17.5 43.5q0 28 20.5 48t50.5 20z" />
    <glyph glyph-name="kgreenlandic" unicode="&#x138;" horiz-adv-x="552" 
d="M419 0l-191 241l-48 -45v-196h-109v539h109v-213l228 213h143l-245 -227l250 -312h-137z" />
    <glyph glyph-name="Lacute" unicode="&#x139;" horiz-adv-x="609" 
d="M99 793l61 173h132l-95 -173h-98zM90 0v739h115v-628h390v-111h-505z" />
    <glyph glyph-name="lacute" unicode="&#x13a;" horiz-adv-x="250" 
d="M76 796l61 172h133l-95 -172h-99zM181 0h-110v758h110v-758z" />
    <glyph glyph-name="uni013B" unicode="&#x13b;" horiz-adv-x="609" 
d="M205 111h390v-111h-505v739h115v-628zM349 -34q31 0 53.5 -23t22.5 -57q0 -87 -132 -174l-38 49q62 48 80 72q-23 2 -40.5 20.5t-17.5 43.5q0 28 21 48.5t51 20.5z" />
    <glyph glyph-name="uni013C" unicode="&#x13c;" horiz-adv-x="252" 
d="M183 758v-758h-110v758h110zM126 -40q30 0 52 -23t22 -57q0 -85 -131 -172l-37 49q62 48 79 71q-23 2 -40 20.5t-17 43.5q0 27 21 47.5t51 20.5z" />
    <glyph glyph-name="Lcaron" unicode="&#x13d;" horiz-adv-x="614" 
d="M405 622l58 171h119l-85 -171h-92zM90 0v739h115v-628h390v-111h-505z" />
    <glyph glyph-name="lcaron" unicode="&#x13e;" horiz-adv-x="280" 
d="M214 622l58 172h120l-85 -172h-93zM181 0h-110v758h110v-758z" />
    <glyph glyph-name="Ldot" unicode="&#x13f;" horiz-adv-x="611" 
d="M90 0v739h115v-628h390v-111h-505zM453 327q-30 0 -50.5 20t-20.5 51q0 29 20.5 48.5t50.5 19.5q29 0 48.5 -20t19.5 -48q0 -31 -19.5 -51t-48.5 -20z" />
    <glyph glyph-name="ldot" unicode="&#x140;" horiz-adv-x="375" 
d="M181 0h-110v758h110v-758zM314 294q-30 0 -50.5 20t-20.5 50q0 29 20.5 49t50.5 20q29 0 49 -20t20 -49q0 -30 -20 -50t-49 -20z" />
    <glyph glyph-name="Lslash" unicode="&#x141;" horiz-adv-x="619" 
d="M215 111h390v-111h-505v279l-72 -47v109l72 47v351h115v-275l112 73v-110l-112 -73v-243z" />
    <glyph glyph-name="lslash" unicode="&#x142;" horiz-adv-x="317" 
d="M281 526v-109l-68 -50v-367h-111v286l-61 -45v109l61 45v363h111v-282z" />
    <glyph glyph-name="Nacute" unicode="&#x143;" horiz-adv-x="785" 
d="M334 793l61 173h132l-95 -173h-98zM581 739h114v-739h-68l-423 501v-501h-114v739h60l431 -505v505z" />
    <glyph glyph-name="nacute" unicode="&#x144;" horiz-adv-x="626" 
d="M261 624l60 170h130l-93 -170h-97zM71 0v539h108v-76q24 42 68.5 66t102.5 24q89 0 150.5 -58t61.5 -167v-328h-111v297q0 74 -35.5 114t-93.5 40q-62 0 -101.5 -43.5t-39.5 -112.5v-295h-110z" />
    <glyph glyph-name="uni0145" unicode="&#x145;" horiz-adv-x="785" 
d="M581 739h114v-739h-68l-423 501v-501h-114v739h60l431 -505v505zM404 -25q31 0 53 -22.5t22 -57.5q0 -85 -132 -174l-37 50q65 50 80 72q-24 2 -41 20.5t-17 43.5q0 28 21 48t51 20z" />
    <glyph glyph-name="uni0146" unicode="&#x146;" horiz-adv-x="626" 
d="M350 553q89 0 150.5 -58t61.5 -167v-328h-111v297q0 74 -35.5 114t-93.5 40q-62 0 -101.5 -43.5t-39.5 -112.5v-295h-110v539h108v-76q24 42 68.5 66t102.5 24zM323 -28q31 0 52.5 -22.5t21.5 -56.5q0 -85 -130 -172l-38 49q66 51 80 71q-23 2 -40.5 20t-17.5 43
q0 28 21 48t51 20z" />
    <glyph glyph-name="Ncaron" unicode="&#x147;" horiz-adv-x="785" 
d="M217 962h113l69 -88l70 88h114l-142 -168h-81zM581 739h114v-739h-68l-423 501v-501h-114v739h60l431 -505v505z" />
    <glyph glyph-name="ncaron" unicode="&#x148;" horiz-adv-x="626" 
d="M137 791h113l69 -89l70 89h114l-143 -168h-80zM71 0v539h108v-76q24 42 68.5 66t102.5 24q89 0 150.5 -58t61.5 -167v-328h-111v297q0 74 -35.5 114t-93.5 40q-62 0 -101.5 -43.5t-39.5 -112.5v-295h-110z" />
    <glyph glyph-name="napostrophe" unicode="&#x149;" horiz-adv-x="662" 
d="M-31 622l58 171h120l-85 -171h-93zM107 0v539h108v-76q24 42 68.5 66t101.5 24q90 0 151.5 -58t61.5 -167v-328h-111v297q0 74 -35.5 114t-93.5 40q-62 0 -101.5 -43.5t-39.5 -112.5v-295h-110z" />
    <glyph glyph-name="Eng" unicode="&#x14a;" horiz-adv-x="785" 
d="M581 739h114v-725q0 -127 -71 -196t-180 -69q-78 0 -147 40l38 100q49 -30 106 -30q61 0 100.5 40t39.5 114v32l-377 457v-502h-114v739h60l431 -517v517z" />
    <glyph glyph-name="eng" unicode="&#x14b;" horiz-adv-x="625" 
d="M332 -226l3 99q116 -9 116 106v326q0 70 -34.5 108t-92.5 38q-63 0 -103 -43.5t-40 -112.5v-295h-110v539h107v-70q24 38 69 61t102 23q89 0 150.5 -58.5t61.5 -167.5v-348q0 -114 -61.5 -166t-167.5 -39z" />
    <glyph glyph-name="Omacron" unicode="&#x14c;" horiz-adv-x="853" 
d="M251 810v98h348v-98h-348zM423 -12q-161 0 -270.5 109.5t-109.5 268.5q0 161 112 273.5t271 112.5q160 0 272 -112t112 -271t-112 -270t-275 -111zM426 101q111 0 187.5 76.5t76.5 190.5q0 116 -76.5 193t-187.5 77q-110 0 -186.5 -77.5t-76.5 -192.5q0 -113 75.5 -190
t187.5 -77z" />
    <glyph glyph-name="omacron" unicode="&#x14d;" horiz-adv-x="648" 
d="M168 635v99h314v-99h-314zM324 -14q-124 0 -204.5 82t-80.5 202q0 118 80.5 200.5t204.5 82.5t204.5 -82.5t80.5 -200.5q0 -120 -80.5 -202t-204.5 -82zM324 89q73 0 123.5 53t50.5 128q0 74 -50.5 127.5t-123.5 53.5t-123.5 -53.5t-50.5 -127.5q0 -75 50.5 -128
t123.5 -53z" />
    <glyph glyph-name="Obreve" unicode="&#x14e;" horiz-adv-x="853" 
d="M430 785q-80 0 -129 48t-52 130h93q2 -45 25 -70.5t63 -25.5q41 0 64 25.5t25 70.5h94q-3 -82 -52.5 -130t-130.5 -48zM423 -12q-161 0 -270.5 109.5t-109.5 268.5q0 161 112 273.5t271 112.5q160 0 272 -112t112 -271t-112 -270t-275 -111zM426 101q111 0 187.5 76.5
t76.5 190.5q0 116 -76.5 193t-187.5 77q-110 0 -186.5 -77.5t-76.5 -192.5q0 -113 75.5 -190t187.5 -77z" />
    <glyph glyph-name="obreve" unicode="&#x14f;" horiz-adv-x="648" 
d="M325 618q-79 0 -127.5 47t-51.5 128h92q2 -44 24.5 -69.5t62.5 -25.5t62.5 25.5t24.5 69.5h93q-3 -80 -52 -127.5t-128 -47.5zM324 -14q-124 0 -204.5 82t-80.5 202q0 118 80.5 200.5t204.5 82.5t204.5 -82.5t80.5 -200.5q0 -120 -80.5 -202t-204.5 -82zM324 89
q73 0 123.5 53t50.5 128q0 74 -50.5 127.5t-123.5 53.5t-123.5 -53.5t-50.5 -127.5q0 -75 50.5 -128t123.5 -53z" />
    <glyph glyph-name="Ohungarumlaut" unicode="&#x150;" horiz-adv-x="853" 
d="M290 795l42 173h130l-78 -173h-94zM476 795l52 173h132l-89 -173h-95zM423 -12q-161 0 -270.5 109.5t-109.5 268.5q0 161 112 273.5t271 112.5q160 0 272 -112t112 -271t-112 -270t-275 -111zM426 101q111 0 187.5 76.5t76.5 190.5q0 116 -76.5 193t-187.5 77
q-110 0 -186.5 -77.5t-76.5 -192.5q0 -113 75.5 -190t187.5 -77z" />
    <glyph glyph-name="ohungarumlaut" unicode="&#x151;" horiz-adv-x="648" 
d="M189 623l41 170h128l-77 -170h-92zM372 623l51 170h130l-88 -170h-93zM324 -14q-124 0 -204.5 82t-80.5 202q0 118 80.5 200.5t204.5 82.5t204.5 -82.5t80.5 -200.5q0 -120 -80.5 -202t-204.5 -82zM324 89q73 0 123.5 53t50.5 128q0 74 -50.5 127.5t-123.5 53.5
t-123.5 -53.5t-50.5 -127.5q0 -75 50.5 -128t123.5 -53z" />
    <glyph glyph-name="OE" unicode="&#x152;" horiz-adv-x="996" 
d="M941 630h-358v-201h331v-109h-331v-211h358v-109h-468q-36 -2 -52 -2q-188 0 -280.5 101t-92.5 269q0 169 91 271t274 102q17 0 51 -2h477v-109zM168 370q0 -114 60.5 -188t193.5 -74q14 0 46 2v519q-32 2 -46 2q-69 0 -120 -21.5t-79 -59t-41.5 -82.5t-13.5 -98z" />
    <glyph glyph-name="oe" unicode="&#x153;" horiz-adv-x="1071" 
d="M1034 280q0 -23 -4 -53h-421q12 -63 56.5 -102t122.5 -39q46 0 96.5 16t86.5 42l46 -81q-41 -32 -102.5 -53.5t-130.5 -21.5q-158 0 -235 106q-38 -50 -97 -78.5t-129 -28.5q-124 0 -204 82t-80 201q0 118 80 200t204 82q70 0 129 -28.5t97 -78.5q78 107 222 107
q115 0 189 -73.5t74 -198.5zM771 457q-62 0 -106 -38.5t-56 -101.5h314q-6 64 -48 102t-104 38zM323 90q68 0 117.5 47.5t54.5 117.5v16v15q-5 69 -54.5 116t-117.5 47q-72 0 -122.5 -52.5t-50.5 -126.5q0 -75 50.5 -127.5t122.5 -52.5z" />
    <glyph glyph-name="Racute" unicode="&#x154;" horiz-adv-x="652" 
d="M440 966l-95 -173h-99l62 173h132zM483 0l-180 290h-98v-290h-115v739h261q115 0 177 -66t62 -159q0 -73 -42.5 -132t-122.5 -81l197 -301h-139zM205 630v-233h128q70 0 104 34t34 84q0 49 -31.5 82t-88.5 33h-146z" />
    <glyph glyph-name="racute" unicode="&#x155;" horiz-adv-x="408" 
d="M175 624l60 170h130l-94 -170h-96zM71 0v539h105v-77q48 91 153 91q34 0 64 -9l-10 -107q-29 10 -59 10q-63 0 -103 -43t-40 -128v-276h-110z" />
    <glyph glyph-name="uni0156" unicode="&#x156;" horiz-adv-x="652" 
d="M425 301l197 -301h-139l-180 290h-98v-290h-115v739h261q115 0 177 -66t62 -159q0 -73 -42.5 -132t-122.5 -81zM205 630v-233h128q70 0 104 34t34 84q0 49 -31.5 82t-88.5 33h-146zM339 -27q31 0 53 -22.5t22 -57.5q0 -85 -132 -174l-37 50q64 49 80 71q-24 1 -41 20
t-17 44q0 29 20.5 49t51.5 20z" />
    <glyph glyph-name="uni0157" unicode="&#x157;" horiz-adv-x="410" 
d="M330 553q34 0 64 -9l-10 -107q-29 10 -59 10q-63 0 -103 -43t-40 -128v-276h-110v539h105v-77q48 91 153 91zM126 -38q31 0 52.5 -22.5t21.5 -56.5q0 -86 -130 -172l-37 49q64 49 80 71q-23 1 -40.5 19.5t-17.5 43.5q0 28 20.5 48t50.5 20z" />
    <glyph glyph-name="Rcaron" unicode="&#x158;" horiz-adv-x="652" 
d="M353 794h-80l-143 168h112l70 -88l69 88h115zM483 0l-180 290h-98v-290h-115v739h261q115 0 177 -66t62 -159q0 -73 -42.5 -132t-122.5 -81l197 -301h-139zM205 630v-233h128q70 0 104 34t34 84q0 49 -31.5 82t-88.5 33h-146z" />
    <glyph glyph-name="rcaron" unicode="&#x159;" horiz-adv-x="408" 
d="M47 791h112l70 -88l69 88h114l-142 -167h-81zM72 0v539h105v-77q48 91 153 91q34 0 64 -9l-10 -107q-29 10 -59 10q-63 0 -103 -43t-40 -128v-276h-110z" />
    <glyph glyph-name="Sacute" unicode="&#x15a;" horiz-adv-x="574" 
d="M233 793l61 173h132l-94 -173h-99zM285 -12q-81 0 -151 38t-110 109l78 75q31 -56 79.5 -84.5t103.5 -28.5q57 0 91.5 29.5t34.5 71.5q0 56 -73 95q-18 9 -74.5 33.5t-85.5 41.5q-112 68 -112 179q0 87 64 146t168 59q139 0 225 -106l-71 -79q-61 76 -153 76
q-48 0 -79 -24.5t-31 -65.5q0 -53 62 -88q19 -11 83 -40.5t91 -44.5q113 -62 113 -176q0 -95 -71 -155.5t-182 -60.5z" />
    <glyph glyph-name="sacute" unicode="&#x15b;" horiz-adv-x="465" 
d="M187 624l60 170h130l-93 -170h-97zM231 -13q-62 0 -117.5 28.5t-89.5 84.5l71 64q25 -40 62.5 -61t75.5 -21q39 0 64 19.5t25 47.5q0 39 -46 62q-14 7 -64.5 27.5t-68.5 30.5q-86 45 -86 133q0 67 50.5 111t133.5 44q116 0 177 -83l-64 -68q-48 59 -118 59q-34 0 -53 -17
t-19 -42q0 -39 45 -59q4 -2 55 -23t76 -34q92 -48 92 -136q0 -71 -56 -119t-145 -48z" />
    <glyph glyph-name="Scircumflex" unicode="&#x15c;" horiz-adv-x="574" 
d="M117 792l145 171h82l145 -171h-116l-71 90l-71 -90h-114zM285 -12q-81 0 -151 38t-110 109l78 75q31 -56 79.5 -84.5t103.5 -28.5q57 0 91.5 29.5t34.5 71.5q0 56 -73 95q-18 9 -74.5 33.5t-85.5 41.5q-112 68 -112 179q0 87 64 146t168 59q139 0 225 -106l-71 -79
q-61 76 -153 76q-48 0 -79 -24.5t-31 -65.5q0 -53 62 -88q19 -11 83 -40.5t91 -44.5q113 -62 113 -176q0 -95 -71 -155.5t-182 -60.5z" />
    <glyph glyph-name="scircumflex" unicode="&#x15d;" horiz-adv-x="464" 
d="M55 624l143 168h80l143 -168h-114l-70 88l-69 -88h-113zM231 -13q-62 0 -117.5 28.5t-89.5 84.5l71 64q25 -40 62.5 -61t75.5 -21q39 0 64 19.5t25 47.5q0 39 -46 62q-14 7 -64.5 27.5t-68.5 30.5q-86 45 -86 133q0 67 50.5 111t133.5 44q116 0 177 -83l-64 -68
q-48 59 -118 59q-34 0 -53 -17t-19 -42q0 -39 45 -59q4 -2 55 -23t76 -34q92 -48 92 -136q0 -71 -56 -119t-145 -48z" />
    <glyph glyph-name="Scedilla" unicode="&#x15e;" horiz-adv-x="574" 
d="M538 204q0 -87 -61 -146t-158 -68l-15 -38h4q44 0 75 -25t31 -70q0 -46 -35 -79.5t-100 -33.5q-54 0 -117 29l27 69q42 -21 81 -21q27 0 41.5 12t14.5 30q0 36 -54 36h-55l-8 23l28 70q-67 9 -123 45.5t-90 97.5l78 75q31 -56 79.5 -84.5t103.5 -28.5q57 0 91.5 29.5
t34.5 71.5q0 56 -73 95q-18 9 -74.5 33.5t-85.5 41.5q-112 68 -112 179q0 87 64 146t168 59q139 0 225 -106l-71 -79q-61 76 -153 76q-48 0 -79 -24.5t-31 -65.5q0 -53 62 -88q19 -11 83 -40.5t91 -44.5q113 -62 113 -176z" />
    <glyph glyph-name="scedilla" unicode="&#x15f;" horiz-adv-x="465" 
d="M432 154q0 -66 -48.5 -112.5t-128.5 -53.5l-14 -35h3q44 0 75 -25.5t31 -69.5q0 -46 -35 -80t-100 -34q-54 0 -117 29l27 69q46 -20 81 -20q27 0 41.5 11.5t14.5 29.5q0 36 -53 36h-56l-8 24l28 70q-100 24 -149 107l71 64q25 -40 62.5 -61t75.5 -21q39 0 64 19.5
t25 47.5q0 39 -46 62q-14 7 -64.5 27.5t-68.5 30.5q-86 45 -86 133q0 67 50.5 111t133.5 44q116 0 177 -83l-64 -68q-48 59 -118 59q-34 0 -53 -17t-19 -42q0 -39 45 -59q4 -2 55 -23t76 -34q92 -48 92 -136z" />
    <glyph glyph-name="Scaron" unicode="&#x160;" horiz-adv-x="574" 
d="M124 962h112l70 -89l69 89h115l-143 -168h-80zM285 -12q-81 0 -151 38t-110 109l78 75q31 -56 79.5 -84.5t103.5 -28.5q57 0 91.5 29.5t34.5 71.5q0 56 -73 95q-18 9 -74.5 33.5t-85.5 41.5q-112 68 -112 179q0 87 64 146t168 59q139 0 225 -106l-71 -79q-61 76 -153 76
q-48 0 -79 -24.5t-31 -65.5q0 -53 62 -88q19 -11 83 -40.5t91 -44.5q113 -62 113 -176q0 -95 -71 -155.5t-182 -60.5z" />
    <glyph glyph-name="scaron" unicode="&#x161;" horiz-adv-x="464" 
d="M56 791h113l69 -88l70 88h114l-143 -168h-80zM231 -13q-62 0 -117.5 28.5t-89.5 84.5l71 64q25 -40 62.5 -61t75.5 -21q39 0 64 19.5t25 47.5q0 39 -46 62q-14 7 -64.5 27.5t-68.5 30.5q-86 45 -86 133q0 67 50.5 111t133.5 44q116 0 177 -83l-64 -68q-48 59 -118 59
q-34 0 -53 -17t-19 -42q0 -39 45 -59q4 -2 55 -23t76 -34q92 -48 92 -136q0 -71 -56 -119t-145 -48z" />
    <glyph glyph-name="Tcaron" unicode="&#x164;" horiz-adv-x="577" 
d="M107 962h112l70 -88l69 88h114l-142 -168h-81zM230 627h-216v112h549v-112h-216v-627h-117v627z" />
    <glyph glyph-name="tcaron" unicode="&#x165;" horiz-adv-x="438" 
d="M498 794l-85 -171h-93l58 171h120zM302 88q44 0 95 30l38 -86q-60 -45 -149 -45q-88 0 -132.5 53t-44.5 153v252h-93v94h94v191h109v-191h186v-94h-186v-254q0 -103 83 -103z" />
    <glyph glyph-name="Tbar" unicode="&#x166;" horiz-adv-x="603" 
d="M576 627h-217v-193h151v-98h-151v-336h-116v336h-148v98h148v193h-216v112h549v-112z" />
    <glyph glyph-name="tbar" unicode="&#x167;" horiz-adv-x="445" 
d="M403 118l37 -86q-60 -45 -148 -45t-133 53t-45 153v70h-91v86h91v96h-92v94h93v191h109v-191h187v-94h-187v-96h184v-86h-184v-72q0 -103 84 -103q44 0 95 30z" />
    <glyph glyph-name="Utilde" unicode="&#x168;" horiz-adv-x="712" 
d="M233 798l-72 34q36 103 128 103q32 0 76.5 -22t62.5 -22q36 0 59 46l70 -33q-16 -49 -49 -76t-75 -27q-31 0 -75 22.5t-64 22.5q-37 0 -61 -48zM356 -13q-121 0 -197.5 71t-76.5 198v483h115v-468q0 -84 42 -127.5t117 -43.5q74 0 116 45t42 126v468h116v-483
q0 -128 -76 -198.5t-198 -70.5z" />
    <glyph glyph-name="utilde" unicode="&#x169;" horiz-adv-x="601" 
d="M176 624l-71 34q35 102 127 102q32 0 75.5 -22t61.5 -22q35 0 58 46l70 -33q-16 -48 -48.5 -75t-74.5 -27q-31 0 -74 22.5t-63 22.5q-37 0 -61 -48zM300 -13q-108 0 -172 63t-64 171v318h110v-317q0 -61 33.5 -97t92.5 -36q60 0 93 35.5t33 97.5v317h111v-318
q0 -110 -63 -172t-174 -62z" />
    <glyph glyph-name="Umacron" unicode="&#x16a;" horiz-adv-x="712" 
d="M181 811v98h348v-98h-348zM356 -13q-121 0 -197.5 71t-76.5 198v483h115v-468q0 -84 42 -127.5t117 -43.5q74 0 116 45t42 126v468h116v-483q0 -128 -76 -198.5t-198 -70.5z" />
    <glyph glyph-name="umacron" unicode="&#x16b;" horiz-adv-x="601" 
d="M144 636v98h313v-98h-313zM300 -13q-108 0 -172 63t-64 171v318h110v-317q0 -61 33.5 -97t92.5 -36q60 0 93 35.5t33 97.5v317h111v-318q0 -110 -63 -172t-174 -62z" />
    <glyph glyph-name="Ubreve" unicode="&#x16c;" horiz-adv-x="712" 
d="M356 785q-80 0 -129 48t-52 130h93q2 -45 25 -70.5t63 -25.5t63.5 25.5t25.5 70.5h94q-3 -82 -52.5 -130t-130.5 -48zM356 -13q-121 0 -197.5 71t-76.5 198v483h115v-468q0 -84 42 -127.5t117 -43.5q74 0 116 45t42 126v468h116v-483q0 -128 -76 -198.5t-198 -70.5z" />
    <glyph glyph-name="ubreve" unicode="&#x16d;" horiz-adv-x="601" 
d="M301 617q-78 0 -127 47t-52 128h92q2 -44 25 -69.5t62 -25.5t62 25.5t25 69.5h93q-3 -81 -52 -128t-128 -47zM300 -13q-108 0 -172 63t-64 171v318h110v-317q0 -61 33.5 -97t92.5 -36q60 0 93 35.5t33 97.5v317h111v-318q0 -110 -63 -172t-174 -62z" />
    <glyph glyph-name="Uring" unicode="&#x16e;" horiz-adv-x="712" 
d="M356 780q-52 0 -88 34.5t-36 83.5q0 50 36 85.5t88 35.5t88 -35.5t36 -85.5q0 -49 -36 -83.5t-88 -34.5zM356 846q22 0 38 15.5t16 39.5q0 22 -16 37t-38 15q-23 0 -39 -15t-16 -37q0 -24 16 -39.5t39 -15.5zM356 -13q-121 0 -197.5 71t-76.5 198v483h115v-468
q0 -84 42 -127.5t117 -43.5q74 0 116 45t42 126v468h116v-483q0 -128 -76 -198.5t-198 -70.5z" />
    <glyph glyph-name="uring" unicode="&#x16f;" horiz-adv-x="601" 
d="M300 593q-51 0 -86 33.5t-35 82.5q0 50 35 84t86 34q52 0 87 -34t35 -84q0 -49 -35 -82.5t-87 -33.5zM300 657q22 0 37.5 15.5t15.5 38.5q0 22 -15.5 37t-37.5 15t-38 -15t-16 -37q0 -23 16 -38.5t38 -15.5zM300 -13q-108 0 -172 63t-64 171v318h110v-317q0 -61 33.5 -97
t92.5 -36q60 0 93 35.5t33 97.5v317h111v-318q0 -110 -63 -172t-174 -62z" />
    <glyph glyph-name="Uhungarumlaut" unicode="&#x170;" horiz-adv-x="712" 
d="M213 795l42 173h130l-78 -173h-94zM399 795l52 173h132l-89 -173h-95zM356 -13q-121 0 -197.5 71t-76.5 198v483h115v-468q0 -84 42 -127.5t117 -43.5q74 0 116 45t42 126v468h116v-483q0 -128 -76 -198.5t-198 -70.5z" />
    <glyph glyph-name="uhungarumlaut" unicode="&#x171;" horiz-adv-x="599" 
d="M155 623l41 170h129l-78 -170h-92zM338 623l51 170h130l-87 -170h-94zM300 -13q-108 0 -172 63t-64 171v318h110v-317q0 -61 33.5 -97t92.5 -36q60 0 93 35.5t33 97.5v317h111v-318q0 -110 -63 -172t-174 -62z" />
    <glyph glyph-name="Uogonek" unicode="&#x172;" horiz-adv-x="712" 
d="M514 739h116v-483q0 -96 -45 -161t-122 -91q-45 -21 -73.5 -54.5t-28.5 -65.5q0 -21 12.5 -34t32.5 -13q18 0 42 12l35 -75q-46 -29 -99 -29q-54 0 -86.5 31.5t-32.5 79.5q0 74 76 131q-115 5 -187 75.5t-72 193.5v483h115v-468q0 -84 42 -127.5t117 -43.5q74 0 116 45
t42 126v468z" />
    <glyph glyph-name="uogonek" unicode="&#x173;" horiz-adv-x="601" 
d="M426 539h111v-318q0 -83 -37.5 -140t-105.5 -80q-46 -20 -76.5 -54.5t-30.5 -67.5q0 -21 12.5 -34t32.5 -13q18 0 42 12l35 -75q-48 -29 -99 -29q-54 0 -86.5 31.5t-32.5 79.5q0 78 84 137q-98 8 -154.5 69.5t-56.5 163.5v318h110v-317q0 -61 33.5 -97t92.5 -36
q60 0 93 35.5t33 97.5v317z" />
    <glyph glyph-name="Wcircumflex" unicode="&#x174;" horiz-adv-x="1041" 
d="M336 793l145 170h81l145 -170h-116l-70 90l-71 -90h-114zM260 0l-251 739h124l169 -527l187 527h61l191 -527l166 527h124l-250 -739h-77l-183 530l-182 -530h-79z" />
    <glyph glyph-name="wcircumflex" unicode="&#x175;" horiz-adv-x="852" 
d="M244 623l143 168h80l143 -168h-114l-70 89l-70 -89h-112zM194 1l-184 538h116l121 -387l139 387h78l143 -387l117 387h116l-181 -538h-94l-140 382l-137 -382h-94z" />
    <glyph glyph-name="Ycircumflex" unicode="&#x176;" horiz-adv-x="652" 
d="M140 793l145 170h81l145 -170h-116l-71 90l-70 -90h-114zM637 739l-254 -476v-263h-115v263l-251 476h130l179 -358l181 358h130z" />
    <glyph glyph-name="ycircumflex" unicode="&#x177;" horiz-adv-x="569" 
d="M291 710l-70 -89h-112l143 168h80l143 -168h-114zM435 539h121l-223 -588q-36 -95 -84 -137.5t-117 -42.5q-57 0 -92 23l16 95q38 -17 67 -17q66 0 106 92l17 40l-234 535h127l158 -389z" />
    <glyph glyph-name="Ydieresis" unicode="&#x178;" horiz-adv-x="652" 
d="M231 803q-29 0 -49 19.5t-20 49.5q0 28 20 47.5t49 19.5t48.5 -19.5t19.5 -47.5q0 -30 -19.5 -49.5t-48.5 -19.5zM422 803q-30 0 -49.5 19.5t-19.5 49.5q0 28 20 47.5t49 19.5q28 0 47.5 -19.5t19.5 -47.5q0 -30 -19.5 -49.5t-47.5 -19.5zM637 739l-254 -476v-263h-115
v263l-251 476h130l179 -358l181 358h130z" />
    <glyph glyph-name="Zacute" unicode="&#x179;" horiz-adv-x="628" 
d="M266 794l61 173h132l-95 -173h-98zM32 0v76l391 555h-374v108h533v-78l-384 -553h395v-108h-561z" />
    <glyph glyph-name="zacute" unicode="&#x17a;" horiz-adv-x="518" 
d="M201 624l60 170h130l-93 -170h-97zM181 94h303v-94h-453v73l295 371h-279v94h428v-69z" />
    <glyph glyph-name="Zdotaccent" unicode="&#x17b;" horiz-adv-x="628" 
d="M321 797q-32 0 -54 21.5t-22 53.5q0 31 22 52t54 21q31 0 52.5 -21t21.5 -52q0 -32 -21.5 -53.5t-52.5 -21.5zM32 0v76l391 555h-374v108h533v-78l-384 -553h395v-108h-561z" />
    <glyph glyph-name="zdotaccent" unicode="&#x17c;" horiz-adv-x="518" 
d="M268 611q-32 0 -53.5 21t-21.5 53q0 31 21.5 52.5t53.5 21.5q31 0 52.5 -21.5t21.5 -52.5q0 -32 -21.5 -53t-52.5 -21zM181 94h303v-94h-453v73l295 371h-279v94h428v-69z" />
    <glyph glyph-name="Zcaron" unicode="&#x17d;" horiz-adv-x="628" 
d="M140 963h112l70 -89l69 89h114l-142 -168h-81zM32 0v76l391 555h-374v108h533v-78l-384 -553h395v-108h-561z" />
    <glyph glyph-name="zcaron" unicode="&#x17e;" horiz-adv-x="518" 
d="M76 792h113l69 -89l70 89h114l-143 -168h-80zM181 94h303v-94h-453v73l295 371h-279v94h428v-69z" />
    <glyph glyph-name="uni0218" unicode="&#x218;" horiz-adv-x="574" 
d="M425 380q113 -62 113 -176q0 -95 -71 -155.5t-182 -60.5q-81 0 -151 38t-110 109l78 75q31 -56 79.5 -84.5t103.5 -28.5q57 0 91.5 29.5t34.5 71.5q0 56 -73 95q-18 9 -74.5 33.5t-85.5 41.5q-112 68 -112 179q0 87 64 146t168 59q139 0 225 -106l-71 -79q-61 76 -153 76
q-48 0 -79 -24.5t-31 -65.5q0 -53 62 -88q19 -11 83 -40.5t91 -44.5zM286 -42q31 0 53 -23t22 -57q0 -87 -132 -174l-37 50q64 49 80 71q-24 1 -41 20t-17 44q0 28 21 48.5t51 20.5z" />
    <glyph glyph-name="uni0219" unicode="&#x219;" horiz-adv-x="465" 
d="M340 290q92 -48 92 -136q0 -71 -56 -119t-145 -48q-62 0 -117.5 28.5t-89.5 84.5l71 64q25 -40 62.5 -61t75.5 -21q39 0 64 19.5t25 47.5q0 39 -46 62q-14 7 -64.5 27.5t-68.5 30.5q-86 45 -86 133q0 67 50.5 111t133.5 44q116 0 177 -83l-64 -68q-48 59 -118 59
q-34 0 -53 -17t-19 -42q0 -39 45 -59q4 -2 55 -23t76 -34zM235 -48q31 0 52.5 -22.5t21.5 -56.5q0 -86 -130 -172l-37 49q64 49 80 71q-23 1 -40.5 19.5t-17.5 43.5q0 28 20.5 48t50.5 20z" />
    <glyph glyph-name="uni021A" unicode="&#x21a;" horiz-adv-x="577" 
d="M14 739h549v-112h-216v-627h-117v627h-216v112zM286 -29q31 0 53.5 -22.5t22.5 -57.5q0 -85 -132 -174l-38 50q65 50 80 72q-24 2 -41 20.5t-17 43.5q0 28 21 48t51 20z" />
    <glyph glyph-name="uni021B" unicode="&#x21b;" horiz-adv-x="438" 
d="M435 32q-60 -45 -149 -45q-88 0 -132.5 53t-44.5 153v252h-93v94h94v191h109v-191h186v-94h-186v-254q0 -103 83 -103q44 0 95 30zM271 -53q31 0 53 -22.5t22 -56.5q0 -84 -131 -172l-37 49q62 50 79 71q-23 2 -40 20t-17 43q0 28 20.5 48t50.5 20z" />
    <glyph glyph-name="uni0237" unicode="&#x237;" horiz-adv-x="277" 
d="M18 -230q-68 0 -105 24l22 90q40 -14 68 -14q92 0 92 109v560h110v-558q0 -104 -50.5 -157.5t-136.5 -53.5z" />
    <glyph glyph-name="circumflex" unicode="&#x2c6;" horiz-adv-x="569" 
d="M38 622l143 168h80l143 -168h-114l-70 89l-69 -89h-113z" />
    <glyph glyph-name="caron" unicode="&#x2c7;" horiz-adv-x="548" 
d="M38 792h113l69 -89l70 89h114l-143 -168h-80z" />
    <glyph glyph-name="breve" unicode="&#x2d8;" horiz-adv-x="453" 
d="M219 616q-79 0 -127.5 47t-51.5 128h92q2 -44 24.5 -69.5t62.5 -25.5t62.5 25.5t24.5 69.5h92q-2 -81 -51 -128t-128 -47z" />
    <glyph glyph-name="dotaccent" unicode="&#x2d9;" horiz-adv-x="300" 
d="M116 610q-32 0 -54 21.5t-22 53.5q0 31 22 52t54 21q31 0 52 -21t21 -52q0 -32 -21 -53.5t-52 -21.5z" />
    <glyph glyph-name="ring" unicode="&#x2da;" horiz-adv-x="380" 
d="M162 599q-51 0 -86.5 33.5t-35.5 82.5t35.5 83.5t86.5 34.5t86 -34t35 -84q0 -49 -35 -82.5t-86 -33.5zM162 663q21 0 37 15.5t16 38.5q0 21 -16 36.5t-37 15.5q-23 0 -38.5 -15t-15.5 -37q0 -23 15.5 -38.5t38.5 -15.5z" />
    <glyph glyph-name="ogonek" unicode="&#x2db;" horiz-adv-x="376" 
d="M223 -157l35 -75q-48 -29 -99 -29q-54 0 -86.5 31.5t-32.5 79.5q0 100 135 167l68 -17q-47 -20 -77.5 -54.5t-30.5 -67.5q0 -21 13 -34t33 -13q16 0 42 12z" />
    <glyph glyph-name="tilde" unicode="&#x2dc;" horiz-adv-x="545" 
d="M111 642l-71 34q35 102 127 102q32 0 75.5 -22t61.5 -22q36 0 58 45l70 -32q-16 -49 -48.5 -75.5t-74.5 -26.5q-31 0 -74 22t-63 22q-38 0 -61 -47z" />
    <glyph glyph-name="hungarumlaut" unicode="&#x2dd;" horiz-adv-x="526" 
d="M49 620l41 170h128l-77 -170h-92zM232 620l51 170h130l-87 -170h-94z" />
    <glyph glyph-name="uni0394" unicode="&#x394;" horiz-adv-x="741" 
d="M22 0v82l307 657h84l306 -657v-82h-697zM152 108h437l-219 494z" />
    <glyph glyph-name="uni03A9" unicode="&#x3a9;" horiz-adv-x="864" 
d="M54 0v102h160q-71 41 -113 119t-42 169q0 151 108 256.5t265 105.5t265 -105.5t108 -256.5q0 -91 -42 -169t-113 -119h160v-102h-326v100q90 32 145 109t55 172q0 110 -72 182.5t-180 72.5t-180 -72.5t-72 -182.5q0 -95 55 -172t145 -109v-100h-326z" />
    <glyph glyph-name="uni03BC" unicode="&#x3bc;" horiz-adv-x="631" 
d="M450 535h110v-535h-105v79q-50 -90 -156 -90q-76 0 -119 54v-261h-109v753h110v-300q0 -72 33.5 -108.5t92.5 -36.5q64 0 103.5 43.5t39.5 123.5v278z" />
    <glyph glyph-name="pi" unicode="&#x3c0;" horiz-adv-x="626" 
d="M113 0v439h-83v96h566v-96h-83v-439h-111v439h-179v-439h-110z" />
    <glyph glyph-name="uni0401" unicode="&#x401;" 
d="M237 803q-29 0 -49 19.5t-20 49.5q0 28 20 47.5t49 19.5t48.5 -19.5t19.5 -47.5q0 -30 -19.5 -49.5t-48.5 -19.5zM428 803q-29 0 -49 19.5t-20 49.5q0 28 20 47.5t49 19.5q28 0 47.5 -19.5t19.5 -47.5q0 -30 -19.5 -49.5t-47.5 -19.5zM90 0v739h472v-109h-357v-201h331
v-109h-331v-211h358v-109h-473z" />
    <glyph glyph-name="uni0410" unicode="&#x410;" horiz-adv-x="681" 
d="M546 0l-70 182h-272l-70 -182h-124l294 739h75l291 -739h-124zM341 556l-100 -268h200z" />
    <glyph glyph-name="uni0411" unicode="&#x411;" horiz-adv-x="654" 
d="M357 463q62 0 110.5 -16.5t76.5 -41.5t46 -58t24 -62t6 -58q0 -95 -66.5 -161t-186.5 -66h-277v739h464v-105h-350v-171h153zM348 105q74 0 113 36t39 90q0 52 -36 89t-110 37h-150v-252h144z" />
    <glyph glyph-name="uni0412" unicode="&#x412;" horiz-adv-x="678" 
d="M496 404q68 -18 104 -71t36 -120q0 -87 -62 -150t-169 -63h-315v739h301q97 0 151.5 -55t54.5 -129q0 -50 -27.5 -92t-73.5 -59zM374 634h-170v-191h166q52 0 81 29.5t29 69.5q0 38 -28.5 65t-77.5 27zM385 105q61 0 96 35t35 82q0 49 -34.5 84t-99.5 35h-178v-236h181z
" />
    <glyph glyph-name="uni0413" unicode="&#x413;" horiz-adv-x="547" 
d="M90 0v739h444v-106h-330v-633h-114z" />
    <glyph glyph-name="uni0414" unicode="&#x414;" horiz-adv-x="773" 
d="M662 106h81v-256h-113v150h-487v-150h-113v256h80l236 633h84zM231 106h310l-154 455z" />
    <glyph glyph-name="uni0415" unicode="&#x415;" 
d="M90 0v739h472v-109h-357v-201h331v-109h-331v-211h358v-109h-473z" />
    <glyph glyph-name="uni0416" unicode="&#x416;" horiz-adv-x="1008" 
d="M985 104l6 -100q-35 -15 -75 -15q-39 0 -69 12t-56.5 41.5t-44.5 57.5t-49 83q-11 20 -17 30q-38 66 -56 83q-21 18 -44 18h-18v-316h-115v316h-19q-8 0 -14.5 -1.5t-13 -5.5t-11.5 -7t-11.5 -11t-10 -12t-10 -14.5t-9.5 -15t-10 -17.5t-10 -17q-6 -11 -19 -33
q-32 -56 -48.5 -81.5t-43.5 -56t-56.5 -42t-68.5 -11.5t-74 15l6 100q23 -8 53 -8q40 0 69.5 35.5t117.5 185.5q16 31 43 51q-19 14 -35.5 37t-25.5 41t-21.5 47t-17.5 40q-31 63 -51.5 86t-59.5 23q-16 0 -42 -6l-14 97q34 17 72 17q73 0 112.5 -43t91.5 -161
q5 -12 14.5 -34.5t13 -30t11.5 -21t13.5 -18t15.5 -10.5t22 -7.5t28 -1.5h13v314h115v-314h12q16 0 28 1.5t22 7.5t15.5 10.5t13.5 18t11.5 21t13 30t14.5 34.5q28 61 45.5 93.5t41.5 61t51.5 39t66.5 10.5q37 0 71 -17l-14 -97q-26 6 -42 6q-38 0 -58.5 -22.5t-52.5 -86.5
q-4 -8 -22.5 -50.5t-35 -71t-37.5 -47.5q20 -16 39 -47q87 -149 117 -185t69 -36q30 0 54 8z" />
    <glyph glyph-name="uni0417" unicode="&#x417;" horiz-adv-x="603" 
d="M273 -12q-132 0 -253 75l47 94q109 -64 210 -64q72 0 115.5 33.5t43.5 86.5q0 52 -41.5 82.5t-110.5 30.5h-128v102h108q67 0 110 32t43 82q0 47 -39 75.5t-96 28.5q-89 0 -189 -64l-53 84q48 40 115.5 63t135.5 23q109 0 176 -56.5t67 -138.5q0 -56 -32 -98.5t-93 -63.5
v-4q69 -16 107.5 -64.5t38.5 -117.5q0 -97 -76.5 -159t-205.5 -62z" />
    <glyph glyph-name="uni0418" unicode="&#x418;" horiz-adv-x="780" 
d="M90 0v739h114v-535l419 535h68v-739h-114v531l-417 -531h-70z" />
    <glyph glyph-name="uni0419" unicode="&#x419;" horiz-adv-x="780" 
d="M399 776q-120 0 -205 107l60 64q37 -45 71 -63.5t74 -18.5q78 0 145 82l62 -64q-90 -107 -207 -107zM90 0v739h114v-535l419 535h68v-739h-114v531l-417 -531h-70z" />
    <glyph glyph-name="uni041A" unicode="&#x41a;" horiz-adv-x="675" 
d="M545 0l-242 314l-98 -117v-197h-115v739h115v-385l320 385h138l-285 -344l309 -395h-142z" />
    <glyph glyph-name="uni041B" unicode="&#x41b;" horiz-adv-x="656" 
d="M13 0l275 739h84l271 -739h-126l-188 547l-190 -547h-126z" />
    <glyph glyph-name="uni041C" unicode="&#x41c;" horiz-adv-x="925" 
d="M90 0v739h63l310 -453l308 453h65v-739h-116v473l-241 -352h-34l-241 352v-473h-114z" />
    <glyph glyph-name="uni041D" unicode="&#x41d;" horiz-adv-x="762" 
d="M90 0v739h115v-307h352v307h115v-739h-115v321h-352v-321h-115z" />
    <glyph glyph-name="uni041E" unicode="&#x41e;" horiz-adv-x="853" 
d="M423 -12q-161 0 -270.5 109.5t-109.5 268.5q0 161 112 273.5t271 112.5q160 0 272 -112t112 -271t-112 -270t-275 -111zM426 101q111 0 187.5 76.5t76.5 190.5q0 116 -76.5 193t-187.5 77q-110 0 -186.5 -77.5t-76.5 -192.5q0 -113 75.5 -190t187.5 -77z" />
    <glyph glyph-name="uni041F" unicode="&#x41f;" horiz-adv-x="762" 
d="M90 0v739h582v-739h-115v628h-352v-628h-115z" />
    <glyph glyph-name="uni0420" unicode="&#x420;" 
d="M345 739q121 0 183.5 -68.5t62.5 -165.5t-65 -164t-191 -67h-130v-274h-115v739h255zM338 380q67 0 101.5 37.5t34.5 89.5t-32.5 88t-91.5 36h-145v-251h133z" />
    <glyph glyph-name="uni0421" unicode="&#x421;" horiz-adv-x="773" 
d="M424 -11q-160 0 -270 106t-110 272q0 168 112 276.5t271 108.5q100 0 185 -43.5t133 -115.5l-82 -74q-91 121 -233 121q-112 0 -189.5 -78t-77.5 -195t76 -192t190 -75q146 0 238 120l82 -72q-52 -71 -137.5 -115t-187.5 -44z" />
    <glyph glyph-name="uni0422" unicode="&#x422;" horiz-adv-x="577" 
d="M230 627h-216v112h549v-112h-216v-627h-117v627z" />
    <glyph glyph-name="uni0423" unicode="&#x423;" horiz-adv-x="611" 
d="M125 -12q-47 0 -83 19l10 98q34 -14 61 -14q25 0 47 11.5t41.5 36t32.5 45.5t31 56l-239 498h134l166 -373l156 373h130q-29 -65 -79 -177t-90.5 -200.5t-76.5 -163.5q-22 -46 -42.5 -79t-49.5 -65t-66.5 -48.5t-82.5 -16.5z" />
    <glyph glyph-name="uni0424" unicode="&#x424;" horiz-adv-x="924" 
d="M884 371q0 -149 -102 -250.5t-262 -112.5v-88h-116v88q-160 12 -262 113.5t-102 249.5q0 147 102.5 248.5t261.5 112.5v87h116v-87q159 -11 261.5 -112.5t102.5 -248.5zM520 115q111 8 179 77.5t68 177.5q0 107 -68 176.5t-179 78.5v-510zM157 370q0 -107 68 -177
t179 -78v510q-111 -10 -179 -79.5t-68 -175.5z" />
    <glyph glyph-name="uni0425" unicode="&#x425;" horiz-adv-x="641" 
d="M7 0l243 374l-230 365h134l167 -277l170 277h138l-239 -365l240 -374h-134l-175 282l-176 -282h-138z" />
    <glyph glyph-name="uni0426" unicode="&#x426;" horiz-adv-x="724" 
d="M565 -150v150h-475v739h115v-628h286v628h116v-628h73v-261h-115z" />
    <glyph glyph-name="uni0427" unicode="&#x427;" horiz-adv-x="686" 
d="M480 739h116v-739h-116v252q-90 -33 -168 -33q-121 0 -191.5 61t-70.5 188v271h116v-244q0 -88 37 -125.5t114 -37.5t163 32v375z" />
    <glyph glyph-name="uni0428" unicode="&#x428;" horiz-adv-x="1091" 
d="M90 0v739h115v-628h283v628h115v-628h283v628h115v-739h-911z" />
    <glyph glyph-name="uni0429" unicode="&#x429;" horiz-adv-x="1118" 
d="M960 -150v150h-870v739h115v-628h283v628h115v-628h283v628h115v-628h74v-261h-115z" />
    <glyph glyph-name="uni042A" unicode="&#x42a;" horiz-adv-x="751" 
d="M459 499q113 0 188 -67t75 -186q0 -104 -67 -175t-198 -71h-265v634h-177v105h291v-270q74 30 153 30zM437 107q83 0 124 38.5t41 104.5q0 70 -41 105.5t-113 35.5q-70 0 -142 -31v-253h131z" />
    <glyph glyph-name="uni042B" unicode="&#x42b;" horiz-adv-x="923" 
d="M358 478q62 0 110 -16.5t76.5 -42t46.5 -59.5t24.5 -64t6.5 -61q0 -99 -66 -167t-187 -68h-277v739h114v-261h152zM718 739h116v-739h-116v739zM350 106q74 0 113 37.5t39 96.5q0 56 -36.5 94t-110.5 38h-149v-266h144z" />
    <glyph glyph-name="uni042C" unicode="&#x42c;" horiz-adv-x="649" 
d="M357 499q113 0 188 -67t75 -186q0 -104 -67 -175t-198 -71h-265v739h114v-270q74 30 153 30zM335 107q83 0 124 38.5t41 104.5q0 70 -41 105.5t-113 35.5q-70 0 -142 -31v-253h131z" />
    <glyph glyph-name="uni042D" unicode="&#x42d;" horiz-adv-x="777" 
d="M350 752q159 0 271 -108.5t112 -276.5q0 -166 -110 -272t-270 -106q-102 0 -187 44t-138 115l82 72q92 -120 238 -120q100 0 173 60t89 156h-407v107h406q-19 96 -92 156.5t-170 60.5q-141 0 -233 -121l-82 74q48 72 133 115.5t185 43.5z" />
    <glyph glyph-name="uni042E" unicode="&#x42e;" horiz-adv-x="1114" 
d="M688 752q159 0 271 -112t112 -271t-112 -270t-274 -111q-147 0 -252.5 92.5t-124.5 232.5h-103v-313h-115v739h115v-315h104q21 141 128 234.5t251 93.5zM688 101q111 0 187 76.5t76 190.5q0 116 -76 193t-187 77q-110 0 -186.5 -77.5t-76.5 -192.5q0 -113 75.5 -190
t187.5 -77z" />
    <glyph glyph-name="uni042F" unicode="&#x42f;" horiz-adv-x="656" 
d="M567 739v-739h-114v275q-59 -11 -124 -11l-158 -264h-137l177 280q-78 25 -115 85.5t-37 135.5q0 101 66 169.5t195 68.5h247zM335 370q71 0 118 10v251h-123q-79 0 -116 -35.5t-37 -93.5q0 -132 158 -132z" />
    <glyph glyph-name="uni0430" unicode="&#x430;" horiz-adv-x="669" 
d="M492 539h106v-539h-106v74q-74 -87 -184 -87q-116 0 -192.5 82t-76.5 204q0 121 76.5 200t192.5 79q110 0 184 -88v75zM323 88q76 0 125 53t49 129q0 75 -49 128t-125 53q-77 0 -125 -52.5t-48 -129.5q0 -76 48 -128.5t125 -52.5z" />
    <glyph glyph-name="uni0431" unicode="&#x431;" horiz-adv-x="675" 
d="M369 529q105 0 185.5 -72.5t80.5 -194.5q0 -118 -78.5 -197t-206.5 -79q-102 0 -172.5 55t-101 140t-30.5 191q0 146 61.5 236.5t178.5 117.5q22 5 64 12t63.5 13t58 23.5t73.5 47.5l43 -96q-28 -29 -63.5 -46.5t-61.5 -24t-106 -23.5q-48 -11 -75 -21t-58 -33.5t-48 -67
t-23 -110.5q30 62 89 95.5t127 33.5zM352 87q73 0 122 51t49 123q0 71 -49 120.5t-119 49.5q-69 0 -120 -47.5t-51 -120.5q0 -70 47.5 -123t120.5 -53z" />
    <glyph glyph-name="uni0432" unicode="&#x432;" horiz-adv-x="629" 
d="M455 417q62 -17 98 -69.5t36 -127.5q0 -100 -69.5 -166.5t-190.5 -66.5q-125 0 -197 77.5t-72 232.5v179q0 138 71.5 218.5t194.5 80.5q105 0 167.5 -56t62.5 -152q0 -47 -28 -91t-73 -59zM326 673q-68 0 -112 -54t-44 -162v-8h153q64 0 93.5 33t29.5 79q0 52 -31.5 82
t-88.5 30zM331 88q68 0 107.5 38.5t39.5 98.5q0 54 -33.5 90t-104.5 36h-170v-53q0 -62 14.5 -105.5t40 -65t51 -30.5t55.5 -9z" />
    <glyph glyph-name="uni0433" unicode="&#x433;" horiz-adv-x="500" 
d="M242 -13q-96 0 -152.5 38t-56.5 110q0 52 30.5 89t73.5 56.5t86.5 35.5t74 36.5t30.5 47.5q0 25 -22 40.5t-67 15.5q-70 0 -157 -31l-26 89q93 38 196 38q87 0 143.5 -36t56.5 -104q0 -49 -30.5 -83.5t-73.5 -53t-86 -34t-73.5 -38.5t-30.5 -55q0 -64 99 -64q93 0 183 45
l28 -89q-111 -53 -226 -53z" />
    <glyph glyph-name="uni0434" unicode="&#x434;" horiz-adv-x="669" 
d="M493 539h106v-478q0 -143 -78.5 -217t-221.5 -74q-101 0 -214 39l24 93q94 -33 186 -33q195 0 195 171v39q-70 -80 -181 -80q-117 0 -193.5 79t-76.5 198t79.5 197.5t195.5 78.5q107 0 179 -82v69zM323 97q75 0 124 51t49 127q0 77 -49 127t-124 50q-74 0 -123 -50.5
t-49 -126.5q0 -77 49 -127.5t123 -50.5z" />
    <glyph glyph-name="uni0435" unicode="&#x435;" horiz-adv-x="616" 
d="M579 280q0 -23 -4 -53h-421q12 -63 56.5 -102t122.5 -39q46 0 96.5 16t86.5 42l46 -81q-41 -31 -103 -53t-130 -22q-73 0 -130 24t-91 64.5t-51 90t-17 104.5q0 122 76.5 201.5t198.5 79.5q116 0 190 -73t74 -199zM315 457q-62 0 -105.5 -38.5t-55.5 -101.5h314
q-7 64 -49.5 102t-103.5 38z" />
    <glyph glyph-name="uni0436" unicode="&#x436;" horiz-adv-x="852" 
d="M829 87l5 -84q-34 -12 -66 -12q-35 0 -61.5 9t-47.5 30t-34 39.5t-34 52.5q-2 3 -3 5t-3 5t-3 5q-16 25 -21.5 33t-18 23t-23.5 20t-25 5h-16v-220h-104v220h-16q-14 0 -25 -5t-23.5 -20t-18 -23t-21.5 -33q-47 -77 -68 -99q-46 -47 -118 -47q-33 0 -66 12l4 84
q24 -6 46 -6q7 0 12.5 1t10.5 2.5t10.5 5.5t10 7.5t11 11.5t12 14.5t14.5 20t16.5 24t21 30t24.5 35.5q15 21 32 34q-7 5 -14 10.5t-12 10.5t-11 13.5t-8.5 12.5t-8 15t-6.5 14t-6.5 15.5t-6.5 14.5q-11 25 -16.5 36t-15.5 25t-22.5 19t-30.5 5q-12 0 -36 -5l-12 82
q30 13 63 13q65 0 98 -29t62 -98q3 -6 8.5 -20.5t7.5 -19t7 -15.5t7.5 -14t7.5 -10.5t9 -9.5t10.5 -6.5t13 -5.5t14.5 -2t18 -1h11v222h104v-222h11q10 0 18 1t14.5 2t13 5.5t10.5 6.5t9 9.5t7.5 10.5t7.5 14t7 15.5t7.5 19t8.5 20.5q29 69 62 98t97 29q34 0 64 -13l-12 -82
q-24 5 -36 5q-18 0 -30.5 -5t-22.5 -19t-15.5 -25t-16.5 -36q-1 -2 -6.5 -14.5t-6.5 -15.5t-6.5 -14t-8 -15t-8.5 -12.5t-11 -13.5t-12 -10.5t-14 -10.5q17 -13 32 -34q76 -114 93 -131q21 -21 50 -21q22 0 45 6z" />
    <glyph glyph-name="uni0437" unicode="&#x437;" horiz-adv-x="549" 
d="M253 -228q-131 0 -242 79l44 87q94 -66 186 -66q72 0 115.5 36.5t43.5 94.5q0 56 -40 87t-105 31h-116v99h80q76 0 118.5 34.5t42.5 87.5q0 51 -37.5 80.5t-94.5 29.5q-83 0 -171 -68l-55 77q43 39 108 65t131 26q100 0 166 -57.5t66 -140.5q0 -56 -32 -101t-90 -67v-4
q65 -14 104 -66t39 -122q0 -95 -71.5 -158.5t-189.5 -63.5z" />
    <glyph glyph-name="uni0438" unicode="&#x438;" horiz-adv-x="639" 
d="M568 539v-539h-106v77q-23 -39 -74.5 -64.5t-114.5 -25.5q-90 0 -149 54.5t-59 173.5v324h110v-314q0 -67 31.5 -101.5t91.5 -34.5q74 0 117 44.5t43 124.5v281h110z" />
    <glyph glyph-name="uni0439" unicode="&#x439;" horiz-adv-x="639" 
d="M321 576q-107 0 -184 97l54 57q61 -73 130 -73t130 73l56 -57q-81 -97 -186 -97zM568 539v-539h-106v77q-23 -39 -74.5 -64.5t-114.5 -25.5q-90 0 -149 54.5t-59 173.5v324h110v-314q0 -67 31.5 -101.5t91.5 -34.5q74 0 117 44.5t43 124.5v281h110z" />
    <glyph glyph-name="uni043A" unicode="&#x43a;" horiz-adv-x="557" 
d="M422 0l-194 245l-47 -43v-202h-110v758h110v-427l227 208h145l-248 -224l259 -315h-142z" />
    <glyph glyph-name="uni043B" unicode="&#x43b;" horiz-adv-x="580" 
d="M10 0l239 539h85l236 -539h-121l-157 385l-160 -385h-122z" />
    <glyph glyph-name="uni043C" unicode="&#x43c;" horiz-adv-x="774" 
d="M71 0v539h71l246 -320l243 320h72v-539h-109v327l-190 -246h-35l-190 246v-327h-108z" />
    <glyph glyph-name="uni043D" unicode="&#x43d;" horiz-adv-x="617" 
d="M436 539h110v-539h-110v223h-255v-223h-110v539h110v-218h255v218z" />
    <glyph glyph-name="uni043E" unicode="&#x43e;" horiz-adv-x="648" 
d="M324 -14q-124 0 -204.5 82t-80.5 202q0 118 80.5 200.5t204.5 82.5t204.5 -82.5t80.5 -200.5q0 -120 -80.5 -202t-204.5 -82zM324 89q73 0 123.5 53t50.5 128q0 74 -50.5 127.5t-123.5 53.5t-123.5 -53.5t-50.5 -127.5q0 -75 50.5 -128t123.5 -53z" />
    <glyph glyph-name="uni043F" unicode="&#x43f;" horiz-adv-x="626" 
d="M71 0v539h108v-76q24 42 68.5 66t102.5 24q89 0 150.5 -58t61.5 -167v-328h-111v297q0 74 -35.5 114t-93.5 40q-62 0 -101.5 -43.5t-39.5 -112.5v-295h-110z" />
    <glyph glyph-name="uni0440" unicode="&#x440;" horiz-adv-x="673" 
d="M366 552q115 0 191.5 -82t76.5 -201q0 -118 -76.5 -200t-192.5 -82q-113 0 -184 88v-297h-110v761h110v-78q74 91 185 91zM350 88q77 0 125 52.5t48 129.5q0 76 -48 128.5t-125 52.5t-124.5 -52.5t-47.5 -128.5q0 -77 47.5 -129.5t124.5 -52.5z" />
    <glyph glyph-name="uni0441" unicode="&#x441;" horiz-adv-x="600" 
d="M324 -12q-125 0 -205 79t-80 202q0 124 81 203.5t208 79.5q81 0 148.5 -38.5t99.5 -105.5l-91 -51q-25 43 -66.5 68.5t-89.5 25.5q-77 0 -128 -52t-51 -130q0 -76 50 -128t125 -52q48 0 92 26t65 66l91 -53q-33 -63 -100.5 -101.5t-148.5 -38.5z" />
    <glyph glyph-name="uni0442" unicode="&#x442;" horiz-adv-x="983" 
d="M703 554q97 0 156.5 -62.5t59.5 -169.5v-322h-110v304q0 71 -33.5 109t-89.5 38q-60 0 -97.5 -41t-37.5 -109v-301h-110v302q0 70 -33.5 109.5t-90.5 39.5q-60 0 -98 -41.5t-38 -110.5v-299h-110v539h108v-78q24 43 67 68t96 25q53 -1 98.5 -26.5t67.5 -72.5
q28 45 80.5 72t114.5 27z" />
    <glyph glyph-name="uni0443" unicode="&#x443;" horiz-adv-x="569" 
d="M434 539h121l-223 -588q-36 -95 -84 -137.5t-117 -42.5q-57 0 -92 23l16 95q38 -17 67 -17q66 0 106 92l17 40l-234 535h127l158 -389z" />
    <glyph glyph-name="uni0444" unicode="&#x444;" horiz-adv-x="830" 
d="M791 269q0 -127 -88.5 -201.5t-236.5 -79.5v-213h-102v213q-148 4 -236.5 80t-88.5 201q0 127 90 203.5t235 80.5v205h102v-205q145 -4 235 -80.5t90 -203.5zM466 82q101 1 160.5 51.5t59.5 137.5q0 86 -58 135t-162 51v-375zM144 270q0 -88 60.5 -137.5t159.5 -50.5v375
q-103 -2 -161.5 -51.5t-58.5 -135.5z" />
    <glyph glyph-name="uni0445" unicode="&#x445;" horiz-adv-x="523" 
d="M511 0h-128l-121 194l-124 -194h-131l186 278l-167 261h128l110 -182l114 182h128l-176 -267z" />
    <glyph glyph-name="uni0446" unicode="&#x446;" horiz-adv-x="691" 
d="M568 142q-1 -41 30 -55.5t86 -14.5v-252h-99v172q-46 0 -79 27.5t-37 68.5q-21 -43 -76 -72t-120 -29q-90 0 -149 54.5t-59 173.5v324h110v-314q0 -67 31.5 -101.5t91.5 -34.5q74 0 117 44.5t43 124.5v281h110v-397z" />
    <glyph glyph-name="uni0447" unicode="&#x447;" horiz-adv-x="569" 
d="M387 539h111v-539h-111v176q-69 -19 -132 -19q-215 0 -215 206v176h110v-168q0 -61 29 -87t86 -26q63 0 122 17v264z" />
    <glyph glyph-name="uni0448" unicode="&#x448;" horiz-adv-x="969" 
d="M788 539h110v-539h-104v77q-21 -39 -69 -64.5t-103 -25.5q-53 0 -96 24t-64 73q-27 -49 -78.5 -73t-110.5 -24q-40 0 -75.5 12t-66 38t-48.5 72t-18 108v322h111v-309q0 -141 115 -141q63 0 99 44t36 122v284h111v-316q0 -65 29.5 -99.5t84.5 -34.5q63 0 100 46.5
t37 119.5v284z" />
    <glyph glyph-name="uni0449" unicode="&#x449;" horiz-adv-x="1023" 
d="M898 142q0 -41 30 -55.5t85 -14.5v-252h-99v172q-46 0 -78 27.5t-36 68.5q-22 -44 -71.5 -72.5t-110.5 -28.5q-52 0 -94.5 24t-62.5 72q-27 -48 -78.5 -72t-108.5 -24q-88 0 -148.5 55.5t-60.5 174.5v322h110v-309q0 -141 116 -141q63 0 99 44t36 122v284h111v-316
q0 -65 29.5 -99.5t83.5 -34.5q64 0 101 46t37 120v284h110v-397z" />
    <glyph glyph-name="uni044A" unicode="&#x44a;" horiz-adv-x="647" 
d="M388 435q98 0 162 -63.5t64 -160.5q0 -93 -60 -158.5t-179 -65.5q-56 0 -98.5 17t-67 42.5t-39.5 61t-20 67.5t-5 66v200h-134v98h244v-142q60 38 133 38zM377 85q61 0 93.5 36t32.5 91q0 56 -33 90.5t-96 34.5q-65 0 -119 -35v-69q0 -148 122 -148z" />
    <glyph glyph-name="uni044B" unicode="&#x44b;" horiz-adv-x="769" 
d="M303 363q61 0 105.5 -16.5t67.5 -44.5t33.5 -57.5t10.5 -62.5q0 -77 -54 -129.5t-158 -52.5h-237v539h108v-176h124zM589 539h110v-539h-110v539zM296 93q115 0 115 90q0 36 -26 61.5t-83 25.5h-123v-177h117z" />
    <glyph glyph-name="uni044C" unicode="&#x44c;" horiz-adv-x="565" 
d="M306 435q99 0 162.5 -63.5t63.5 -160.5q0 -93 -60 -158.5t-179 -65.5q-56 0 -98.5 17t-66.5 42.5t-39 61.5t-20 67t-5 66v298h109v-141q61 37 133 37zM295 85q62 0 94.5 36t32.5 91q0 56 -33.5 90.5t-95.5 34.5q-67 0 -120 -36v-68q0 -148 122 -148z" />
    <glyph glyph-name="uni044D" unicode="&#x44d;" horiz-adv-x="603" 
d="M280 552q124 0 204 -79.5t80 -203.5q0 -122 -79 -201.5t-201 -79.5q-85 0 -152.5 39t-100.5 101l89 52q21 -40 66 -66t96 -26q61 0 107.5 38.5t60.5 98.5h-220v90h220q-14 61 -62 99t-111 38q-52 0 -93.5 -26t-66.5 -68l-89 50q33 68 101 106t151 38z" />
    <glyph glyph-name="uni044E" unicode="&#x44e;" horiz-adv-x="856" 
d="M532 553q124 0 204.5 -82.5t80.5 -200.5q0 -120 -80.5 -202t-204.5 -82q-111 0 -188 66.5t-93 168.5h-70v-221h-110v758h110v-445h69q15 103 92.5 171.5t189.5 68.5zM532 89q73 0 123.5 53t50.5 128q0 74 -50.5 127.5t-123.5 53.5t-123.5 -53.5t-50.5 -127.5
q0 -75 50.5 -128t123.5 -53z" />
    <glyph glyph-name="uni044F" unicode="&#x44f;" horiz-adv-x="562" 
d="M491 539v-539h-108v195q-49 -7 -107 -7l-123 -188h-125l141 201q-59 20 -88 64t-29 98q0 75 56 125.5t168 50.5h215zM280 279q54 0 103 8v159h-105q-116 0 -116 -83q0 -84 118 -84z" />
    <glyph glyph-name="uni0451" unicode="&#x451;" horiz-adv-x="616" 
d="M220 594q-32 0 -53 21t-21 53q0 31 21 51.5t53 20.5q30 0 51.5 -21t21.5 -51q0 -32 -21.5 -53t-51.5 -21zM425 594q-32 0 -53 21t-21 53q0 31 21 51.5t53 20.5q30 0 51 -20.5t21 -51.5q0 -32 -21 -53t-51 -21zM579 280q0 -23 -4 -53h-421q12 -63 56.5 -102t122.5 -39
q46 0 96.5 16t86.5 42l46 -81q-41 -31 -103 -53t-130 -22q-73 0 -130 24t-91 64.5t-51 90t-17 104.5q0 122 76.5 201.5t198.5 79.5q116 0 190 -73t74 -199zM315 457q-62 0 -105.5 -38.5t-55.5 -101.5h314q-7 64 -49.5 102t-103.5 38z" />
    <glyph glyph-name="Wgrave" unicode="&#x1e80;" horiz-adv-x="1041" 
d="M575 794h-100l-95 174h134zM260 0l-251 739h124l169 -527l187 527h61l191 -527l166 527h124l-250 -739h-77l-183 530l-182 -530h-79z" />
    <glyph glyph-name="wgrave" unicode="&#x1e81;" horiz-adv-x="852" 
d="M484 623h-96l-94 170h130zM194 1l-184 538h116l121 -387l139 387h78l143 -387l117 387h116l-181 -538h-94l-140 382l-137 -382h-94z" />
    <glyph glyph-name="Wacute" unicode="&#x1e82;" horiz-adv-x="1041" 
d="M477 793l62 173h132l-95 -173h-99zM260 0l-251 739h124l169 -527l187 527h61l191 -527l166 527h124l-250 -739h-77l-183 530l-182 -530h-79z" />
    <glyph glyph-name="wacute" unicode="&#x1e83;" horiz-adv-x="852" 
d="M382 624l60 170h130l-93 -170h-97zM194 1l-184 538h116l121 -387l139 387h78l143 -387l117 387h116l-181 -538h-94l-140 382l-137 -382h-94z" />
    <glyph glyph-name="Wdieresis" unicode="&#x1e84;" horiz-adv-x="1041" 
d="M426 803q-29 0 -49 19.5t-20 49.5q0 28 20 47.5t49 19.5t48.5 -19.5t19.5 -47.5q0 -30 -19.5 -49.5t-48.5 -19.5zM617 803q-29 0 -49 19.5t-20 49.5q0 28 20 47.5t49 19.5q28 0 47.5 -19.5t19.5 -47.5q0 -30 -19.5 -49.5t-47.5 -19.5zM260 0l-251 739h124l169 -527
l187 527h61l191 -527l166 527h124l-250 -739h-77l-183 530l-182 -530h-79z" />
    <glyph glyph-name="wdieresis" unicode="&#x1e85;" horiz-adv-x="852" 
d="M324 616q-32 0 -53.5 21t-21.5 53q0 31 21.5 51.5t53.5 20.5q30 0 51 -20.5t21 -51.5q0 -32 -21 -53t-51 -21zM528 616q-32 0 -53 21t-21 53q0 31 21.5 51.5t52.5 20.5t52 -20.5t21 -51.5q0 -32 -21 -53t-52 -21zM194 1l-184 538h116l121 -387l139 387h78l143 -387
l117 387h116l-181 -538h-94l-140 382l-137 -382h-94z" />
    <glyph glyph-name="Ygrave" unicode="&#x1ef2;" horiz-adv-x="652" 
d="M386 794h-100l-95 174h134zM637 739l-254 -476v-263h-115v263l-251 476h130l179 -358l181 358h130z" />
    <glyph glyph-name="ygrave" unicode="&#x1ef3;" horiz-adv-x="569" 
d="M350 624h-97l-93 170h130zM435 539h121l-223 -588q-36 -95 -84 -137.5t-117 -42.5q-57 0 -92 23l16 95q38 -17 67 -17q66 0 106 92l17 40l-234 535h127l158 -389z" />
    <glyph glyph-name="uni2009" unicode="&#x2009;" horiz-adv-x="78" 
 />
    <glyph glyph-name="endash" unicode="&#x2013;" horiz-adv-x="717" 
d="M64 225v104h589v-104h-589z" />
    <glyph glyph-name="emdash" unicode="&#x2014;" horiz-adv-x="1036" 
d="M64 225v104h908v-104h-908z" />
    <glyph glyph-name="quoteleft" unicode="&#x2018;" horiz-adv-x="241" 
d="M125 653q25 0 42.5 -18.5t17.5 -44.5q0 -28 -20.5 -48t-49.5 -20q-32 0 -53.5 23t-21.5 58q0 90 131 175l34 -48q-67 -50 -82 -77h2z" />
    <glyph glyph-name="quoteright" unicode="&#x2019;" horiz-adv-x="239" 
d="M132 775q32 0 53.5 -23t21.5 -58q0 -92 -132 -175l-33 47q68 51 83 79q-2 -1 -4 -1q-24 0 -42 18.5t-18 44.5q0 28 21 48t50 20z" />
    <glyph glyph-name="quotesinglbase" unicode="&#x201a;" horiz-adv-x="247" 
d="M122 120q32 0 53 -22.5t21 -57.5q0 -92 -131 -175l-33 47q67 50 82 78q-1 -1 -3 -1q-25 0 -42.5 19t-17.5 45q0 28 21 47.5t50 19.5z" />
    <glyph glyph-name="quotedblleft" unicode="&#x201c;" horiz-adv-x="485" 
d="M208 730q-67 -50 -82 -78q1 1 3 1q24 0 42 -18.5t18 -44.5q0 -28 -21 -48t-50 -20q-32 0 -53.5 23t-21.5 58q0 90 132 175zM369 653q25 0 42.5 -18.5t17.5 -44.5q0 -28 -20.5 -48t-49.5 -20q-32 0 -53.5 23t-21.5 58q0 90 131 175l34 -48q-67 -50 -82 -77h2z" />
    <glyph glyph-name="quotedblright" unicode="&#x201d;" horiz-adv-x="476" 
d="M129 778q32 0 53.5 -23t21.5 -58q0 -90 -131 -175l-34 48q67 50 82 77h-2q-25 0 -42.5 18.5t-17.5 44.5q0 28 20.5 48t49.5 20zM369 778q32 0 53 -23t21 -58q0 -90 -131 -175l-34 48q67 50 82 77h-2q-25 0 -42.5 18.5t-17.5 44.5q0 28 21 48t50 20z" />
    <glyph glyph-name="quotedblbase" unicode="&#x201e;" horiz-adv-x="482" 
d="M118 119q32 0 53 -23t21 -58q0 -91 -131 -175l-34 47q66 50 82 78h-2q-25 0 -42.5 18.5t-17.5 44.5q0 28 21 48t50 20zM357 119q32 0 53 -23t21 -58q0 -91 -131 -175l-33 47q66 50 82 79q-1 -1 -3 -1q-25 0 -42.5 18.5t-17.5 44.5q0 28 21 48t50 20z" />
    <glyph glyph-name="dagger" unicode="&#x2020;" horiz-adv-x="490" 
d="M453 519v-98h-156v-599h-104v599h-157v98h157v330h104v-330h156z" />
    <glyph glyph-name="daggerdbl" unicode="&#x2021;" horiz-adv-x="490" 
d="M454 463h-157v-255h157v-98h-157v-288h-104v288h-157v98h157v255h-157v98h157v288h104v-288h157v-98z" />
    <glyph glyph-name="bullet" unicode="&#x2022;" horiz-adv-x="432" 
d="M215 197q-59 0 -101.5 42t-42.5 102t42.5 102.5t101.5 42.5q60 0 102.5 -42.5t42.5 -102.5t-42.5 -102t-102.5 -42z" />
    <glyph glyph-name="ellipsis" unicode="&#x2026;" horiz-adv-x="713" 
d="M118 -16q-29 0 -49.5 20t-20.5 50q0 29 20.5 49t49.5 20t49 -20t20 -49q0 -30 -20 -50t-49 -20zM357 -16q-30 0 -50.5 20t-20.5 50q0 29 20.5 49t50.5 20q29 0 48.5 -20t19.5 -49q0 -30 -19.5 -50t-48.5 -20zM595 -16q-30 0 -50.5 20t-20.5 50q0 29 20.5 49t50.5 20
q29 0 49 -20t20 -49q0 -30 -20 -50t-49 -20z" />
    <glyph glyph-name="perthousand" unicode="&#x2030;" horiz-adv-x="1301" 
d="M222 387q-78 0 -133.5 53.5t-55.5 128.5t55.5 129t133.5 54t133 -54t55 -129t-55 -128.5t-133 -53.5zM114 0l542 739h113l-544 -739h-111zM222 468q42 0 71.5 29t29.5 72t-29.5 72t-71.5 29q-43 0 -72.5 -29t-29.5 -72t29.5 -72t72.5 -29zM666 -12q-79 0 -134 53t-55 128
t55.5 129t133.5 54t133.5 -54t55.5 -129t-55.5 -128t-133.5 -53zM1088 -12q-79 0 -134 53t-55 128t55 128.5t134 53.5q78 0 133.5 -53.5t55.5 -128.5t-55.5 -128t-133.5 -53zM1088 68q43 0 73 29t30 72q0 44 -30 73.5t-73 29.5q-44 0 -73.5 -29.5t-29.5 -73.5q0 -43 30 -72
t73 -29zM666 69q42 0 72 29t30 71q0 44 -29.5 73t-72.5 29t-72.5 -29t-29.5 -73q0 -42 30 -71t72 -29z" />
    <glyph glyph-name="guilsinglleft" unicode="&#x2039;" horiz-adv-x="340" 
d="M178 88l-140 203l140 203h112l-142 -203l142 -203h-112z" />
    <glyph glyph-name="guilsinglright" unicode="&#x203a;" horiz-adv-x="340" 
d="M162 88h-112l142 203l-142 203h112l140 -203z" />
    <glyph glyph-name="fraction" unicode="&#x2044;" horiz-adv-x="198" 
d="M-235 0l578 739h93l-576 -739h-95z" />
    <glyph glyph-name="uni2070" unicode="&#x2070;" horiz-adv-x="377" 
d="M188 501q-81 0 -122.5 59t-41.5 146t41.5 146.5t122.5 59.5q82 0 123.5 -59t41.5 -147q0 -87 -41.5 -146t-123.5 -59zM188 575q83 0 83 131q0 56 -19.5 93.5t-63.5 37.5q-43 0 -62.5 -37t-19.5 -94t19.5 -94t62.5 -37z" />
    <glyph glyph-name="uni2074" unicode="&#x2074;" horiz-adv-x="367" 
d="M331 665v-63h-43v-95h-70v95h-183l-16 46l213 255h56v-238h43zM109 665h109v130z" />
    <glyph glyph-name="uni2075" unicode="&#x2075;" horiz-adv-x="345" 
d="M176 763q60 0 97.5 -36.5t37.5 -92.5q0 -58 -41.5 -96t-107.5 -38q-75 0 -136 46l32 60q49 -36 99 -36q35 0 56.5 18.5t21.5 47.5q0 28 -20 46t-52 18q-39 0 -70 -28l-42 33l24 197h210v-65h-156l-11 -86q27 12 58 12z" />
    <glyph glyph-name="uni2076" unicode="&#x2076;" horiz-adv-x="350" 
d="M192 763q58 0 95 -36t37 -92q0 -59 -40.5 -97t-104.5 -38q-75 0 -115.5 54.5t-40.5 137.5q0 93 46 156.5t134 63.5q65 0 111 -34l-31 -57q-34 25 -76 25q-50 0 -80 -38.5t-33 -90.5q32 46 98 46zM179 565q31 0 51.5 20t20.5 49t-20.5 48t-50.5 19q-31 0 -51.5 -19
t-20.5 -48t20.5 -49t50.5 -20z" />
    <glyph glyph-name="uni2077" unicode="&#x2077;" horiz-adv-x="292" 
d="M13 900h266v-53l-154 -339h-82l149 323h-179v69z" />
    <glyph glyph-name="uni2078" unicode="&#x2078;" horiz-adv-x="381" 
d="M190 501q-69 0 -110.5 32.5t-41.5 82.5q0 33 21.5 60.5t59.5 41.5v1q-29 12 -46.5 35t-17.5 51q0 47 37.5 77t97.5 30t97.5 -30t37.5 -77q0 -58 -64 -86v-2q38 -14 59.5 -41t21.5 -60q0 -49 -41.5 -82t-110.5 -33zM190 746q28 0 45 15t17 37t-17.5 37t-44.5 15t-44.5 -15
t-17.5 -37t17 -37t45 -15zM190 565q33 0 54 17t21 43q0 25 -20.5 42t-54.5 17t-54.5 -17t-20.5 -42q0 -26 21 -43t54 -17z" />
    <glyph glyph-name="uni2079" unicode="&#x2079;" horiz-adv-x="372" 
d="M179 912q75 0 114 -53.5t39 -140.5q0 -93 -44 -155t-131 -62q-69 0 -112 34l29 57q37 -25 79 -25q51 0 79 36.5t31 93.5q-36 -48 -98 -48q-59 0 -95.5 36t-36.5 91q0 60 41 98t105 38zM177 711q30 0 50.5 19.5t20.5 47.5q0 29 -20 49.5t-50 20.5q-31 0 -51 -20t-20 -50
q0 -29 19.5 -48t50.5 -19z" />
    <glyph glyph-name="uni2080" unicode="&#x2080;" horiz-adv-x="377" 
d="M188 -161q-81 0 -122.5 59t-41.5 146t41.5 146.5t122.5 59.5q82 0 123.5 -59t41.5 -147q0 -87 -41.5 -146t-123.5 -59zM188 -87q83 0 83 131q0 56 -19.5 93.5t-63.5 37.5q-43 0 -62.5 -37t-19.5 -94t19.5 -94t62.5 -37z" />
    <glyph glyph-name="uni2081" unicode="&#x2081;" horiz-adv-x="269" 
d="M151 238h60v-393h-80v283l-74 -58l-42 61z" />
    <glyph glyph-name="uni2082" unicode="&#x2082;" horiz-adv-x="345" 
d="M151 -84h153v-71h-265v63l130 132q52 54 52 87q0 22 -16 36.5t-41 14.5q-44 0 -94 -47l-40 58q61 61 139 61q58 0 95 -34t37 -88q0 -57 -55 -113z" />
    <glyph glyph-name="uni2083" unicode="&#x2083;" horiz-adv-x="332" 
d="M147 -161q-68 0 -132 39l32 61q55 -30 97 -30q33 0 51.5 15t18.5 38t-19.5 38t-50.5 15h-52v67h48q26 0 46 13t20 36t-17.5 35.5t-42.5 12.5q-39 0 -83 -31l-38 55q52 47 130 47q56 0 93.5 -30.5t37.5 -74.5q0 -32 -20 -56t-52 -34v-2q38 -8 59.5 -34.5t21.5 -62.5
q0 -52 -41.5 -84.5t-106.5 -32.5z" />
    <glyph glyph-name="uni2084" unicode="&#x2084;" horiz-adv-x="367" 
d="M331 3v-63h-43v-95h-70v95h-183l-16 46l213 255h56v-238h43zM109 3h109v130z" />
    <glyph glyph-name="uni2085" unicode="&#x2085;" horiz-adv-x="345" 
d="M176 101q60 0 97.5 -36.5t37.5 -92.5q0 -58 -41.5 -96t-107.5 -38q-75 0 -136 46l32 60q50 -36 99 -36q35 0 56.5 18.5t21.5 47.5q0 28 -20 46t-52 18q-39 0 -70 -28l-42 33l24 197h210v-65h-156l-11 -86q27 12 58 12z" />
    <glyph glyph-name="uni2086" unicode="&#x2086;" horiz-adv-x="350" 
d="M192 101q58 0 95 -36t37 -92q0 -59 -40.5 -97t-104.5 -38q-75 0 -115.5 54.5t-40.5 137.5q0 93 46 156.5t134 63.5q65 0 111 -34l-31 -57q-34 25 -76 25q-50 0 -80 -38.5t-33 -90.5q32 46 98 46zM179 -97q31 0 51.5 20t20.5 49t-20.5 48t-50.5 19q-31 0 -51.5 -19
t-20.5 -48t20.5 -49t50.5 -20z" />
    <glyph glyph-name="uni2087" unicode="&#x2087;" horiz-adv-x="292" 
d="M13 238h266v-53l-154 -339h-82l149 323h-179v69z" />
    <glyph glyph-name="uni2088" unicode="&#x2088;" horiz-adv-x="381" 
d="M190 -161q-69 0 -110.5 32.5t-41.5 82.5q0 33 21.5 60.5t59.5 41.5v1q-29 12 -46.5 35t-17.5 51q0 47 37.5 77t97.5 30t97.5 -30t37.5 -77q0 -58 -64 -86v-2q38 -14 59.5 -41t21.5 -60q0 -49 -41.5 -82t-110.5 -33zM190 84q28 0 45 15t17 37t-17.5 37t-44.5 15t-44.5 -15
t-17.5 -37t17 -37t45 -15zM190 -97q33 0 54 17t21 43q0 25 -20.5 42t-54.5 17t-54.5 -17t-20.5 -42q0 -26 21 -43t54 -17z" />
    <glyph glyph-name="uni2089" unicode="&#x2089;" horiz-adv-x="372" 
d="M179 250q75 0 114 -53.5t39 -140.5q0 -93 -44 -155t-131 -62q-69 0 -112 34l29 57q37 -25 79 -25q51 0 79 36.5t31 93.5q-36 -48 -98 -48q-59 0 -95.5 36t-36.5 91q0 60 41 98t105 38zM177 49q30 0 50.5 19.5t20.5 47.5q0 29 -20 49.5t-50 20.5q-31 0 -51 -20t-20 -50
q0 -29 19.5 -48t50.5 -19z" />
    <glyph glyph-name="Euro" unicode="&#x20ac;" horiz-adv-x="754" 
d="M263 252q30 -72 92 -115t141 -43q94 0 187 53v-110q-86 -48 -196 -48q-122 0 -217 72.5t-130 190.5h-109l35 85h58q-1 11 -1 32t1 31h-83l35 85h62q34 121 129.5 194t219.5 73q133 0 231 -69l-53 -91q-77 55 -168 55q-77 0 -140.5 -44.5t-93.5 -117.5h372l-38 -85h-355
q-2 -20 -2 -32q0 -6 0.5 -16t0.5 -15h335l-33 -85h-280z" />
    <glyph glyph-name="uni20BD" unicode="&#x20bd;" horiz-adv-x="635" 
d="M352 274h-130v-66h252v-91h-252v-117h-115v117h-93v91h93v66h-93v106h93v359h255q121 0 183.5 -68.5t62.5 -165.5t-65 -164t-191 -67zM222 631v-251h133q67 0 101.5 37.5t34.5 89.5t-32.5 88t-91.5 36h-145z" />
    <glyph glyph-name="uni2116" unicode="&#x2116;" horiz-adv-x="1171" 
d="M581 739h114v-739h-68l-423 501v-501h-114v739h60l431 -505v505zM959 261q-79 0 -131 52.5t-52 127.5t52 127.5t131 52.5q80 0 132 -52t52 -128t-52 -128t-132 -52zM959 351q37 0 62 26t25 64t-25 64t-62 26q-36 0 -61 -26t-25 -64t25 -64t61 -26zM799 217h320v-94h-320
v94z" />
    <glyph glyph-name="trademark" unicode="&#x2122;" horiz-adv-x="816" 
d="M34 675v64h271v-64h-98v-286h-74v286h-99zM700 739h38v-350h-71v199l-115 -147h-25l-114 147v-199h-71v350h38l159 -206z" />
    <glyph glyph-name="estimated" unicode="&#x212e;" horiz-adv-x="958" 
d="M486 -17q-185 0 -312 110t-127 273q0 164 127 274.5t312 110.5q182 0 310.5 -109t128.5 -281v-21q0 -5 -7 -5h-686v-230q0 -3 4 -4q103 -72 250 -72q103 0 189 37t137 105l35 -29q-60 -74 -155 -116.5t-206 -42.5zM232 385h508v244q0 3 -3 4q-106 73 -251 73t-252 -73
q-2 -2 -2 -5v-243z" />
    <glyph glyph-name="uni2150" unicode="&#x2150;" horiz-adv-x="863" 
d="M153 346v284l-74 -58l-42 61l136 107h59v-394h-79zM671 739h93l-576 -739h-95zM549 393h265v-53l-153 -339h-82l148 323h-178v69z" />
    <glyph glyph-name="uni2151" unicode="&#x2151;" horiz-adv-x="878" 
d="M150 346v284l-74 -58l-42 61l135 107h60v-394h-79zM663 739h93l-576 -739h-95zM688 405q75 0 114 -53.5t39 -140.5q0 -93 -44.5 -155t-131.5 -62q-68 0 -111 34l28 57q38 -25 80 -25q51 0 79 36.5t31 93.5q-36 -48 -98 -48q-59 0 -95.5 36t-36.5 91q0 60 41 98t105 38z
M686 204q30 0 50.5 19.5t20.5 47.5q0 29 -20 49.5t-50 20.5q-31 0 -51 -20t-20 -50q0 -29 19.5 -48t50.5 -19z" />
    <glyph glyph-name="uni2153" unicode="&#x2153;" horiz-adv-x="850" 
d="M150 346v284l-74 -58l-42 61l136 107h59v-394h-79zM661 739h93l-577 -739h-94zM729 209q38 -8 59.5 -34.5t21.5 -62.5q0 -52 -41.5 -84.5t-106.5 -32.5q-68 0 -132 39l32 61q56 -30 97 -30q33 0 51.5 15t18.5 38t-20 38t-51 15h-52v67h49q26 0 46 13t20 36t-17.5 35.5
t-42.5 12.5q-39 0 -84 -31l-37 55q52 47 129 47q57 0 94 -30t37 -75q0 -32 -19.5 -56t-51.5 -34v-2z" />
    <glyph glyph-name="uni2154" unicode="&#x2154;" horiz-adv-x="851" 
d="M45 410l130 132q52 54 52 87q0 22 -16 36.5t-41 14.5q-44 0 -94 -47l-40 58q61 61 139 61q58 0 95 -34t37 -88q0 -57 -55 -113l-95 -99h153v-71h-265v63zM696 739h93l-576 -739h-95zM714 207q38 -8 59.5 -34.5t21.5 -62.5q0 -52 -41.5 -84.5t-106.5 -32.5q-68 0 -132 39
l32 61q55 -30 97 -30q33 0 51.5 15t18.5 38t-19.5 38t-50.5 15h-52v67h48q27 0 46.5 13t19.5 36t-17.5 35.5t-42.5 12.5q-39 0 -83 -31l-38 55q52 47 130 47q56 0 93.5 -30.5t37.5 -74.5q0 -32 -20 -56t-52 -34v-2z" />
    <glyph glyph-name="uni2155" unicode="&#x2155;" horiz-adv-x="848" 
d="M150 346v284l-74 -58l-42 61l135 107h60v-394h-79zM659 739h93l-577 -739h-94zM683 256q60 0 98 -36.5t38 -92.5q0 -58 -42 -96t-108 -38q-73 0 -136 46l32 60q51 -36 100 -36q35 0 56.5 18.5t21.5 47.5q0 27 -20.5 45.5t-52.5 18.5q-39 0 -70 -28l-42 33l24 197h210v-65
h-156l-11 -86q27 12 58 12z" />
    <glyph glyph-name="uni2156" unicode="&#x2156;" horiz-adv-x="853" 
d="M44 410l131 132q52 55 52 87q0 22 -16 36.5t-41 14.5q-43 0 -95 -47l-39 58q61 61 139 61q58 0 95 -34t37 -88q0 -55 -55 -113l-95 -99h153v-71h-266v63zM695 739h93l-576 -739h-95zM675 256q60 0 97.5 -36.5t37.5 -92.5q0 -58 -41.5 -96t-108.5 -38q-74 0 -135 46l32 60
q49 -36 99 -36q35 0 56.5 18.5t21.5 47.5q0 27 -20 45.5t-52 18.5q-40 0 -70 -28l-42 33l24 197h210v-65h-156l-10 -85q28 11 57 11z" />
    <glyph glyph-name="uni2157" unicode="&#x2157;" horiz-adv-x="831" 
d="M151 411q33 0 51.5 15t18.5 38t-19.5 38t-50.5 15h-52v67h48q27 0 46.5 13t19.5 36t-17.5 35.5t-42.5 12.5q-39 0 -83 -31l-38 55q52 47 130 47q56 0 93.5 -30.5t37.5 -74.5q0 -32 -20 -56t-52 -34v-2q39 -8 60 -34.5t21 -62.5q0 -52 -41 -84.5t-107 -32.5q-68 0 -132 39
l33 61q54 -30 96 -30zM671 739h94l-577 -739h-95zM654 256q60 0 97.5 -36.5t37.5 -92.5q0 -58 -41.5 -96t-107.5 -38q-75 0 -136 46l32 60q51 -36 99 -36q35 0 57 18.5t22 47.5q0 27 -20.5 45.5t-52.5 18.5q-39 0 -70 -28l-42 33l24 197h210v-65h-156l-11 -86q27 12 58 12z
" />
    <glyph glyph-name="uni2158" unicode="&#x2158;" horiz-adv-x="884" 
d="M228 347v95h-183l-16 46l213 255h56v-238h43v-63h-43v-95h-70zM720 739h93l-576 -739h-95zM119 505h109v130zM696 256q60 0 97.5 -36.5t37.5 -92.5q0 -58 -41.5 -96t-107.5 -38q-75 0 -136 46l32 60q50 -36 99 -36q35 0 56.5 18.5t21.5 47.5q0 28 -20 46t-52 18
q-39 0 -70 -28l-42 33l24 197h210v-65h-156l-11 -86q27 12 58 12z" />
    <glyph glyph-name="uni2159" unicode="&#x2159;" horiz-adv-x="849" 
d="M150 630l-74 -58l-42 61l135 107h60v-394h-79v284zM653 739h93l-576 -739h-95zM672 256q60 0 98 -36.5t38 -92.5q0 -58 -42 -96t-108 -38q-73 0 -136 46l32 60q51 -36 100 -36q35 0 56.5 18.5t21.5 47.5q0 27 -20.5 45.5t-52.5 18.5q-39 0 -70 -28l-42 33l24 197h210v-65
h-156l-11 -86q27 12 58 12z" />
    <glyph glyph-name="uni215A" unicode="&#x215a;" horiz-adv-x="863" 
d="M163 410q35 0 56.5 18.5t21.5 47.5q0 28 -20 46t-52 18q-39 0 -70 -28l-42 33l24 197h210v-65h-156l-11 -86q27 12 58 12q60 0 97.5 -36.5t37.5 -92.5q0 -58 -41.5 -96t-107.5 -38q-75 0 -136 46l32 60q50 -36 99 -36zM685 739h93l-576 -739h-95zM674 256q58 0 95.5 -36
t37.5 -92q0 -59 -40.5 -97t-104.5 -38q-76 0 -116 54t-40 138q0 93 46 156.5t134 63.5q63 0 111 -34l-31 -57q-35 25 -76 25q-50 0 -80 -38.5t-33 -90.5q32 46 97 46zM662 58q30 0 50.5 20t20.5 49t-20 48t-50 19q-31 0 -51.5 -19t-20.5 -48t20.5 -49t50.5 -20z" />
    <glyph glyph-name="oneeighth" unicode="&#x215b;" horiz-adv-x="875" 
d="M150 346v284l-74 -58l-42 61l135 107h60v-394h-79zM669 739h93l-576 -739h-95zM756 210q39 -14 60.5 -41t21.5 -60q0 -49 -41.5 -82t-110.5 -33t-110.5 32.5t-41.5 82.5q0 33 21.5 60.5t58.5 41.5v1q-63 27 -63 86q0 47 37.5 77t97.5 30t97.5 -30t37.5 -77q0 -58 -65 -86
v-2zM686 343q-28 0 -45.5 -15t-17.5 -37t17 -37t46 -15q28 0 44.5 15t16.5 37t-17 37t-44 15zM686 58q32 0 53 17t21 43q0 25 -20 42t-54 17t-55 -17t-21 -42q0 -26 21 -43t55 -17z" />
    <glyph glyph-name="threeeighths" unicode="&#x215c;" horiz-adv-x="866" 
d="M153 341q-66 0 -132 39l33 61q54 -30 97 -30q33 0 51 15t18 38t-19.5 38t-50.5 15h-52v67h48q27 0 46.5 13t19.5 36t-17.5 35.5t-42.5 12.5q-38 0 -83 -31l-38 55q52 47 130 47q57 0 94 -30t37 -75q0 -32 -20 -56t-51 -34v-2q38 -8 59.5 -34.5t21.5 -62.5
q0 -52 -41.5 -84.5t-107.5 -32.5zM105 0l578 739h93l-576 -739h-95zM679 -6q-69 0 -110.5 32.5t-41.5 82.5q0 33 21.5 60.5t58.5 41.5v1q-63 27 -63 86q0 47 37.5 77t97.5 30t97.5 -30t37.5 -77q0 -58 -64 -86v-2q38 -14 59.5 -41t21.5 -60q0 -49 -41.5 -82t-110.5 -33z
M679 239q28 0 45 15t17 37t-17.5 37t-44.5 15t-45 -15t-18 -37t17 -37t46 -15zM679 58q33 0 54 17t21 43q0 25 -20.5 42t-54.5 17t-55 -17t-21 -42q0 -26 21 -43t55 -17z" />
    <glyph glyph-name="fiveeighths" unicode="&#x215d;" horiz-adv-x="869" 
d="M163 410q35 0 56.5 18.5t21.5 47.5q0 28 -20 46t-52 18q-39 0 -70 -28l-42 33l24 197h210v-65h-156l-11 -86q27 12 58 12q60 0 97.5 -36.5t37.5 -92.5q0 -58 -41.5 -96t-107.5 -38q-75 0 -136 46l32 60q50 -36 99 -36zM687 739h93l-576 -739h-95zM753 210
q39 -14 60.5 -41t21.5 -60q0 -49 -41.5 -82t-110.5 -33q-70 0 -111.5 32.5t-41.5 82.5q0 33 21.5 60.5t59.5 41.5v1q-63 27 -63 86q0 47 37.5 77t97.5 30t97.5 -30t37.5 -77q0 -58 -65 -86v-2zM682 343q-27 0 -44.5 -15t-17.5 -37t17 -37t45 -15t45 15t17 37t-17 37t-45 15z
M683 58q32 0 53 17t21 43q0 25 -20.5 42t-54.5 17t-54.5 -17t-20.5 -42q0 -26 21 -43t55 -17z" />
    <glyph glyph-name="seveneighths" unicode="&#x215e;" horiz-adv-x="816" 
d="M54 348l148 323h-178v69h266v-53l-154 -339h-82zM625 739h93l-576 -739h-95zM700 210q38 -14 59.5 -41t21.5 -60q0 -49 -41.5 -82t-110.5 -33t-110.5 32.5t-41.5 82.5q0 33 21.5 60.5t58.5 41.5v1q-28 12 -45.5 35t-17.5 51q0 47 37.5 77t97.5 30t97.5 -30t37.5 -77
q0 -58 -64 -86v-2zM629 343q-27 0 -45 -15t-18 -37t17 -37t46 -15q28 0 45 15t17 37t-17.5 37t-44.5 15zM629 58q33 0 54 17t21 43q0 25 -20.5 42t-54.5 17t-55 -17t-21 -42q0 -26 21 -43t55 -17z" />
    <glyph glyph-name="partialdiff" unicode="&#x2202;" horiz-adv-x="624" 
d="M291 -12q-108 0 -179.5 72t-71.5 180q0 109 69 181t173 73q61 0 111 -29.5t76 -79.5q-11 103 -80.5 194.5t-184.5 145.5l65 74q39 -18 77.5 -44t81 -68t75 -91t53.5 -116.5t21 -141.5q0 -150 -80.5 -250t-205.5 -100zM293 84q64 0 109 46.5t45 113.5q0 65 -44 109.5
t-107 44.5q-64 0 -107.5 -45.5t-43.5 -112.5q0 -64 42.5 -110t105.5 -46z" />
    <glyph glyph-name="product" unicode="&#x220f;" horiz-adv-x="741" 
d="M706 734v-112h-95v-740h-116v740h-249v-740h-116v740h-95v112h671z" />
    <glyph glyph-name="summation" unicode="&#x2211;" horiz-adv-x="643" 
d="M45 -179v98l215 360l-215 362v98h563v-112h-419l201 -348l-201 -346h419v-112h-563z" />
    <glyph glyph-name="minus" unicode="&#x2212;" horiz-adv-x="598" 
d="M68 285v103h462v-103h-462z" />
    <glyph glyph-name="radical" unicode="&#x221a;" horiz-adv-x="698" 
d="M286 -118l-169 432h-115v104h198l136 -363l256 753h123l-332 -926h-97z" />
    <glyph glyph-name="infinity" unicode="&#x221e;" horiz-adv-x="922" 
d="M680 566q79 0 137.5 -58.5t58.5 -138.5q0 -81 -59 -139t-139 -58q-53 0 -101 31t-116 103q-70 -73 -119 -103.5t-102 -30.5q-79 0 -137 58.5t-58 138.5t59 138.5t139 58.5q52 0 100 -29t119 -102q69 72 118 101.5t100 29.5zM241 262q34 0 68.5 23t91.5 84q-59 62 -92 84
t-62 22q-44 0 -75.5 -31.5t-31.5 -76.5q0 -44 29 -74.5t72 -30.5zM674 262q45 0 76.5 31t31.5 77q0 43 -30.5 74t-73.5 31q-35 0 -68 -22t-90 -82q60 -64 92 -86.5t62 -22.5z" />
    <glyph glyph-name="integral" unicode="&#x222b;" horiz-adv-x="445" 
d="M94 -210q-65 0 -115 32l31 88q34 -21 70 -21q39 0 64.5 26.5t25.5 86.5v618q0 100 50.5 152t128.5 52q64 0 118 -34l-34 -87q-32 21 -70 21q-39 0 -64 -27t-25 -87v-618q0 -99 -52.5 -150.5t-127.5 -51.5z" />
    <glyph glyph-name="approxequal" unicode="&#x2248;" horiz-adv-x="656" 
d="M425 391q-49 0 -114.5 33t-92.5 33q-29 0 -49.5 -13.5t-47.5 -46.5l-68 52q57 103 170 103q49 0 115 -32.5t93 -32.5q29 0 50 13.5t47 48.5l70 -54q-63 -104 -173 -104zM428 187q-49 0 -114.5 33t-92.5 33q-29 0 -50 -13.5t-47 -46.5l-68 52q57 103 170 103
q49 0 115 -32.5t93 -32.5q29 0 50 13.5t47 48.5l70 -54q-63 -104 -173 -104z" />
    <glyph glyph-name="notequal" unicode="&#x2260;" horiz-adv-x="598" 
d="M530 370h-175l-37 -85h212v-96h-254l-48 -110h-78l48 110h-130v96h172l37 85h-209v96h251l49 111h78l-49 -111h133v-96z" />
    <glyph glyph-name="lessequal" unicode="&#x2264;" horiz-adv-x="586" 
d="M512 192l-451 196v69l451 196v-110l-304 -120l304 -122v-109zM512 50h-457v96h457v-96z" />
    <glyph glyph-name="greaterequal" unicode="&#x2265;" horiz-adv-x="586" 
d="M75 192v109l303 122l-303 120v110l450 -196v-69zM75 50v96h457v-96h-457z" />
    <glyph glyph-name="lozenge" unicode="&#x25ca;" horiz-adv-x="702" 
d="M306 -42l-275 418l275 416h90l275 -416l-275 -418h-90zM351 80l192 298l-192 294l-191 -294z" />
    <glyph glyph-name="uni00A40301" horiz-adv-x="565" 
d="M376 793l61 173h132l-95 -173h-98zM228 -12q-133 0 -218 94l65 86q60 -70 149 -70q65 0 104.5 42t39.5 117v482h116v-487q0 -128 -71.5 -196t-184.5 -68z" />
    <glyph glyph-name="Iacute_J.loclNLD" horiz-adv-x="857" 
d="M98 795l61 172h132l-95 -172h-98zM665 793l61 173h132l-95 -173h-98zM90 739h115v-739h-115v739zM519 -12q-132 0 -217 94l64 86q61 -70 149 -70q65 0 105 41.5t40 117.5v482h116v-487q0 -128 -71.5 -196t-185.5 -68z" />
    <glyph glyph-name="J.loclNLD" horiz-adv-x="565" 
d="M373 793l61 173h132l-94 -173h-99zM228 -12q-133 0 -218 94l65 86q60 -70 149 -70q65 0 104.5 42t39.5 117v482h116v-487q0 -128 -71.5 -196t-184.5 -68z" />
    <glyph glyph-name="i.loclTRK" horiz-adv-x="253" 
d="M129 610q-32 0 -54 21.5t-22 53.5q0 31 22 52t54 21q31 0 52 -21t21 -52q0 -32 -21 -53.5t-52 -21.5zM182 0h-110v539h110v-539z" />
    <glyph glyph-name="uni006A0301" horiz-adv-x="277" 
d="M98 624l60 170h130l-93 -170h-97zM18 -230q-68 0 -105 24l22 90q40 -14 68 -14q92 0 92 109v560h110v-558q0 -104 -50.5 -157.5t-136.5 -53.5z" />
    <glyph glyph-name="iacute_j.loclNLD" horiz-adv-x="525" 
d="M78 624l60 170h130l-94 -170h-96zM354 624l61 170h130l-94 -170h-97zM181 0h-110v539h110v-539zM267 -230q-70 0 -105 24l21 90q40 -14 68 -14q92 0 92 109v560h111v-558q0 -103 -51 -157t-136 -54z" />
    <glyph glyph-name="j.loclNLD" horiz-adv-x="277" 
d="M150 610q-32 0 -54 21.5t-22 53.5q0 31 22 52t54 21q31 0 52.5 -21t21.5 -52q0 -32 -21.5 -53.5t-52.5 -21.5zM18 -230q-68 0 -105 24l22 90q40 -14 68 -14q92 0 92 109v560h110v-558q0 -104 -50.5 -157.5t-136.5 -53.5z" />
    <glyph glyph-name="a.ss02" horiz-adv-x="577" 
d="M270 552q105 0 173.5 -56t68.5 -172v-324h-102v68q-61 -83 -182 -83q-91 0 -144.5 50t-53.5 126t61 122t174 47q100 0 142 6q-10 118 -140 118q-87 0 -166 -48l-46 82q90 64 215 64zM242 80q69 0 114 47t50 119q-38 -5 -102 -5q-84 0 -123.5 -15.5t-39.5 -64.5
q0 -38 28 -59.5t73 -21.5z" />
    <glyph glyph-name="aacute.ss02" horiz-adv-x="577" 
d="M417 794l-93 -170h-97l60 170h130zM270 552q105 0 173.5 -56t68.5 -172v-324h-102v68q-61 -83 -182 -83q-91 0 -144.5 50t-53.5 126t61 122t174 47q100 0 142 6q-10 118 -140 118q-87 0 -166 -48l-46 82q90 64 215 64zM242 80q69 0 114 47t50 119q-38 -5 -102 -5
q-84 0 -123.5 -15.5t-39.5 -64.5q0 -38 28 -59.5t73 -21.5z" />
    <glyph glyph-name="abreve.ss02" horiz-adv-x="577" 
d="M284 619q-79 0 -127.5 47t-51.5 128h92q2 -44 25 -69.5t62 -25.5t62 25.5t25 69.5h93q-3 -80 -52 -127.5t-128 -47.5zM270 552q105 0 173.5 -56t68.5 -172v-324h-102v68q-61 -83 -182 -83q-91 0 -144.5 50t-53.5 126t61 122t174 47q100 0 142 6q-10 118 -140 118
q-87 0 -166 -48l-46 82q90 64 215 64zM242 80q69 0 114 47t50 119q-38 -5 -102 -5q-84 0 -123.5 -15.5t-39.5 -64.5q0 -38 28 -59.5t73 -21.5z" />
    <glyph glyph-name="acircumflex.ss02" horiz-adv-x="577" 
d="M281 712l-69 -89h-113l143 168h81l142 -168h-114zM270 552q105 0 173.5 -56t68.5 -172v-324h-102v68q-61 -83 -182 -83q-91 0 -144.5 50t-53.5 126t61 122t174 47q100 0 142 6q-10 118 -140 118q-87 0 -166 -48l-46 82q90 64 215 64zM242 80q69 0 114 47t50 119
q-38 -5 -102 -5q-84 0 -123.5 -15.5t-39.5 -64.5q0 -38 28 -59.5t73 -21.5z" />
    <glyph glyph-name="adieresis.ss02" horiz-adv-x="577" 
d="M183 618q-32 0 -53.5 21t-21.5 53q0 30 21.5 50.5t53.5 20.5q30 0 51 -20.5t21 -50.5q0 -32 -21 -53t-51 -21zM387 618q-32 0 -53 21t-21 53q0 30 21.5 50.5t52.5 20.5t52 -20.5t21 -50.5q0 -32 -21 -53t-52 -21zM270 552q105 0 173.5 -56t68.5 -172v-324h-102v68
q-61 -83 -182 -83q-91 0 -144.5 50t-53.5 126t61 122t174 47q100 0 142 6q-10 118 -140 118q-87 0 -166 -48l-46 82q90 64 215 64zM242 80q69 0 114 47t50 119q-38 -5 -102 -5q-84 0 -123.5 -15.5t-39.5 -64.5q0 -38 28 -59.5t73 -21.5z" />
    <glyph glyph-name="agrave.ss02" horiz-adv-x="577" 
d="M345 624h-97l-93 170h130zM270 552q105 0 173.5 -56t68.5 -172v-324h-102v68q-61 -83 -182 -83q-91 0 -144.5 50t-53.5 126t61 122t174 47q100 0 142 6q-10 118 -140 118q-87 0 -166 -48l-46 82q90 64 215 64zM242 80q69 0 114 47t50 119q-38 -5 -102 -5
q-84 0 -123.5 -15.5t-39.5 -64.5q0 -38 28 -59.5t73 -21.5z" />
    <glyph glyph-name="amacron.ss02" horiz-adv-x="577" 
d="M440 736v-99h-314v99h314zM270 552q105 0 173.5 -56t68.5 -172v-324h-102v68q-61 -83 -182 -83q-91 0 -144.5 50t-53.5 126t61 122t174 47q100 0 142 6q-10 118 -140 118q-87 0 -166 -48l-46 82q90 64 215 64zM242 80q69 0 114 47t50 119q-38 -5 -102 -5
q-84 0 -123.5 -15.5t-39.5 -64.5q0 -38 28 -59.5t73 -21.5z" />
    <glyph glyph-name="aogonek.ss02" horiz-adv-x="576" 
d="M493 -157l34 -75q-46 -29 -98 -29q-54 0 -86.5 31.5t-32.5 79.5q0 88 104 150h-4v68q-61 -83 -182 -83q-91 0 -144.5 50t-53.5 126t61 122t174 47q100 0 142 6q-10 118 -140 118q-87 0 -166 -48l-46 82q90 64 215 64q105 0 173.5 -56t68.5 -172v-324q-46 -20 -76.5 -54.5
t-30.5 -67.5q0 -21 13 -34t33 -13q16 0 42 12zM242 80q69 0 114 47t50 119q-38 -5 -102 -5q-84 0 -123.5 -15.5t-39.5 -64.5q0 -38 28 -59.5t73 -21.5z" />
    <glyph glyph-name="aring.ss02" horiz-adv-x="577" 
d="M284 603q-51 0 -86 34t-35 83q0 50 35 84t86 34q52 0 87 -34t35 -84q0 -49 -35 -83t-87 -34zM284 774q-22 0 -38 -15t-16 -37q0 -23 16 -38.5t38 -15.5t37.5 15.5t15.5 38.5q0 22 -15.5 37t-37.5 15zM270 552q105 0 173.5 -56t68.5 -172v-324h-102v68q-61 -83 -182 -83
q-91 0 -144.5 50t-53.5 126t61 122t174 47q100 0 142 6q-10 118 -140 118q-87 0 -166 -48l-46 82q90 64 215 64zM242 80q69 0 114 47t50 119q-38 -5 -102 -5q-84 0 -123.5 -15.5t-39.5 -64.5q0 -38 28 -59.5t73 -21.5z" />
    <glyph glyph-name="atilde.ss02" horiz-adv-x="577" 
d="M225 676q-37 0 -61 -48l-71 34q36 102 127 102q32 0 75.5 -22t61.5 -22q36 0 59 45l69 -32q-16 -49 -48.5 -75.5t-74.5 -26.5q-31 0 -74 22.5t-63 22.5zM270 552q105 0 173.5 -56t68.5 -172v-324h-102v68q-61 -83 -182 -83q-91 0 -144.5 50t-53.5 126t61 122t174 47
q100 0 142 6q-10 118 -140 118q-87 0 -166 -48l-46 82q90 64 215 64zM242 80q69 0 114 47t50 119q-38 -5 -102 -5q-84 0 -123.5 -15.5t-39.5 -64.5q0 -38 28 -59.5t73 -21.5z" />
    <glyph glyph-name="I_J.loclNLD" horiz-adv-x="858" 
d="M90 739h115v-739h-115v739zM519 -12q-132 0 -217 94l64 86q61 -70 149 -70q65 0 105 41.5t40 117.5v482h116v-487q0 -128 -71.5 -196t-185.5 -68z" />
    <glyph glyph-name="i_j.loclNLD" horiz-adv-x="551" 
d="M128 610q-32 0 -53.5 21.5t-21.5 53.5q0 31 21.5 52t53.5 21t53 -21t21 -52q0 -32 -21 -53.5t-53 -21.5zM398 610q-32 0 -53.5 21.5t-21.5 53.5q0 31 21.5 52t53.5 21q31 0 52.5 -21t21.5 -52q0 -32 -21.5 -53.5t-52.5 -21.5zM182 0h-110v539h110v-539zM267 -230
q-70 0 -105 24l21 90q40 -14 68 -14q92 0 92 109v560h111v-558q0 -103 -51 -157t-136 -54z" />
    <glyph glyph-name="uni0414.ss01" horiz-adv-x="751" 
d="M635 109h73v-259h-115v150h-447v-150h-115v259h59q32 53 56.5 148t46.5 277l26 205h416v-630zM216 109h304v520h-199l-6 -49q-44 -349 -99 -471z" />
    <glyph glyph-name="uni0416.ss01" horiz-adv-x="902" 
d="M906 0h-138l-260 328v-328h-113v329l-260 -329h-139l304 379l-291 360h134l252 -314v314h113v-314l252 314h134l-291 -361z" />
    <glyph glyph-name="uni041B.ss01" horiz-adv-x="725" 
d="M69 -7q-27 0 -44 5l-13 103q15 -3 28 -3q59 0 90 49q14 21 26 50.5t21 71t15.5 77.5t13 93.5t10.5 94t10.5 104t9.5 101.5h400v-739h-117v628h-179q-2 -15 -8 -81t-8.5 -89t-9.5 -78.5t-13 -84.5t-15.5 -70.5t-21.5 -72t-27 -56.5q-58 -103 -168 -103z" />
    <glyph glyph-name="uni0424.ss01" horiz-adv-x="958" 
d="M919 371q0 -146 -107.5 -237.5t-274.5 -96.5v-117h-116v117q-171 6 -276.5 95.5t-105.5 238.5t105.5 238t276.5 94v116h116v-116q167 -5 274.5 -96t107.5 -236zM537 144q116 3 190 65.5t74 161.5t-74 160.5t-190 64.5v-452zM157 371q0 -102 72.5 -163.5t191.5 -63.5v452
q-118 -3 -191 -63t-73 -162z" />
    <glyph glyph-name="uni042C.ss01" horiz-adv-x="647" 
d="M356 478q62 0 110 -16.5t76.5 -42t46.5 -59.5t24.5 -64t6.5 -61q0 -99 -66 -167t-187 -68h-277v739h114v-261h152zM348 106q74 0 113 37.5t39 96.5q0 56 -36.5 94t-110.5 38h-149v-266h144z" />
    <glyph glyph-name="uni042A.ss01" horiz-adv-x="750" 
d="M459 478q62 0 110 -16.5t76 -42t46 -59.5t24.5 -64t6.5 -61q0 -99 -66 -167t-187 -68h-277v634h-177v105h291v-261h153zM450 106q75 0 114 37.5t39 96.5q0 56 -37 94t-111 38h-149v-266h144z" />
    <glyph glyph-name="uni0431.ss01" horiz-adv-x="667" 
d="M360 529q106 0 186.5 -73t80.5 -197q0 -115 -78.5 -194t-200.5 -79q-62 0 -113.5 21.5t-85.5 56.5t-57 82.5t-33.5 97.5t-10.5 103q0 99 25 171.5t62.5 112.5t97.5 70.5t111.5 44t123.5 33.5t117 39v-109q-47 -21 -113.5 -39t-112.5 -30.5t-92.5 -36t-76 -68.5
t-41.5 -114q31 52 88.5 80t122.5 28zM349 87q71 0 119.5 51.5t48.5 122.5q0 70 -48.5 119.5t-117.5 49.5t-120 -47t-51 -120q0 -71 47 -123.5t122 -52.5z" />
    <glyph glyph-name="uni0432.ss01" horiz-adv-x="579" 
d="M431 300q53 -12 81 -50.5t28 -88.5q0 -68 -49.5 -114.5t-135.5 -46.5h-284v539h271q80 0 123.5 -40t43.5 -93q0 -38 -21 -66t-57 -40zM336 449h-161v-120h164q34 0 50.5 18t16.5 43q0 24 -17 41.5t-53 17.5zM347 91q40 0 62.5 21t22.5 56q0 33 -21 55t-63 22h-173v-154
h172z" />
    <glyph glyph-name="uni0433.ss01" horiz-adv-x="439" 
d="M430 539v-96h-249v-443h-110v539h359z" />
    <glyph glyph-name="uni0434.ss01" horiz-adv-x="642" 
d="M545 97h57v-216h-104v119h-370v-119h-104v216h61q50 84 82 304l20 138h358v-442zM274 410q-32 -223 -75 -313h238v349h-157z" />
    <glyph glyph-name="uni0436.ss01" horiz-adv-x="739" 
d="M741 0h-124l-198 234v-234h-100v233l-198 -233h-123l238 276l-226 263h119l190 -225v225h100v-226l190 226h120l-225 -263z" />
    <glyph glyph-name="uni0437.ss01" horiz-adv-x="513" 
d="M237 -12q-116 0 -215 56l39 86q90 -47 175 -47q60 0 94 21.5t34 57.5q0 68 -113 68h-115v91h83q64 0 96 19t32 52q0 32 -28.5 48.5t-75.5 16.5q-76 0 -160 -47l-46 78q40 30 97.5 47t114.5 17q92 0 148.5 -42t56.5 -101q0 -41 -29 -72t-81 -47v-3q58 -12 93.5 -49
t35.5 -87q0 -70 -64 -116.5t-172 -46.5z" />
    <glyph glyph-name="uni0438.ss01" horiz-adv-x="642" 
d="M71 0v539h107v-370l324 370h69v-539h-108v366l-323 -366h-69z" />
    <glyph glyph-name="uni0439.ss01" horiz-adv-x="642" 
d="M328 575q-106 0 -185 96l54 58q62 -74 131 -74t130 74l56 -58q-81 -96 -186 -96zM71 0v539h107v-370l324 370h69v-539h-108v366l-323 -366h-69z" />
    <glyph glyph-name="uni043A.ss01" horiz-adv-x="552" 
d="M419 0l-191 241l-48 -45v-196h-109v539h109v-213l228 213h143l-245 -227l250 -312h-137z" />
    <glyph glyph-name="uni043B.ss01" horiz-adv-x="616" 
d="M70 -6q-20 0 -36 4l-25 81q10 0 19 -0.5t11 -0.5q47 0 76 37q9 12 16.5 27t14 36t11.5 39t10.5 47.5t8.5 48t7.5 55t6.5 54t6.5 59.5t6.5 58h342v-539h-110v442h-137q-1 -6 -5 -40.5t-5 -42.5t-5 -39t-6 -42t-6.5 -38t-8.5 -39.5t-9.5 -34.5t-11.5 -35.5t-13.5 -30
t-16.5 -29.5q-48 -77 -141 -77z" />
    <glyph glyph-name="uni043F.ss01" horiz-adv-x="604" 
d="M533 539v-539h-110v442h-242v-442h-110v539h462z" />
    <glyph glyph-name="uni0442.ss01" horiz-adv-x="477" 
d="M468 539v-95h-174v-444h-110v444h-174v95h458z" />
    <glyph glyph-name="uni0444.ss01" horiz-adv-x="831" 
d="M792 269q0 -127 -89.5 -202t-236.5 -79v-144h-101v144q-148 4 -237 80t-89 201q0 128 90 204t236 80v144h101v-144q145 -4 235.5 -80t90.5 -204zM466 82q101 1 160.5 51.5t59.5 137.5q0 86 -58.5 135t-161.5 51v-375zM145 270q0 -88 60 -137.5t160 -50.5v375
q-103 -2 -161.5 -51.5t-58.5 -135.5z" />
    <glyph glyph-name="uni0446.ss01" horiz-adv-x="642" 
d="M512 -180v180h-441v539h110v-439h243v439h110v-439h84v-280h-106z" />
    <glyph glyph-name="uni0448.ss01" horiz-adv-x="907" 
d="M71 0v539h110v-439h218v439h110v-439h217v439h110v-539h-765z" />
    <glyph glyph-name="uni0449.ss01" horiz-adv-x="945" 
d="M836 100h85v-280h-107v180h-743v539h110v-439h218v439h110v-439h217v439h110v-439z" />
    <glyph glyph-name="uni044C.ss01" horiz-adv-x="544" 
d="M303 363q61 0 105.5 -16.5t67.5 -44.5t33.5 -57.5t10.5 -62.5q0 -77 -54 -129.5t-158 -52.5h-237v539h108v-176h124zM296 93q115 0 115 90q0 36 -26 61.5t-83 25.5h-123v-177h117z" />
    <glyph glyph-name="uni044A.ss01" horiz-adv-x="608" 
d="M367 363q61 0 106 -16.5t68 -44.5t33 -57.5t10 -62.5q0 -77 -54 -129.5t-158 -52.5h-231v443h-127v96h235v-176h118zM361 93q60 0 87 25t27 65q0 36 -26 61.5t-83 25.5h-118v-177h113z" />
    <glyph glyph-name="uni044E.ss01" horiz-adv-x="856" 
d="M532 553q124 0 204.5 -82.5t80.5 -200.5q0 -120 -80.5 -202t-204.5 -82q-111 0 -188 66.5t-93 168.5h-70v-221h-110v539h110v-226h69q15 103 92.5 171.5t189.5 68.5zM532 89q73 0 123.5 53t50.5 128q0 74 -50.5 127.5t-123.5 53.5t-123.5 -53.5t-50.5 -127.5
q0 -75 50.5 -128t123.5 -53z" />
    <glyph glyph-name="zero.lf" horiz-adv-x="682" 
d="M341 -12q-76 0 -134 33t-91.5 88.5t-50 121.5t-16.5 139t16.5 139t50 121.5t91.5 88.5t134 33t134.5 -33t91.5 -88.5t49.5 -121.5t16.5 -139t-16.5 -139t-49.5 -121.5t-91.5 -88.5t-134.5 -33zM341 96q89 0 132.5 76.5t43.5 197.5q0 120 -43.5 197t-132.5 77t-132 -77
t-43 -197q0 -78 17 -137.5t57.5 -98t100.5 -38.5z" />
    <glyph glyph-name="one.lf" horiz-adv-x="396" 
d="M217 739h89v-739h-114v584l-128 -104l-62 81z" />
    <glyph glyph-name="two.lf" horiz-adv-x="568" 
d="M212 106h305v-106h-468v96l235 250q38 41 56 62t36 56t18 66q0 51 -36 83t-88 32q-87 0 -175 -83l-63 82q110 108 243 108q102 0 167.5 -62t65.5 -161q0 -101 -114 -224z" />
    <glyph glyph-name="three.lf" horiz-adv-x="557" 
d="M250 -12q-121 0 -232 73l51 93q95 -60 177 -60q65 0 103 32t38 83q0 52 -39 84.5t-101 32.5h-92v104h88q58 0 94 30t36 79t-35.5 77.5t-87.5 28.5q-74 0 -157 -62l-58 81q41 41 101.5 64.5t124.5 23.5q100 0 164.5 -56t64.5 -138q0 -59 -35.5 -104.5t-91.5 -63.5v-4
q68 -16 106 -65t38 -117q0 -95 -71.5 -155.5t-185.5 -60.5z" />
    <glyph glyph-name="four.lf" horiz-adv-x="601" 
d="M561 280v-99h-82v-181h-110v181h-338l-23 72l398 486h73v-459h82zM151 280h218v267z" />
    <glyph glyph-name="five.lf" horiz-adv-x="578" 
d="M291 480q106 0 177 -68t71 -174q0 -109 -74.5 -179.5t-192.5 -70.5q-132 0 -240 87l51 90q93 -71 185 -71q69 0 112 41t43 102q0 60 -42 100t-106 40q-78 0 -132 -55l-72 48l41 369h377v-104h-289l-22 -180q52 25 113 25z" />
    <glyph glyph-name="six.lf" 
d="M345 477q101 0 168 -67.5t67 -170.5q0 -107 -72.5 -177.5t-184.5 -70.5q-89 0 -152 49t-92 128t-29 179q0 107 32 196.5t104.5 149t174.5 59.5q113 0 193 -63l-49 -86q-64 48 -137 48q-67 0 -116 -45t-69.5 -105.5t-21.5 -125.5q25 48 73.5 75t110.5 27zM324 92
q61 0 101.5 42t40.5 104q0 61 -40.5 101t-100.5 40q-61 0 -102 -40t-41 -102q0 -61 41 -103t101 -42z" />
    <glyph glyph-name="seven.lf" horiz-adv-x="510" 
d="M21 739h470v-73l-280 -666h-122l273 635h-341v104z" />
    <glyph glyph-name="eight.lf" horiz-adv-x="628" 
d="M315 -12q-119 0 -194 60t-75 152q0 62 39 114.5t104 76.5v2q-52 25 -82 68t-30 96q0 85 66 140t172 55q105 0 170.5 -55t65.5 -140q0 -53 -30 -96.5t-83 -67.5v-3q66 -23 105 -75.5t39 -114.5q0 -92 -74.5 -152t-192.5 -60zM314 436q59 0 93.5 31.5t34.5 78.5
q0 48 -35 79t-93 31t-94 -31t-36 -79q0 -47 35.5 -78.5t94.5 -31.5zM315 89q67 0 110 35.5t43 90.5q0 53 -42 87.5t-112 34.5t-112 -34.5t-42 -87.5q0 -55 43 -90.5t112 -35.5z" />
    <glyph glyph-name="nine.lf" horiz-adv-x="615" 
d="M298 752q131 0 200 -98.5t69 -260.5q0 -82 -18 -153t-53.5 -128.5t-95 -90.5t-137.5 -33q-119 0 -196 63l43 88q69 -50 148 -50q97 0 147 77t54 194q-27 -43 -76 -69t-109 -26q-101 0 -167 67.5t-66 170.5q0 108 72 178.5t185 70.5zM294 363q61 0 101.5 40.5t40.5 101.5
q0 62 -40.5 104.5t-99.5 42.5q-61 0 -102 -42t-41 -105q0 -61 40 -101.5t101 -40.5z" />
    <glyph glyph-name="zero.num" horiz-adv-x="377" 
d="M188 341q-81 0 -122.5 59t-41.5 146t41.5 146.5t122.5 59.5q82 0 123.5 -59t41.5 -147q0 -87 -41.5 -146t-123.5 -59zM188 415q83 0 83 131q0 56 -19.5 93.5t-63.5 37.5q-43 0 -62.5 -37t-19.5 -94t19.5 -94t62.5 -37z" />
    <glyph glyph-name="one.num" horiz-adv-x="269" 
d="M151 740h60v-393h-80v283l-74 -58l-42 61z" />
    <glyph glyph-name="two.num" horiz-adv-x="345" 
d="M151 418h153v-71h-265v63l130 132q52 54 52 87q0 22 -16 36.5t-41 14.5q-44 0 -94 -47l-40 58q61 61 139 61q58 0 95 -34t37 -88q0 -57 -55 -113z" />
    <glyph glyph-name="three.num" horiz-adv-x="332" 
d="M147 341q-68 0 -132 39l32 61q56 -30 97 -30q33 0 51.5 15t18.5 38t-19.5 38t-50.5 15h-52v67h48q26 0 46 13t20 36t-17.5 35.5t-42.5 12.5q-39 0 -83 -31l-38 55q52 47 130 47q56 0 93.5 -30.5t37.5 -74.5q0 -32 -20 -56t-52 -34v-2q38 -8 59.5 -34.5t21.5 -62.5
q0 -52 -41.5 -84.5t-106.5 -32.5z" />
    <glyph glyph-name="four.num" horiz-adv-x="367" 
d="M331 505v-63h-43v-95h-70v95h-183l-16 46l213 255h56v-238h43zM109 505h109v130z" />
    <glyph glyph-name="five.num" horiz-adv-x="345" 
d="M176 603q60 0 97.5 -36.5t37.5 -92.5q0 -58 -41.5 -96t-107.5 -38q-75 0 -136 46l32 60q50 -36 99 -36q35 0 56.5 18.5t21.5 47.5q0 28 -20 46t-52 18q-39 0 -70 -28l-42 33l24 197h210v-65h-156l-11 -86q27 12 58 12z" />
    <glyph glyph-name="six.num" horiz-adv-x="350" 
d="M192 603q58 0 95 -36t37 -92q0 -59 -40.5 -97t-104.5 -38q-75 0 -115.5 54.5t-40.5 137.5q0 93 46 156.5t134 63.5q65 0 111 -34l-31 -57q-34 25 -76 25q-50 0 -80 -38.5t-33 -90.5q32 46 98 46zM179 405q31 0 51.5 20t20.5 49t-20.5 48t-50.5 19q-31 0 -51.5 -19
t-20.5 -48t20.5 -49t50.5 -20z" />
    <glyph glyph-name="seven.num" horiz-adv-x="292" 
d="M13 740h266v-53l-154 -339h-82l149 323h-179v69z" />
    <glyph glyph-name="eight.num" horiz-adv-x="381" 
d="M190 341q-69 0 -110.5 32.5t-41.5 82.5q0 33 21.5 60.5t59.5 41.5v1q-29 12 -46.5 35t-17.5 51q0 47 37.5 77t97.5 30t97.5 -30t37.5 -77q0 -58 -64 -86v-2q38 -14 59.5 -41t21.5 -60q0 -49 -41.5 -82t-110.5 -33zM190 586q28 0 45 15t17 37t-17.5 37t-44.5 15t-44.5 -15
t-17.5 -37t17 -37t45 -15zM190 405q33 0 54 17t21 43q0 25 -20.5 42t-54.5 17t-54.5 -17t-20.5 -42q0 -26 21 -43t54 -17z" />
    <glyph glyph-name="nine.num" horiz-adv-x="372" 
d="M179 752q75 0 114 -53.5t39 -140.5q0 -93 -44 -155t-131 -62q-69 0 -112 34l29 57q37 -25 79 -25q51 0 79 36.5t31 93.5q-36 -48 -98 -48q-59 0 -95.5 36t-36.5 91q0 60 41 98t105 38zM177 551q30 0 50.5 19.5t20.5 47.5q0 29 -20 49.5t-50 20.5q-31 0 -51 -20t-20 -50
q0 -29 19.5 -48t50.5 -19z" />
    <glyph glyph-name="one.numalt" horiz-adv-x="333" 
d="M163 740h59v-394h-79v284l-74 -58l-42 61z" />
    <glyph glyph-name="zero.osf" horiz-adv-x="607" 
d="M304 -12q-85 0 -144.5 44.5t-85 111t-25.5 146.5q0 127 64.5 215.5t190.5 88.5q65 0 115 -25.5t79.5 -69t44.5 -96.5t15 -113q0 -59 -15 -112t-44.5 -96t-79.5 -68.5t-115 -25.5zM304 86q70 0 106.5 56t36.5 148q0 93 -36 149.5t-106 56.5q-71 0 -107 -56.5t-36 -149.5
q0 -92 35.5 -148t106.5 -56z" />
    <glyph glyph-name="one.osf" horiz-adv-x="481" 
d="M327 95h141v-95h-428v95h177v357l-165 -109l-54 83l237 159h92v-490z" />
    <glyph glyph-name="two.osf" horiz-adv-x="536" 
d="M213 95h274v-95h-435v87l203 174q62 53 88 84t26 66t-28 58t-74 23q-45 0 -85 -22t-91 -66l-59 82q56 51 112.5 79t124.5 28q94 0 152.5 -51.5t58.5 -127.5q0 -47 -30.5 -94t-100.5 -107z" />
    <glyph glyph-name="three.osf" horiz-adv-x="539" 
d="M241 -112q-122 0 -230 67l51 88q95 -55 177 -55q65 0 102.5 29.5t37.5 75.5q0 47 -38.5 76.5t-100.5 29.5h-93v98h88q58 0 94 27.5t36 70.5q0 45 -35 71t-87 26q-75 0 -158 -57l-57 77q40 38 100 60t124 22q99 0 163 -52t64 -128q0 -54 -35 -96t-91 -59v-3
q68 -14 105.5 -59.5t37.5 -108.5q0 -89 -71 -144.5t-184 -55.5z" />
    <glyph glyph-name="four.osf" horiz-adv-x="599" 
d="M560 152v-91h-82v-160h-109v160h-329l-24 69l390 452h72v-430h82zM157 152h212v248z" />
    <glyph glyph-name="five.osf" horiz-adv-x="560" 
d="M281 341q106 0 176.5 -62.5t70.5 -160.5q0 -101 -73.5 -166t-191.5 -65q-130 0 -238 80l50 85q91 -65 184 -65q68 0 110.5 37t42.5 92t-41.5 91.5t-105.5 36.5q-76 0 -130 -51l-72 46l41 340h374v-97h-287l-21 -165q53 24 111 24z" />
    <glyph glyph-name="six.osf" horiz-adv-x="608" 
d="M333 456q101 0 167.5 -65t66.5 -164q0 -102 -72 -169t-183 -67q-132 0 -202 96t-70 244q0 102 32 187.5t104 142.5t173 57q111 0 193 -60l-49 -83q-64 45 -137 45q-68 0 -116.5 -43t-68.5 -100.5t-21 -119.5l-1 -1q25 47 73.5 73.5t110.5 26.5zM312 88q61 0 102 40t41 99
q0 57 -40.5 95t-100.5 38q-61 0 -102 -38t-41 -96t41 -98t100 -40z" />
    <glyph glyph-name="seven.osf" horiz-adv-x="502" 
d="M16 579h470v-71l-280 -607h-123l272 578h-339v100z" />
    <glyph glyph-name="eight.osf" horiz-adv-x="622" 
d="M312 -11q-119 0 -194 57.5t-75 145.5q0 59 39 109.5t104 72.5v2q-52 24 -82 65t-30 91q0 81 66 134t172 53q105 0 170.5 -52.5t65.5 -134.5q0 -50 -30 -91.5t-83 -64.5v-3q66 -21 105 -71.5t39 -109.5q0 -88 -74.5 -145.5t-192.5 -57.5zM311 418q59 0 94 29.5t35 74.5
q0 46 -35.5 75.5t-93.5 29.5t-94 -29.5t-36 -75.5q0 -45 35.5 -74.5t94.5 -29.5zM312 87q67 0 110 33.5t43 85.5q0 51 -42 83.5t-112 32.5t-112.5 -33t-42.5 -83q0 -52 43.5 -85.5t112.5 -33.5z" />
    <glyph glyph-name="nine.osf" horiz-adv-x="600" 
d="M289 594q131 0 199.5 -93.5t68.5 -246.5q0 -105 -30.5 -185.5t-100 -131t-172.5 -50.5q-117 0 -195 59l43 85q70 -47 147 -47q97 0 147 67.5t53 171.5q-26 -42 -74.5 -66t-108.5 -24q-101 0 -166.5 64t-65.5 161q0 103 71 169.5t184 66.5zM285 226q61 0 101.5 38t40.5 96
q0 57 -40.5 97t-99.5 40q-60 0 -101 -39t-41 -99q0 -58 40 -95.5t100 -37.5z" />
    <glyph glyph-name="zero.slash" horiz-adv-x="682" 
d="M341 752q76 0 134.5 -33t91.5 -88.5t49.5 -121.5t16.5 -139t-16.5 -139t-49.5 -121.5t-91.5 -88.5t-134.5 -33t-134 33t-91.5 88.5t-50 121.5t-16.5 139t16.5 139t50 121.5t91.5 88.5t134 33zM341 654q-91 0 -136 -80t-45 -204q0 -95 25 -163l272 396q-45 51 -116 51z
M341 86q92 0 137 79.5t45 204.5q0 85 -21 151l-269 -392q43 -43 108 -43z" />
    <glyph glyph-name="zero.tf" horiz-adv-x="602" 
d="M301 -12q-71 0 -126 33t-86.5 88.5t-47.5 121.5t-16 139t16 139t47.5 121.5t86.5 88.5t126 33q72 0 127 -33t86.5 -88.5t47.5 -121.5t16 -139t-16 -139t-47.5 -121.5t-86.5 -88.5t-127 -33zM301 96q83 0 124 76.5t41 197.5q0 120 -41 197t-124 77q-82 0 -123 -77
t-41 -197q0 -121 40.5 -197.5t123.5 -76.5z" />
    <glyph glyph-name="one.tf" horiz-adv-x="602" 
d="M379 106h156v-106h-433v106h163v479l-129 -105l-62 81l216 178h89v-633z" />
    <glyph glyph-name="two.tf" horiz-adv-x="602" 
d="M229 106h305v-106h-468v96l235 250q38 41 56 62t36 56t18 66q0 51 -36 83t-88 32q-87 0 -175 -83l-63 82q109 108 243 108q102 0 167.5 -62t65.5 -161q0 -101 -114 -224z" />
    <glyph glyph-name="three.tf" horiz-adv-x="602" 
d="M267 -12q-120 0 -231 73l51 93q95 -60 177 -60q65 0 103 32t38 83q0 52 -39 84.5t-101 32.5h-92v104h87q58 0 94 30t36 79t-35 77.5t-87 28.5q-75 0 -158 -62l-57 81q42 41 102 64.5t124 23.5q99 0 164 -56t65 -138q0 -59 -36 -104.5t-92 -63.5v-4q68 -16 106.5 -65
t38.5 -117q0 -95 -72 -155.5t-186 -60.5z" />
    <glyph glyph-name="four.tf" horiz-adv-x="602" 
d="M572 280v-99h-82v-181h-109v181h-338l-24 72l398 486h73v-459h82zM163 280h218v267z" />
    <glyph glyph-name="five.tf" horiz-adv-x="602" 
d="M301 480q106 0 177.5 -68t71.5 -174q0 -109 -74.5 -179.5t-192.5 -70.5q-132 0 -240 87l50 90q94 -71 185 -71q69 0 112 41t43 102q0 60 -42 100t-106 40q-77 0 -131 -55l-73 48l42 369h376v-104h-289l-21 -180q52 25 112 25z" />
    <glyph glyph-name="six.tf" horiz-adv-x="602" 
d="M337 477q101 0 167.5 -67.5t66.5 -170.5q0 -107 -72 -177.5t-184 -70.5q-89 0 -152 49t-92 128t-29 179q0 107 32 196.5t104.5 149t174.5 59.5q113 0 193 -63l-49 -86q-64 48 -138 48q-51 0 -92 -25.5t-65 -67t-36.5 -88t-12.5 -93.5q26 47 74.5 73.5t109.5 26.5zM316 92
q61 0 101.5 42t40.5 104q0 61 -40.5 101t-100.5 40q-61 0 -102 -40t-41 -102q0 -61 41 -103t101 -42z" />
    <glyph glyph-name="seven.tf" horiz-adv-x="602" 
d="M70 739h487v-70l-329 -669h-123l319 636h-354v103z" />
    <glyph glyph-name="eight.tf" horiz-adv-x="602" 
d="M301 -12q-119 0 -194 60t-75 152q0 62 39 114.5t104 76.5v2q-52 25 -82 68t-30 96q0 85 66 140t172 55q105 0 171 -55t66 -140q0 -53 -30.5 -96.5t-83.5 -67.5v-3q67 -23 106 -75.5t39 -114.5q0 -92 -75 -152t-193 -60zM300 436q59 0 94 31.5t35 78.5q0 48 -35 79t-93 31
t-94 -31t-36 -79q0 -47 35 -78.5t94 -31.5zM301 89q68 0 110.5 35.5t42.5 90.5q0 53 -42 87.5t-111 34.5q-71 0 -113 -34.5t-42 -87.5q0 -55 43 -90.5t112 -35.5z" />
    <glyph glyph-name="nine.tf" horiz-adv-x="602" 
d="M291 752q131 0 200 -98.5t69 -260.5q0 -82 -18 -153t-53.5 -128.5t-95 -90.5t-137.5 -33q-120 0 -195 63l43 88q67 -50 148 -50q66 0 111.5 39t66 98t22.5 134q-26 -43 -75 -69t-109 -26q-101 0 -167 67.5t-66 170.5q0 108 71.5 178.5t184.5 70.5zM288 363q60 0 101 40.5
t41 101.5q0 62 -40.5 104.5t-100.5 42.5t-101 -42t-41 -105q0 -61 40 -101.5t101 -40.5z" />
    <glyph glyph-name="zero.dnom" horiz-adv-x="377" 
d="M188 -5q-81 0 -122.5 59t-41.5 146t41.5 146.5t122.5 59.5q82 0 123.5 -59t41.5 -147q0 -87 -41.5 -146t-123.5 -59zM188 69q83 0 83 131q0 56 -19.5 93.5t-63.5 37.5q-43 0 -62.5 -37t-19.5 -94t19.5 -94t62.5 -37z" />
    <glyph glyph-name="one.dnom" horiz-adv-x="269" 
d="M151 393h60v-394h-80v284l-74 -58l-42 61z" />
    <glyph glyph-name="two.dnom" horiz-adv-x="345" 
d="M151 71h153v-71h-265v63l130 132q52 54 52 87q0 22 -16 36.5t-41 14.5q-44 0 -94 -47l-40 58q61 61 139 61q58 0 95 -34t37 -88q0 -57 -55 -113z" />
    <glyph glyph-name="three.dnom" horiz-adv-x="332" 
d="M147 -6q-68 0 -132 39l32 61q55 -30 97 -30q33 0 51.5 15t18.5 38t-19.5 38t-50.5 15h-52v67h48q26 0 46 13t20 36t-17.5 35.5t-42.5 12.5q-39 0 -83 -31l-38 55q52 47 130 47q56 0 93.5 -30.5t37.5 -74.5q0 -32 -20 -56t-52 -34v-2q38 -8 59.5 -34.5t21.5 -62.5
q0 -52 -41.5 -84.5t-106.5 -32.5z" />
    <glyph glyph-name="four.dnom" horiz-adv-x="367" 
d="M331 158v-63h-43v-95h-70v95h-183l-16 46l213 255h56v-238h43zM109 158h109v130z" />
    <glyph glyph-name="five.dnom" horiz-adv-x="345" 
d="M176 256q60 0 97.5 -36.5t37.5 -92.5q0 -58 -41.5 -96t-107.5 -38q-75 0 -136 46l32 60q50 -36 99 -36q35 0 56.5 18.5t21.5 47.5q0 28 -20 46t-52 18q-39 0 -70 -28l-42 33l24 197h210v-65h-156l-11 -86q27 12 58 12z" />
    <glyph glyph-name="six.dnom" horiz-adv-x="350" 
d="M192 256q58 0 95 -36t37 -92q0 -59 -40.5 -97t-104.5 -38q-75 0 -115.5 54.5t-40.5 137.5q0 93 46 156.5t134 63.5q65 0 111 -34l-31 -57q-34 25 -76 25q-50 0 -80 -38.5t-33 -90.5q32 46 98 46zM179 58q31 0 51.5 20t20.5 49t-20.5 48t-50.5 19q-31 0 -51.5 -19
t-20.5 -48t20.5 -49t50.5 -20z" />
    <glyph glyph-name="seven.dnom" horiz-adv-x="292" 
d="M13 393h266v-53l-154 -339h-82l149 323h-179v69z" />
    <glyph glyph-name="eight.dnom" horiz-adv-x="381" 
d="M190 -6q-69 0 -110.5 32.5t-41.5 82.5q0 33 21.5 60.5t59.5 41.5v1q-29 12 -46.5 35t-17.5 51q0 47 37.5 77t97.5 30t97.5 -30t37.5 -77q0 -58 -64 -86v-2q38 -14 59.5 -41t21.5 -60q0 -49 -41.5 -82t-110.5 -33zM190 239q28 0 45 15t17 37t-17.5 37t-44.5 15t-44.5 -15
t-17.5 -37t17 -37t45 -15zM190 58q33 0 54 17t21 43q0 25 -20.5 42t-54.5 17t-54.5 -17t-20.5 -42q0 -26 21 -43t54 -17z" />
    <glyph glyph-name="nine.dnom" horiz-adv-x="372" 
d="M179 405q75 0 114 -53.5t39 -140.5q0 -93 -44 -155t-131 -62q-69 0 -112 34l29 57q37 -25 79 -25q51 0 79 36.5t31 93.5q-36 -48 -98 -48q-59 0 -95.5 36t-36.5 91q0 60 41 98t105 38zM177 204q30 0 50.5 19.5t20.5 47.5q0 29 -20 49.5t-50 20.5q-31 0 -51 -20t-20 -50
q0 -29 19.5 -48t50.5 -19z" />
    <glyph glyph-name="two_fraction_seven" horiz-adv-x="883" 
d="M48 410l131 132q52 55 52 87q0 22 -16.5 36.5t-40.5 14.5q-43 0 -95 -47l-40 58q63 61 140 61q58 0 95 -34t37 -88q0 -55 -55 -113l-95 -99h153v-71h-266v63zM707 739h93l-576 -739h-95zM570 393h265v-53l-153 -339h-83l149 323h-178v69z" />
    <glyph glyph-name="three_fraction_seven" horiz-adv-x="865" 
d="M155 411q33 0 51.5 15t18.5 38t-20 38t-51 15h-52v67h49q26 0 45.5 13t19.5 36t-17.5 35.5t-42.5 12.5q-38 0 -83 -31l-38 55q53 47 130 47q57 0 94 -30t37 -75q0 -32 -19.5 -56t-51.5 -34v-2q38 -8 59.5 -34.5t21.5 -62.5q0 -52 -41.5 -84.5t-106.5 -32.5q-67 0 -133 39
l33 61q56 -30 97 -30zM682 739h93l-576 -739h-95zM553 393h265v-53l-153 -339h-83l149 323h-178v69z" />
    <glyph glyph-name="four_fraction_seven" horiz-adv-x="888" 
d="M229 347v95h-183l-17 46l213 255h57v-238h43v-63h-43v-95h-70zM708 739h93l-576 -739h-95zM120 505h109v130zM571 393h266v-53l-154 -339h-82l148 323h-178v69z" />
    <glyph glyph-name="five_fraction_seven" horiz-adv-x="856" 
d="M168 410q35 0 56.5 18.5t21.5 47.5q0 27 -20.5 45.5t-52.5 18.5q-39 0 -70 -28l-42 33l24 197h210v-65h-155l-11 -85q29 11 57 11q60 0 98 -36.5t38 -92.5q0 -58 -42 -96t-108 -38q-73 0 -136 46l32 60q51 -36 100 -36zM680 739h93l-576 -739h-95zM543 393h265v-53
l-153 -339h-83l149 323h-178v69z" />
    <glyph glyph-name="six_fraction_seven" horiz-adv-x="861" 
d="M326 475q0 -59 -40.5 -97t-104.5 -38q-76 0 -116 54t-40 138q0 93 46 156.5t134 63.5q63 0 111 -34l-31 -57q-35 25 -76 25q-50 0 -80 -38.5t-33 -90.5q32 46 97 46q58 0 95.5 -36t37.5 -92zM681 739h93l-576 -739h-95zM110 474q0 -29 20.5 -49t50.5 -20t50.5 20t20.5 49
t-20 48t-50 19q-31 0 -51.5 -19t-20.5 -48zM548 393h266v-53l-154 -339h-82l148 323h-178v69z" />
    <glyph glyph-name="two_fraction_nine" horiz-adv-x="883" 
d="M44 410l130 132q52 54 52 87q0 22 -16 36.5t-41 14.5q-44 0 -94 -47l-40 58q61 61 139 61q58 0 95 -34t37 -88q0 -57 -55 -113l-95 -99h153v-71h-265v63zM703 739h93l-576 -739h-95zM692 405q75 0 114.5 -53.5t39.5 -140.5q0 -93 -44.5 -155t-131.5 -62q-68 0 -112 34
l29 57q37 -25 80 -25q51 0 79 37t31 94q-35 -49 -99 -49q-58 0 -94.5 36t-36.5 91q0 60 40.5 98t104.5 38zM691 204q30 0 50.5 19.5t20.5 47.5q0 29 -20 49.5t-50 20.5q-31 0 -51 -20t-20 -50q0 -29 19.5 -48t50.5 -19z" />
    <glyph glyph-name="four_fraction_nine" horiz-adv-x="919" 
d="M229 347v95h-183l-17 46l213 255h57v-238h43v-63h-43v-95h-70zM728 738h93l-577 -739h-94zM120 505h109v130zM718 405q75 0 114 -53.5t39 -140.5q0 -93 -44 -155t-131 -62q-68 0 -112 34l29 57q37 -25 79 -25q51 0 79.5 37t31.5 94q-35 -49 -99 -49q-59 0 -95 36t-36 91
q0 60 40.5 98t104.5 38zM717 204q30 0 50 19t20 48t-20 49.5t-50 20.5t-50 -20t-20 -50q0 -29 19.5 -48t50.5 -19z" />
    <glyph glyph-name="five_fraction_nine" horiz-adv-x="855" 
d="M163 410q35 0 56.5 18.5t21.5 47.5q0 28 -20 46t-52 18q-39 0 -70 -28l-42 33l24 197h210v-65h-156l-11 -86q27 12 58 12q60 0 97.5 -36.5t37.5 -92.5q0 -58 -41.5 -96t-107.5 -38q-75 0 -136 46l32 60q50 -36 99 -36zM675 738h93l-576 -739h-95zM664 405q75 0 114 -53.5
t39 -140.5q0 -93 -44.5 -155t-131.5 -62q-68 0 -112 34l29 57q38 -25 80 -25q51 0 79 36.5t31 93.5q-36 -48 -98 -48q-59 0 -95.5 36t-36.5 91q0 60 41 98t105 38zM662 204q30 0 50.5 19.5t20.5 47.5q0 29 -20 49.5t-50 20.5q-31 0 -51 -20t-20 -50q0 -29 19.5 -48t50.5 -19
z" />
    <glyph glyph-name="seven_fraction_nine" horiz-adv-x="810" 
d="M53 348l148 323h-178v69h266v-53l-154 -339h-82zM610 738h93l-576 -739h-95zM617 405q75 0 114 -53.5t39 -140.5q0 -93 -44 -155t-131 -62q-68 0 -112 34l29 57q37 -25 80 -25q51 0 79 37t31 94q-35 -49 -99 -49q-58 0 -94.5 36t-36.5 91q0 60 40.5 98t104.5 38zM616 204
q30 0 50 19t20 48q0 30 -19.5 50t-49.5 20q-31 0 -51 -20t-20 -50q0 -29 19.5 -48t50.5 -19z" />
    <glyph glyph-name="eight_fraction_nine" horiz-adv-x="857" 
d="M341 456q0 -49 -41.5 -82t-110.5 -33t-110.5 32.5t-41.5 82.5q0 33 21.5 60.5t59.5 41.5v1q-29 12 -46.5 35t-17.5 51q0 47 37.5 77t97.5 30t97.5 -30t37.5 -77q0 -58 -64 -86v-2q38 -14 59.5 -41t21.5 -60zM677 738h93l-576 -739h-95zM189 690q-27 0 -44.5 -15
t-17.5 -37t17 -37t45 -15t45 15t17 37t-17.5 37t-44.5 15zM114 465q0 -26 21 -43t54 -17t54 17t21 43q0 25 -20.5 42t-54.5 17t-54.5 -17t-20.5 -42zM666 405q75 0 114 -53.5t39 -140.5q0 -93 -44 -155t-131 -62q-69 0 -112 34l29 57q37 -25 79 -25q51 0 79 36.5t31 93.5
q-36 -48 -98 -48q-59 0 -95 36t-36 91q0 60 40.5 98t104.5 38zM664 204q30 0 50.5 19.5t20.5 47.5q0 29 -20 49.5t-50 20.5q-31 0 -51 -20t-20 -50q0 -29 19.5 -48t50.5 -19z" />
    <glyph glyph-name="backslash.case" horiz-adv-x="561" 
d="M539 0h-113l-406 739h113z" />
    <glyph glyph-name="periodcentered.case" horiz-adv-x="259" 
d="M130 298q-30 0 -50.5 20t-20.5 50q0 29 20.5 49t50.5 20q29 0 49 -20t20 -49q0 -30 -20 -50t-49 -20z" />
    <glyph glyph-name="colon.case" horiz-adv-x="276" 
d="M139 452q-30 0 -50.5 20t-20.5 51q0 29 20.5 48.5t50.5 19.5q29 0 49 -20t20 -48q0 -30 -20 -50.5t-49 -20.5zM139 112q-30 0 -50.5 20t-20.5 50q0 29 20.5 49t50.5 20q29 0 49 -20t20 -49q0 -30 -20 -50t-49 -20z" />
    <glyph glyph-name="exclamdown.case" horiz-adv-x="291" 
d="M159 756q29 0 48.5 -20t19.5 -50q0 -29 -19.5 -48.5t-48.5 -19.5q-30 0 -50.5 19.5t-20.5 48.5q0 30 20.5 50t50.5 20zM103 556h108l6 -557h-119z" />
    <glyph glyph-name="questiondown.case" horiz-adv-x="524" 
d="M296 756q30 0 50.5 -20t20.5 -50q0 -29 -20.5 -48.5t-50.5 -19.5q-29 0 -48.5 19.5t-19.5 48.5q0 30 20 50t48 20zM350 568v-71q0 -40 -20 -75t-48.5 -60t-57 -49.5t-48.5 -55t-20 -64.5q0 -49 35 -79.5t88 -30.5q77 0 151 81l68 -76q-42 -50 -102 -80t-125 -30
q-96 0 -162.5 59.5t-66.5 150.5q0 46 21 85.5t51 66.5t60 51.5t51 52.5t21 57v67h104z" />
    <glyph glyph-name="semicolon.case" horiz-adv-x="293" 
d="M155 453q-30 0 -50.5 20t-20.5 51q0 29 20.5 49t50.5 20q29 0 49.5 -20t20.5 -49q0 -30 -20.5 -50.5t-49.5 -20.5zM151 263q33 0 54.5 -23t21.5 -58q0 -93 -134 -180l-35 47q70 52 86 82h-3q-25 0 -43 18.5t-18 44.5q0 29 21 49t50 20z" />
    <glyph glyph-name="slash.case" horiz-adv-x="561" 
d="M22 0l405 739h114l-406 -739h-113z" />
    <glyph glyph-name="semicolon.case.ss03" horiz-adv-x="293" 
d="M155 453q-30 0 -50.5 20t-20.5 51q0 29 20.5 49t50.5 20q29 0 49.5 -20t20.5 -49q0 -30 -20.5 -50.5t-49.5 -20.5zM96 155h109l-102 -301h-81z" />
    <glyph glyph-name="comma.ss03" horiz-adv-x="221" 
d="M86 124h108l-101 -301h-81z" />
    <glyph glyph-name="semicolon.ss03" horiz-adv-x="275" 
d="M150 349q-30 0 -51 20.5t-21 50.5q0 29 21 49t51 20q29 0 49 -20t20 -49q0 -30 -20 -50.5t-49 -20.5zM95 124h109l-101 -301h-82z" />
    <glyph glyph-name="braceleft.case" horiz-adv-x="390" 
d="M144 361q42 -13 73.5 -48t31.5 -85q0 -28 -4.5 -98.5t-4.5 -100.5q0 -89 90 -89h32v-98h-52q-178 0 -178 180q0 37 4 106t4 93q0 27 -9 46t-27.5 30t-35.5 16t-43 10v80q27 6 43 11t35 15.5t28 29.5t9 46q0 23 -4 94t-4 109q0 176 181 176h49v-97h-32q-90 0 -90 -88
q0 -31 4.5 -102t4.5 -98q0 -50 -31.5 -85t-73.5 -49v-4z" />
    <glyph glyph-name="braceright.case" horiz-adv-x="390" 
d="M247 362v3q-43 13 -74.5 48.5t-31.5 85.5q0 28 4.5 99t4.5 101q0 88 -90 88h-31v98h48q181 0 181 -177q0 -38 -3.5 -108t-3.5 -94q0 -36 18.5 -58t39.5 -29.5t57 -14.5v-80q-26 -5 -43 -10t-35.5 -16t-27.5 -30t-9 -46q0 -24 3.5 -93.5t3.5 -106.5q0 -179 -178 -179h-51
v97h31q90 0 90 89q0 30 -4.5 100.5t-4.5 99.5q0 49 31.5 84.5t74.5 48.5z" />
    <glyph glyph-name="bracketleft.case" horiz-adv-x="391" 
d="M90 -153v1038h280v-94h-167v-850h167v-94h-280z" />
    <glyph glyph-name="bracketright.case" horiz-adv-x="391" 
d="M21 -153v94h167v850h-167v94h280v-1038h-280z" />
    <glyph glyph-name="parenleft.case" horiz-adv-x="402" 
d="M342 -149q-145 78 -223 211.5t-78 302.5t78 303t225 212l47 -85q-230 -154 -230 -430q0 -273 230 -430z" />
    <glyph glyph-name="parenright.case" horiz-adv-x="402" 
d="M59 -149l-48 84q230 157 230 430q0 276 -230 430l46 85q147 -78 225.5 -212t78.5 -303t-78 -302.5t-224 -211.5z" />
    <glyph glyph-name="emdash.case" horiz-adv-x="1044" 
d="M68 322v111h908v-111h-908z" />
    <glyph glyph-name="endash.case" horiz-adv-x="725" 
d="M68 322v111h589v-111h-589z" />
    <glyph glyph-name="hyphen.case" horiz-adv-x="530" 
d="M68 322v111h394v-111h-394z" />
    <glyph glyph-name="guillemotleft.case" horiz-adv-x="550" 
d="M184 176l-140 203l140 203h111l-141 -203l141 -203h-111zM381 176l-139 203l139 203h112l-141 -203l141 -203h-112z" />
    <glyph glyph-name="guillemotright.case" horiz-adv-x="550" 
d="M169 176h-113l141 203l-141 203h113l138 -203zM366 176h-112l142 203l-142 203h112l140 -203z" />
    <glyph glyph-name="guilsinglleft.case" horiz-adv-x="352" 
d="M184 176l-140 203l140 203h111l-141 -203l141 -203h-111z" />
    <glyph glyph-name="guilsinglright.case" horiz-adv-x="352" 
d="M168 176h-112l142 203l-142 203h112l140 -203z" />
    <glyph glyph-name="quotedblbase.ss03" horiz-adv-x="482" 
d="M109 153h109l-101 -301h-82zM336 153h108l-101 -301h-81z" />
    <glyph glyph-name="quotedblleft.ss03" horiz-adv-x="461" 
d="M147 536h-109l102 301h81zM375 536h-109l102 301h81z" />
    <glyph glyph-name="quotedblright.ss03" horiz-adv-x="476" 
d="M112 838h109l-101 -301h-82zM339 838h108l-101 -301h-81z" />
    <glyph glyph-name="quoteleft.ss03" horiz-adv-x="241" 
d="M144 536h-109l102 301h81z" />
    <glyph glyph-name="quoteright.ss03" horiz-adv-x="239" 
d="M118 838h108l-101 -301h-81z" />
    <glyph glyph-name="quotesinglbase.ss03" horiz-adv-x="247" 
d="M84 153h108l-101 -301h-81z" />
    <glyph glyph-name="dollar.osf" horiz-adv-x="500" 
d="M473 161q0 -64 -46.5 -109.5t-120.5 -58.5v-115h-96v113q-60 9 -109 40t-77 82l74 64q53 -93 157 -93q48 0 76 20t28 53q0 24 -16.5 39t-48.5 30q-13 6 -63.5 27t-76.5 36q-96 55 -96 140q0 64 43.5 107t117.5 54v106h97v-108q84 -16 142 -80l-64 -69q-60 61 -134 61
q-42 0 -68.5 -17.5t-26.5 -47.5q0 -39 65 -71q19 -10 73.5 -33t76.5 -35q93 -52 93 -135z" />
    <glyph glyph-name="Euro.osf" horiz-adv-x="574" 
d="M187 220q19 -67 73.5 -108t130.5 -41t158 43v-87q-70 -38 -165 -38q-112 0 -192 64t-101 167h-85l30 67h-28l30 70h53q22 106 103.5 171.5t191.5 65.5q111 0 193 -56l-41 -71q-67 43 -144 43q-73 0 -130 -42t-77 -111h310l-33 -67h6l-30 -70h-253z" />
    <glyph glyph-name="sterling.osf" horiz-adv-x="480" 
d="M161 94h309v-94h-437v75q40 28 63 65.5t23 73.5q0 18 -7 41h-80v77h48q-15 37 -15 70q0 84 59 137t148 54q134 2 197 -113l-75 -52q-39 75 -116 75q-47 0 -77 -31t-30 -77q0 -30 14 -63h221v-77h-190q5 -18 5 -36q0 -71 -60 -125z" />
    <glyph glyph-name="yen.osf" horiz-adv-x="485" 
d="M495 585l-156 -280h104v-75h-146v-36h146v-75h-146v-119h-105v119h-146v75h146v36h-146v75h106l-156 280h113l136 -261l138 261h112z" />
    <glyph glyph-name="at.case" horiz-adv-x="971" 
d="M607 567h87v-270q0 -33 15 -51.5t37 -18.5q42 0 73 50.5t31 128.5q0 136 -103 232.5t-250 95.5q-151 -1 -256 -108.5t-105 -262.5q0 -153 110 -262t270 -109q155 0 274 96l44 -69q-54 -46 -141.5 -78.5t-183.5 -32.5t-182.5 36.5t-148 97.5t-97.5 145t-36 175
q0 124 60 229t164 166t226 61q184 0 313.5 -122t129.5 -289q0 -112 -60 -186.5t-146 -74.5q-46 0 -75.5 22.5t-39.5 54.5q-55 -77 -156 -77q-86 0 -145 62t-59 155q0 92 59.5 155.5t147.5 63.5q92 0 143 -63v48zM476 227q55 0 93 39t38 96q0 59 -37 99t-92 40t-92.5 -39.5
t-37.5 -97.5q0 -59 36.5 -98t91.5 -39z" />
    <glyph glyph-name="caron.alt" horiz-adv-x="304" 
d="M28 622l58 171h120l-85 -171h-93z" />
    <glyph glyph-name="acute.case" horiz-adv-x="323" 
d="M40 795l61 172h132l-94 -172h-99z" />
    <glyph glyph-name="breve.case" horiz-adv-x="458" 
d="M222 789q-80 0 -129.5 48t-52.5 130h93q2 -45 25.5 -71t63.5 -26t63 26t25 71h94q-3 -82 -52.5 -130t-129.5 -48z" />
    <glyph glyph-name="caron.case" horiz-adv-x="502" 
d="M66 958h112l70 -88l69 88h115l-143 -168h-80z" />
    <glyph glyph-name="cedilla.case" horiz-adv-x="324" 
d="M186 -48q44 0 75 -25t31 -70q0 -46 -35 -79.5t-100 -33.5q-54 0 -117 29l27 69q44 -21 81 -21q27 0 41.5 12t14.5 30q0 36 -53 36h-56l-8 23l39 98l84 -2l-27 -66h3z" />
    <glyph glyph-name="circumflex.case" horiz-adv-x="499" 
d="M39 795l145 171h81l145 -171h-116l-71 90l-70 -90h-114z" />
    <glyph glyph-name="dieresis.case" horiz-adv-x="426" 
d="M113 811q-29 0 -49 19.5t-20 49.5q0 28 20 47t49 19t48.5 -19t19.5 -47q0 -30 -19.5 -49.5t-48.5 -19.5zM304 811q-29 0 -49 19.5t-20 49.5q0 28 20 47t49 19q28 0 47.5 -19t19.5 -47q0 -30 -19.5 -49.5t-47.5 -19.5z" />
    <glyph glyph-name="dotaccent.case" horiz-adv-x="302" 
d="M116 806q-32 0 -54 21.5t-22 53.5q0 31 22 52.5t54 21.5q31 0 52 -21.5t21 -52.5q0 -32 -21 -53.5t-52 -21.5z" />
    <glyph glyph-name="grave.case" horiz-adv-x="310" 
d="M235 795h-100l-95 173h133z" />
    <glyph glyph-name="hungarumlaut.case" horiz-adv-x="525" 
d="M49 795l42 172h130l-78 -172h-94zM235 795l52 172h132l-89 -172h-95z" />
    <glyph glyph-name="macron.case" horiz-adv-x="476" 
d="M43 821v98h348v-98h-348z" />
    <glyph glyph-name="ogonek.case" horiz-adv-x="325" 
d="M223 -157l35 -75q-48 -29 -99 -29q-54 0 -86.5 31.5t-32.5 79.5q0 100 135 167l68 -17q-47 -20 -77.5 -54.5t-30.5 -67.5q0 -21 13 -34t33 -13q16 0 42 12z" />
    <glyph glyph-name="ring.case" horiz-adv-x="338" 
d="M164 778q-52 0 -88 34.5t-36 83.5q0 50 36 85t88 35t88 -35t36 -85q0 -49 -36 -83.5t-88 -34.5zM164 843q22 0 38 15.5t16 39.5q0 22 -16 37.5t-38 15.5q-23 0 -39 -15.5t-16 -37.5q0 -24 16 -39.5t39 -15.5z" />
    <glyph glyph-name="tilde.case" horiz-adv-x="547" 
d="M112 819l-72 34q36 103 128 103q32 0 76.5 -22t62.5 -22q36 0 59 46l70 -33q-16 -49 -49 -76t-75 -27q-31 0 -75 22.5t-64 22.5q-37 0 -61 -48z" />
    <glyph glyph-name="brevecombcy" horiz-adv-x="0" 
d="M-223 596q-120 0 -205 107l60 64q67 -82 145 -82q40 0 74 18.5t71 63.5l61 -64q-90 -107 -206 -107z" />
    <glyph glyph-name="NULL" horiz-adv-x="0" 
 />
    <glyph glyph-name="commaccent" horiz-adv-x="237" 
d="M131 -73q31 0 52.5 -22.5t21.5 -56.5q0 -85 -131 -173l-37 50q64 49 80 71q-24 2 -41 20t-17 43q0 28 21 48t51 20z" />
    <glyph glyph-name="commaccent.case" horiz-adv-x="190" 
d="M132 -74q31 0 53.5 -22.5t22.5 -57.5q0 -85 -132 -174l-38 50q65 50 80 72q-24 2 -41 20.5t-17 43.5q0 28 21 48t51 20z" />
    </font>
</defs>
</svg>
