<svg width="22" height="29" viewBox="0 0 22 29" fill="none" xmlns="http://www.w3.org/2000/svg">
<path fill-rule="evenodd" clip-rule="evenodd" d="M15 18C14.2636 18 13.6666 18.597 13.6666 19.3333L13.6666 25.1111L11.6274 24.0235C11.2353 23.8144 10.7647 23.8144 10.3725 24.0235L8.33332 25.1111L8.33332 19.3333C8.33332 18.597 7.73636 18 6.99998 18C6.2636 18 5.66665 18.597 5.66665 19.3333L5.66665 27.3333C5.66665 27.8017 5.91238 28.2357 6.31399 28.4767C6.7156 28.7176 7.21418 28.7302 7.62743 28.5098L11 26.7111L14.3725 28.5098C14.7858 28.7302 15.2844 28.7176 15.686 28.4767C16.0876 28.2357 16.3333 27.8017 16.3333 27.3333L16.3333 19.3333C16.3333 18.597 15.7364 18 15 18Z" fill="#00C1EB"/>
<path fill-rule="evenodd" clip-rule="evenodd" d="M10.9984 3.34377L8.95021 4.82122C8.61689 5.06121 8.23228 5.21615 7.83983 5.28048L7.8368 5.28098L5.35024 5.68275L4.94903 8.16582C4.88564 8.5828 4.71838 8.96671 4.48879 9.28559L3.01179 11.3331L4.48809 13.3796C4.72808 13.713 4.88302 14.0976 4.94735 14.49L4.94785 14.493L5.35015 16.9829L7.8328 17.384C8.24973 17.4474 8.6336 17.6147 8.95245 17.8443L11 19.3213L13.0465 17.845C13.3798 17.605 13.7644 17.45 14.1569 17.3857L14.1599 17.3852L16.6498 16.9829L17.0509 14.5003C17.1143 14.0833 17.2816 13.6995 17.5111 13.3806L18.9881 11.3331L17.5118 9.28656C17.2718 8.95324 17.1169 8.56862 17.0526 8.17617L17.0521 8.17315L16.6498 5.68328L14.1672 5.28216C13.7503 5.21877 13.3663 5.05151 13.0475 4.82192L10.9984 3.34377ZM12.5316 1.16172C11.6162 0.501329 10.3805 0.501329 9.46509 1.16172C9.46511 1.16171 9.46508 1.16174 9.46509 1.16172L7.40197 2.64998L4.8868 3.05638L4.88279 3.05703C3.77454 3.23957 2.90121 4.1084 2.72301 5.22459C2.7229 5.22528 2.72279 5.22598 2.72268 5.22668L2.31685 7.73831L0.828627 9.80139C0.828638 9.80137 0.828616 9.8014 0.828627 9.80139C0.16822 10.7168 0.168197 11.9493 0.828627 12.8648L2.31685 14.9279L2.72325 17.443L2.7239 17.4471C2.90673 18.5571 3.77597 19.4263 4.886 19.6092L4.89001 19.6098L7.40518 20.0162L9.46826 21.5044C9.46824 21.5044 9.46827 21.5044 9.46826 21.5044C10.3837 22.1648 11.6162 22.1649 12.5316 21.5045C12.5316 21.5045 12.5316 21.5044 12.5316 21.5045L14.5947 20.0162L17.1099 19.6098L17.1139 19.6092C18.224 19.4263 19.0932 18.5571 19.276 17.4471L19.2767 17.443L19.6831 14.9279L21.1713 12.8648C21.8317 11.9493 21.8317 10.7169 21.1713 9.80144C21.1713 9.80145 21.1713 9.80142 21.1713 9.80144L19.6831 7.73831L19.2767 5.22314L19.276 5.21913C19.0932 4.1091 18.224 3.23986 17.1139 3.05703L14.5947 2.64998L12.5316 1.16172C12.5316 1.16174 12.5316 1.16171 12.5316 1.16172Z" fill="#250048"/>
</svg>
