<svg width="24" height="24" viewBox="0 0 24 24" fill="none" xmlns="http://www.w3.org/2000/svg">
<path d="M21.0033 17.5015C21.5556 17.5015 22.0033 17.0538 22.0033 16.5015C22.0033 15.9492 21.5556 15.5015 21.0033 15.5015V17.5015ZM2.99658 15.5015C2.4443 15.5015 1.99658 15.9492 1.99658 16.5015C1.99658 17.0538 2.4443 17.5015 2.99658 17.5015V15.5015ZM5.69759 9.29882H4.69759H5.69759ZM18.3023 9.29882H19.3023H18.3023ZM13.5575 20.1029L14.4225 20.6046C14.602 20.2953 14.6026 19.9136 14.4241 19.6037C14.2456 19.2938 13.9152 19.1029 13.5575 19.1029V20.1029ZM10.4424 20.1029V19.1029C10.0848 19.1029 9.75435 19.2938 9.57585 19.6037C9.39735 19.9136 9.39794 20.2953 9.57738 20.6046L10.4424 20.1029ZM21.0033 15.5015H2.99658V17.5015H21.0033V15.5015ZM2.99658 17.5015C5.04059 17.5015 6.69759 15.8445 6.69759 13.8005H4.69759C4.69759 14.7399 3.93602 15.5015 2.99658 15.5015V17.5015ZM6.69759 13.8005V9.29882H4.69759V13.8005H6.69759ZM6.69759 9.29882C6.69759 6.37041 9.07154 3.99646 11.9999 3.99646V1.99646C7.96697 1.99646 4.69759 5.26584 4.69759 9.29882H6.69759ZM11.9999 3.99646C14.9284 3.99646 17.3023 6.37041 17.3023 9.29882H19.3023C19.3023 5.26584 16.0329 1.99646 11.9999 1.99646V3.99646ZM17.3023 9.29882V13.8005H19.3023V9.29882H17.3023ZM17.3023 13.8005C17.3023 15.8445 18.9593 17.5015 21.0033 17.5015V15.5015C20.0639 15.5015 19.3023 14.7399 19.3023 13.8005H17.3023ZM12.6925 19.6011C12.5493 19.848 12.2854 20 12 20V22C12.9985 22 13.9215 21.4684 14.4225 20.6046L12.6925 19.6011ZM12 20C11.7145 20 11.4506 19.848 11.3074 19.6011L9.57738 20.6046C10.0784 21.4684 11.0014 22 12 22V20ZM10.4424 21.1029H13.5575V19.1029H10.4424V21.1029Z" fill="white"/>
</svg>
