<svg width="25" height="24" viewBox="0 0 25 24" fill="none" xmlns="http://www.w3.org/2000/svg">
<path d="M12 7H14V14H12V7Z" fill="#005EEB"/>
<path d="M12 16C12 15.4477 12.4477 15 13 15C13.5523 15 14 15.4477 14 16C14 16.5523 13.5523 17 13 17C12.4477 17 12 16.5523 12 16Z" fill="#005EEB"/>
<path fill-rule="evenodd" clip-rule="evenodd" d="M13 19C16.866 19 20 15.866 20 12C20 8.13401 16.866 5 13 5C9.13401 5 6 8.13401 6 12C6 15.866 9.13401 19 13 19ZM13 21C17.9706 21 22 16.9706 22 12C22 7.02944 17.9706 3 13 3C8.02944 3 4 7.02944 4 12C4 16.9706 8.02944 21 13 21Z" fill="#005EEB"/>
</svg>
